<?xml version="1.0" standalone="no"?>
<!DOCTYPE svg PUBLIC "-//W3C//DTD SVG 20010904//EN"
 "http://www.w3.org/TR/2001/REC-SVG-20010904/DTD/svg10.dtd">
<svg version="1.0" xmlns="http://www.w3.org/2000/svg"
 width="500.000000pt" height="333.000000pt" viewBox="0 0 500.000000 333.000000"
 preserveAspectRatio="xMidYMid meet">
<metadata>
Created by potrace 1.15, written by Peter Selinger 2001-2017
</metadata>
<g transform="translate(0.000000,333.000000) scale(0.100000,-0.100000)"
fill="#000000" stroke="none">
<path d="M1683 3258 l2 -73 -35 1 c-53 0 -224 16 -232 20 -17 10 -359 33 -380
25 -54 -20 -398 -5 -398 18 0 3 -27 6 -61 7 -37 1 -55 -2 -47 -7 8 -5 -19 -8
-64 -6 -47 1 -77 6 -74 12 1 6 27 9 57 7 35 -2 49 1 39 7 -8 4 -48 11 -87 13
-63 5 -73 3 -73 -11 -1 -13 -3 -13 -15 3 -11 15 -17 16 -28 8 -14 -12 -83 -12
-102 0 -5 3 -32 2 -60 -2 -27 -4 -61 -4 -74 1 -30 12 -42 1 -16 -14 19 -11 19
-11 -5 -17 -21 -5 -25 -12 -28 -46 l-3 -41 153 -12 c205 -16 241 -19 398 -36
74 -8 169 -17 210 -20 41 -4 156 -15 255 -26 331 -36 660 -67 666 -63 8 5 17
-273 29 -871 5 -269 12 -528 15 -575 7 -129 20 -502 20 -620 l0 -105 -80 -8
c-77 -7 -414 -53 -465 -63 -14 -3 -41 -7 -60 -9 -19 -2 -62 -8 -95 -14 -233
-40 -334 -55 -863 -125 -94 -13 -175 -25 -177 -28 -3 -3 -4 -46 -3 -95 l3 -89
110 17 c61 10 252 38 425 64 173 25 383 57 465 70 167 26 352 55 555 85 74 11
149 22 167 25 29 5 32 3 30 -17 -2 -26 14 -470 18 -508 2 -14 4 -51 4 -82 l1
-58 75 0 75 0 -5 73 c-2 39 -7 171 -10 292 -4 121 -7 245 -8 275 l-2 55 50 7
c28 4 154 24 280 43 435 68 490 75 540 70 40 -3 44 -3 20 5 -23 6 -16 7 26 3
43 -4 59 -1 65 9 13 20 230 53 265 40 20 -8 30 -6 50 9 13 10 27 19 31 19 3 0
7 -118 8 -262 1 -145 3 -281 4 -303 1 -22 3 -106 4 -187 l2 -148 114 0 114 0
6 35 c5 26 12 35 26 35 24 0 25 6 5 26 -8 9 -15 27 -15 42 0 20 3 23 9 12 6
-8 7 -19 4 -25 -4 -6 -2 -6 6 1 18 16 31 73 19 80 -6 4 -14 0 -19 -7 -5 -8 -9
-9 -9 -4 0 29 18 36 71 30 94 -11 101 -13 90 -34 -6 -10 -6 -22 -1 -27 11 -11
31 -96 24 -103 -2 -3 -23 13 -47 35 -40 37 -41 37 -12 4 17 -19 33 -36 36 -38
3 -1 15 -10 25 -18 18 -15 18 -15 -4 -10 -23 4 -23 4 -6 -15 16 -18 33 -19
285 -19 204 0 269 3 272 13 4 9 6 9 6 0 2 -22 27 -14 39 12 15 32 32 32 32 0
0 -14 5 -25 10 -25 9 0 13 34 14 152 1 25 4 50 9 54 4 4 7 2 7 -4 0 -6 10 -12
23 -14 20 -3 22 -9 25 -68 3 -57 1 -66 -20 -82 -15 -12 -17 -16 -6 -12 11 4
20 0 24 -10 5 -14 34 -16 231 -16 l225 0 -7 27 c-3 16 -20 42 -36 58 -16 17
-29 34 -29 37 0 6 42 -11 84 -34 15 -8 18 -7 13 5 -18 48 -28 106 -31 189 -2
51 -6 100 -9 108 -6 16 -27 251 -27 301 0 28 2 30 17 18 15 -13 16 -11 9 16
-4 17 -10 49 -13 73 -4 38 -2 44 16 49 19 5 21 12 21 90 0 72 -2 84 -15 79
-10 -4 -15 1 -15 14 0 11 7 20 15 20 19 0 20 19 2 26 -8 3 -14 10 -15 17 -1 7
-4 33 -8 59 -3 26 -3 59 1 75 7 26 8 26 15 8 5 -11 6 -29 4 -40 -2 -11 0 -40
5 -65 8 -38 9 -29 9 62 0 85 -3 108 -14 108 -8 0 -14 5 -14 10 0 6 14 10 30
10 41 0 38 18 -5 26 -36 6 -49 24 -18 24 15 0 14 2 -3 15 -10 8 -14 15 -8 15
12 0 12 29 0 48 -5 8 0 12 13 13 12 1 26 3 31 4 6 1 35 3 65 4 40 1 55 5 55
15 0 10 -19 15 -67 18 -39 2 -68 9 -71 16 -2 7 -14 12 -26 12 -26 0 -46 17
-40 34 3 7 18 10 39 8 41 -5 48 14 10 24 -17 4 -25 13 -25 28 0 39 22 100 47
133 26 33 26 58 1 32 -22 -23 -58 -89 -58 -107 -1 -15 -2 -14 -12 2 -8 15 -8
21 0 24 16 5 15 20 -3 38 -17 17 -20 34 -6 34 5 0 12 -10 15 -22 6 -23 6 -23
21 -3 8 11 27 32 42 48 27 27 26 50 -1 28 -8 -7 -21 -9 -27 -5 -8 5 -10 2 -7
-8 8 -19 -7 -43 -21 -34 -6 4 -11 20 -11 35 0 15 -6 33 -12 40 -11 11 -10 13
3 8 11 -3 31 10 60 39 23 24 41 45 38 48 -11 10 -51 -17 -67 -44 -9 -16 -19
-30 -22 -30 -3 0 -10 15 -15 32 l-10 33 -122 -4 -123 -3 -2 434 c-1 238 -2
507 -2 597 l-1 164 125 -2 c68 -1 128 -5 132 -7 4 -3 8 -255 8 -560 0 -545 0
-555 19 -544 11 5 29 10 41 10 l20 0 -2 535 -3 535 68 0 68 0 -3 87 -3 87 -49
2 c-27 2 -46 0 -42 -3 7 -7 -24 -32 -40 -33 -18 0 -23 35 -8 55 7 10 11 22 8
27 -3 5 -97 8 -210 8 l-204 -1 0 -45 c0 -28 -4 -43 -10 -39 -5 3 -10 24 -10
46 0 37 -1 39 -33 39 -22 0 -36 -7 -45 -21 -7 -12 -16 -18 -19 -15 -3 3 0 12
6 20 11 14 -54 15 -560 13 l-573 -2 0 -157 c-1 -87 3 -158 7 -158 4 0 7 -22 6
-50 l-3 -49 -37 3 c-21 2 -48 12 -61 21 l-23 17 23 -5 c27 -6 29 9 2 23 -30
16 -24 30 13 30 17 0 38 4 46 9 20 13 -8 20 -104 26 -45 2 -126 11 -180 19
-151 23 -295 31 -295 17 0 -6 -8 -11 -17 -11 -15 0 -16 -2 -3 -10 12 -8 12
-10 -4 -16 -13 -5 -15 -9 -5 -15 8 -4 10 -12 5 -16 -4 -4 -13 -1 -19 7 -17 22
-173 50 -307 54 -116 5 -172 12 -201 27 -10 5 -23 3 -35 -6 -27 -21 -55 -18
-61 5 -3 11 -9 20 -14 20 -5 0 -9 7 -9 16 0 11 5 14 18 9 14 -5 15 -4 4 7 -10
10 -17 10 -31 1 -15 -10 -22 -9 -31 2 -7 8 -24 12 -43 9 -21 -2 -27 -1 -18 5
11 7 9 10 -10 13 -14 2 -25 11 -27 22 -3 14 0 17 11 13 14 -5 15 2 11 46 -8
78 -7 77 -73 77 l-60 0 2 -72z m1617 -52 c21 -9 28 -15 19 -19 -10 -4 -9 -6 4
-6 9 -1 17 -9 18 -18 0 -11 3 -13 6 -5 7 18 21 14 28 -9 5 -16 12 -19 31 -15
18 5 24 2 25 -11 0 -11 3 -13 6 -5 2 6 13 12 24 12 18 0 20 -6 17 -75 -1 -41
-5 -70 -9 -64 -3 6 -15 9 -25 7 -22 -4 -88 63 -90 92 -1 9 -4 22 -8 29 -11 16
-26 13 -20 -4 4 -8 1 -15 -5 -15 -6 0 -11 7 -11 15 0 18 -16 20 -24 3 -3 -7
-3 -3 0 10 6 23 -13 28 -28 7 -4 -5 -8 0 -8 13 0 13 -4 20 -10 17 -16 -10 -23
22 -8 39 16 19 28 19 68 2z m-1335 -226 c93 -14 1111 -110 1222 -114 l22 -1 0
-235 c1 -320 20 -1519 25 -1551 5 -26 4 -26 -87 -38 -51 -7 -110 -14 -132 -17
-106 -12 -211 -26 -330 -45 -71 -11 -175 -27 -230 -35 -138 -20 -213 -33 -330
-54 -55 -11 -128 -22 -162 -25 l-63 -7 0 84 c0 45 -4 193 -9 328 -6 135 -13
353 -16 485 -3 132 -8 287 -10 345 -2 58 -7 186 -10 285 -4 146 -11 320 -18
470 0 11 0 46 1 78 l2 57 33 0 c17 0 59 -4 92 -10z m1826 -848 c4 -78 -13
-156 -37 -180 -22 -21 -29 -21 -25 1 2 13 -9 8 -45 -20 -19 -14 -40 -36 -46
-47 -7 -15 0 -11 24 12 39 37 74 46 41 10 -11 -13 -24 -33 -27 -45 -4 -13 -13
-22 -19 -20 -7 1 -13 -11 -15 -26 l-3 -28 20 20 c12 12 27 21 34 21 8 0 19 10
25 23 8 17 11 18 11 5 1 -10 -6 -23 -16 -30 -37 -30 -93 -90 -93 -101 0 -7 18
8 40 33 43 49 54 47 17 -3 -28 -39 -62 -115 -55 -123 3 -3 16 18 29 45 12 28
26 51 30 51 10 0 -10 -58 -22 -66 -5 -3 -9 -12 -9 -20 0 -23 57 -18 71 7 11
21 11 21 25 1 11 -16 11 -36 4 -102 -5 -46 -12 -85 -14 -87 -3 -3 -14 4 -26
15 -23 21 -24 61 -5 120 5 14 3 22 -4 22 -6 0 -11 -7 -11 -15 0 -21 -33 -35
-83 -35 -63 0 -108 11 -114 27 -7 19 25 42 59 43 15 0 30 5 33 10 4 6 -8 10
-30 10 l-36 0 6 53 c5 51 5 52 -10 22 -8 -16 -14 -23 -14 -15 -1 8 6 28 14 44
23 44 18 54 -11 21 l-25 -30 25 39 c26 41 23 67 -9 80 -21 8 -19 23 10 51 28
29 22 31 -19 10 -16 -9 -31 -13 -34 -10 -3 3 0 5 7 5 8 0 11 7 7 15 -3 10 1
15 12 15 10 0 23 5 30 12 9 9 12 9 12 0 0 -7 5 -12 11 -12 5 0 8 4 5 9 -7 11
25 25 33 14 3 -4 17 -9 31 -11 l25 -2 -25 14 c-16 10 -20 15 -9 16 8 0 24 -7
35 -15 27 -21 80 -19 89 3 12 27 15 102 5 102 -13 0 -13 47 -1 54 5 3 12 -6
15 -19 10 -38 26 -20 26 29 0 79 28 60 31 -22z m-341 -524 c11 -7 10 -8 -7 -5
-15 4 -23 0 -23 -9 0 -8 -4 -14 -9 -14 -4 0 -8 -13 -7 -29 1 -20 5 -27 15 -23
10 4 13 1 8 -12 -4 -10 -7 -20 -7 -22 0 -3 -4 -2 -10 1 -5 3 -10 3 -10 0 0
-11 28 -35 40 -35 6 0 8 -5 5 -10 -9 -14 -65 27 -65 48 0 11 -3 13 -10 6 -8
-8 -7 -20 0 -39 15 -39 39 -55 67 -44 17 6 21 5 16 -7 -7 -20 -50 -29 -79 -15
-54 24 -87 127 -59 182 9 16 26 34 38 39 24 10 73 4 97 -12z m1300 -31 c14 -7
26 -21 28 -32 2 -11 13 -30 24 -42 18 -19 19 -23 5 -28 -8 -4 -28 0 -44 8 -50
26 -83 8 -83 -45 0 -30 45 -72 64 -61 22 14 47 13 53 -3 8 -21 -33 -62 -73
-73 -43 -12 -73 -5 -112 28 -30 24 -34 34 -39 89 -3 34 -10 59 -14 56 -5 -3
-9 4 -9 15 0 27 49 83 67 77 8 -3 12 -2 8 3 -13 22 85 28 125 8z m-1104 -27
c28 -10 30 -14 28 -58 -2 -40 -5 -48 -25 -53 -15 -5 -18 -7 -7 -8 9 -1 19 -9
21 -18 2 -10 5 -166 5 -348 2 -324 -8 -567 -23 -614 -7 -21 -6 -23 13 -19 20
6 27 -2 23 -26 -1 -4 -2 -23 -3 -41 -1 -23 -8 -37 -22 -44 -19 -10 -19 -11 7
-8 37 6 45 -11 10 -19 -46 -10 -50 -13 -13 -13 53 1 54 1 35 -21 -31 -34 -175
-23 -175 14 0 8 -5 16 -12 18 -21 7 3 28 33 28 29 0 29 1 24 42 -3 28 -12 48
-25 57 -29 19 -25 28 10 23 29 -4 30 -3 21 21 -5 14 -7 27 -5 30 3 3 -4 88
-15 189 -15 133 -22 259 -24 460 l-2 277 25 7 25 7 -30 6 c-27 6 -31 11 -35
54 -6 46 -5 48 25 56 42 13 77 13 111 1z m446 -102 c6 -16 17 -27 27 -26 46 4
48 1 45 -68 -1 -37 1 -76 5 -88 11 -29 3 -46 -20 -46 -12 0 -17 -4 -14 -11 4
-6 13 -8 20 -5 19 7 26 -22 27 -100 0 -68 -7 -88 -22 -64 -8 13 -10 12 -10 -2
0 -9 5 -20 11 -24 6 -3 9 -19 5 -35 -3 -16 -1 -29 4 -29 15 0 12 -26 -5 -40
-12 -10 -13 -16 -4 -26 21 -26 -7 -124 -31 -109 -5 3 -6 30 -3 61 l6 55 -26
-6 c-24 -6 -26 -4 -27 21 0 16 -4 83 -9 149 -7 90 -7 122 2 128 9 5 7 11 -5
21 -25 18 -22 42 8 81 14 18 21 36 15 39 -5 3 -12 0 -14 -6 -3 -7 -6 -4 -6 7
-1 29 11 42 39 46 14 2 23 9 20 14 -5 10 -11 10 -46 0 -20 -6 -22 -2 -26 42
-3 26 0 57 6 68 l10 20 4 -20 c2 -11 8 -32 14 -47z m227 -320 c0 -161 -3 -367
-7 -458 l-7 -165 -5 174 c-4 127 -8 175 -17 179 -8 2 -13 -7 -14 -25 -1 -23
-3 -21 -10 12 -10 46 -11 263 -2 448 l6 127 28 0 28 0 0 -292z m-479 85 c1
-76 6 -158 11 -183 10 -43 30 -234 33 -310 1 -48 -31 -53 -75 -12 l-32 30 -1
298 c-1 279 0 299 17 298 9 -1 17 2 17 7 0 5 7 9 15 9 13 0 15 -22 15 -137z
m-375 -654 c7 -7 4 -15 -9 -25 -23 -16 -14 -19 14 -4 13 7 19 6 24 -6 4 -11 1
-14 -12 -10 -12 4 -26 -2 -38 -15 -18 -20 -18 -20 9 -14 23 6 27 4 27 -13 0
-12 8 -25 17 -31 24 -13 15 -20 -35 -23 -49 -3 -53 -12 -14 -26 23 -9 24 -11
6 -11 -12 -1 -33 11 -48 25 -20 21 -26 23 -26 10 0 -9 14 -30 30 -46 25 -24
28 -31 16 -36 -25 -9 -80 29 -90 62 -5 16 -11 36 -14 44 -13 38 20 108 60 128
24 12 66 7 83 -9z m1285 -260 c43 -24 60 -54 60 -104 0 -38 -6 -41 -45 -23
-30 13 -43 5 -25 -17 10 -12 10 -15 -3 -15 -8 0 -29 -3 -46 -6 -24 -5 -31 -3
-31 10 0 9 -4 16 -10 16 -5 0 -10 -5 -10 -11 0 -5 -4 -7 -10 -4 -18 11 -11
-37 8 -51 28 -22 51 -17 46 9 -2 12 -2 16 2 10 3 -7 12 -13 20 -13 8 0 29 -7
45 -16 l30 -15 -25 -20 c-37 -29 -88 -35 -123 -14 -36 21 -61 55 -65 88 -2 15
-7 29 -11 33 -12 13 -8 64 8 95 34 65 116 87 185 48z"/>
<path d="M1854 2951 c3 -4 49 -11 103 -14 54 -4 222 -18 373 -32 151 -14 365
-32 475 -40 110 -8 234 -19 275 -24 41 -4 81 -5 89 -1 7 4 -24 10 -70 14 -46
4 -109 9 -139 12 -30 2 -165 13 -300 24 -359 29 -719 59 -768 65 -24 2 -41 1
-38 -4z"/>
<path d="M2045 2900 c3 -5 41 -12 86 -16 65 -5 82 -11 94 -28 13 -18 15 -18
15 -3 0 17 9 18 114 13 165 -8 164 -7 168 -70 3 -47 1 -52 -15 -48 -17 4 -17
2 2 -32 12 -20 21 -43 21 -51 0 -20 10 -19 25 2 10 13 9 22 -1 42 -20 37 -18
41 20 41 25 0 35 5 39 20 11 41 67 32 67 -11 0 -14 -7 -19 -30 -19 -19 0 -30
-5 -30 -14 0 -7 -7 -19 -15 -26 -11 -9 -13 -16 -5 -24 17 -17 11 -44 -12 -61
-21 -14 -23 -14 -29 2 -10 31 -24 -58 -21 -134 3 -62 6 -72 24 -76 15 -4 19
-12 16 -25 -4 -14 2 -23 19 -31 30 -14 21 -31 -15 -31 -20 0 -33 8 -45 29 -13
22 -25 30 -50 31 -76 3 -112 -1 -125 -14 -13 -13 -13 -17 2 -31 23 -24 15 -39
-22 -43 -27 -3 -32 0 -32 17 0 12 -4 21 -10 21 -15 0 -12 48 3 53 6 2 9 8 5
12 -4 4 -15 4 -25 0 -45 -20 -83 -14 -83 13 0 10 14 32 30 50 17 18 30 37 30
43 0 19 21 8 30 -16 21 -54 64 -15 53 49 -5 33 -27 49 -35 26 -1 -5 -13 -1
-26 8 -22 17 -22 19 -7 50 9 18 21 32 26 32 5 0 9 5 9 11 0 6 -6 9 -14 6 -16
-6 -36 11 -36 30 0 18 27 16 34 -2 9 -23 34 -18 66 15 16 17 34 30 40 30 5 0
10 4 10 9 0 13 -68 23 -168 26 l-83 3 -23 -37 c-12 -20 -39 -72 -60 -116 -21
-43 -55 -105 -76 -136 -27 -40 -37 -65 -34 -85 2 -16 1 -21 -2 -11 -8 24 -28
22 -21 -3 3 -11 1 -17 -4 -14 -18 11 -48 -40 -49 -82 0 -41 0 -42 43 -50 23
-4 131 -8 240 -8 219 -1 208 2 221 -68 6 -31 4 -38 -9 -38 -8 0 -15 5 -15 10
0 14 -37 12 -42 -2 -3 -7 -3 -19 -1 -26 4 -10 9 -8 18 5 20 27 34 5 26 -42 -5
-30 -11 -40 -26 -41 -69 -4 -39 -22 37 -23 72 -1 83 -24 80 -168 -3 -128 -12
-163 -42 -163 -26 0 -26 -17 0 -25 16 -5 18 -10 10 -25 -13 -24 -13 -63 0 -76
8 -8 7 -14 -2 -22 -26 -21 -42 -17 -49 13 -5 21 -7 10 -8 -40 0 -47 2 -65 9
-55 22 35 30 -19 11 -77 -20 -60 -43 -57 -39 5 l3 47 -40 3 c-30 2 -36 0 -25
-8 13 -8 13 -10 -2 -10 -9 0 -18 -3 -21 -7 -2 -5 -2 -3 -1 4 2 7 -3 10 -12 6
-7 -3 -14 -13 -14 -23 0 -32 -67 -42 -91 -14 -7 9 -23 20 -35 24 -13 5 -23 18
-23 32 -1 13 -4 61 -7 108 -3 47 -1 163 3 258 8 158 11 174 31 194 16 17 32
22 64 21 28 -2 38 1 29 7 -8 4 -16 28 -17 52 -2 23 -4 49 -5 56 -3 15 -25 16
-34 2 -5 -8 -11 -7 -21 1 -8 7 -30 9 -54 6 -49 -6 -126 16 -157 45 -13 12 -25
19 -29 16 -3 -3 -2 -73 2 -156 7 -145 8 -150 26 -139 16 10 22 9 32 -5 7 -10
16 -14 21 -10 4 4 4 -15 1 -43 -9 -70 -7 -172 5 -225 7 -31 7 -46 0 -48 -6 -2
-11 -15 -11 -28 0 -23 -13 -30 -49 -24 -12 1 -13 -15 -8 -91 4 -51 7 -105 7
-120 0 -22 4 -27 16 -22 13 5 13 7 2 14 -10 7 -9 9 4 9 9 0 18 -6 20 -12 7
-19 40 18 36 40 -2 11 -13 17 -33 17 -61 0 -33 75 47 128 33 21 48 22 48 2 0
-8 -7 -15 -16 -15 -9 0 -18 -9 -21 -20 -3 -11 -10 -20 -15 -20 -5 0 -8 -15 -6
-32 2 -23 9 -34 23 -37 21 -4 67 -36 60 -42 -2 -2 50 -3 116 -1 118 2 120 2
109 -18 -6 -11 -19 -20 -30 -20 -39 0 -49 -10 -43 -46 3 -20 1 -40 -7 -49 -9
-10 -9 -15 -1 -15 6 0 11 -4 11 -10 0 -5 -9 -10 -19 -10 -11 0 -23 -5 -27 -11
-3 -6 -15 -8 -26 -6 -14 4 -18 2 -14 -10 3 -8 6 -17 6 -19 0 -2 8 -4 18 -5 14
0 14 -2 -3 -9 -13 -5 0 -6 33 -3 48 5 52 4 52 -16 0 -11 5 -21 11 -21 6 0 9 9
6 20 -4 16 0 20 17 20 19 0 21 -4 18 -35 -3 -25 0 -35 9 -36 35 -2 -32 -18
-77 -18 -53 -1 -66 7 -89 53 -10 19 -18 21 -73 18 -38 -2 -62 1 -62 8 0 5 16
10 35 10 24 0 37 6 45 20 14 26 -3 60 -30 60 -11 0 -20 7 -20 15 0 8 -9 19
-19 25 -11 5 -21 20 -23 32 -2 19 -10 24 -45 26 l-43 3 0 -113 c0 -62 3 -136
6 -164 6 -45 9 -50 28 -47 95 15 422 55 556 68 297 29 355 36 385 45 60 18
246 47 251 38 3 -4 9 -8 15 -8 14 0 11 68 -3 73 -10 4 -10 6 0 6 9 1 11 16 7
54 -2 28 -7 284 -10 567 -7 638 -15 1013 -24 1021 -6 6 -126 17 -716 64 -170
14 -325 27 -343 29 -18 3 -30 1 -27 -4z m1076 -134 c6 3 5 -4 -3 -15 -9 -15
-10 -24 -2 -29 7 -4 12 -68 13 -177 1 -93 4 -222 6 -285 2 -63 5 -225 6 -359
1 -245 -4 -283 -33 -252 -11 11 -10 13 5 7 18 -6 19 5 13 281 -16 775 -19 816
-55 793 -15 -9 -51 -2 -51 10 0 14 30 32 44 27 8 -3 20 1 28 10 12 15 13 15
16 -1 2 -9 8 -13 13 -10z m-216 -606 c4 -7 13 -7 26 0 12 7 19 7 19 1 0 -6
-15 -18 -32 -28 -31 -16 -31 -18 -10 -21 12 -2 22 -8 22 -13 0 -12 -122 -12
-156 1 -23 9 -26 8 -21 -9 7 -29 -7 -43 -47 -46 -28 -3 -36 0 -36 13 -1 16 -2
16 -13 1 -16 -21 -61 -19 -65 2 -1 8 7 27 18 42 22 28 40 35 40 16 0 -5 -6 -7
-12 -3 -8 5 -7 0 2 -10 14 -18 15 -18 20 5 4 15 14 25 29 27 15 2 21 0 16 -7
-3 -6 -12 -8 -18 -4 -7 4 -7 0 1 -10 12 -14 16 -15 36 -2 18 12 29 13 54 4 40
-14 88 -8 84 10 -3 14 15 41 29 41 4 0 11 -5 14 -10z m-267 -182 c3 -36 2 -38
-26 -38 -25 0 -30 -5 -36 -31 -12 -60 -7 -129 8 -129 8 0 17 -4 20 -9 10 -15
-6 -71 -19 -71 -12 0 -25 -70 -25 -142 0 -34 2 -37 28 -35 24 2 27 -2 30 -30
3 -29 0 -32 -31 -38 -43 -8 -92 -3 -92 10 9 305 18 541 20 545 2 3 29 5 62 5
l58 0 3 -37z m106 36 c13 -5 16 -23 16 -88 0 -44 5 -88 10 -96 7 -10 10 18 10
88 0 98 1 102 21 102 22 0 22 0 15 -197 -3 -109 -9 -233 -13 -276 -6 -77 -6
-78 -32 -75 -23 3 -27 8 -33 58 -5 30 -5 81 -2 113 4 36 2 57 -4 57 -10 0 -20
-72 -25 -180 -2 -48 -5 -55 -22 -55 -19 0 -20 5 -16 170 3 94 5 181 6 195 2
14 3 62 4 108 1 80 2 82 25 82 13 0 31 -3 40 -6z"/>
<path d="M1874 2831 c3 -35 6 -120 6 -187 0 -93 3 -124 13 -124 7 0 12 15 12
43 1 23 5 40 10 37 6 -3 9 -8 8 -12 -2 -5 4 -8 13 -8 14 0 14 3 4 15 -10 12
-10 18 0 30 23 28 31 15 28 -49 -2 -48 0 -62 9 -55 7 7 13 5 17 -3 3 -7 3 -3
0 9 -5 24 37 98 49 86 4 -3 7 1 7 11 0 9 11 34 25 54 14 20 25 41 25 47 0 6 9
21 21 34 17 18 18 25 8 37 -6 8 -19 14 -28 13 -33 -3 -40 1 -34 19 6 15 5 15
-11 3 -9 -8 -15 -20 -12 -28 4 -9 -4 -13 -29 -13 -19 0 -35 5 -35 10 0 6 -7
10 -16 8 -8 -2 -33 17 -55 42 l-41 45 6 -64z"/>
<path d="M2604 3296 c8 -41 -3 -72 -39 -110 -21 -22 -24 -31 -13 -37 7 -5 9
-9 3 -10 -18 -2 39 -17 68 -18 17 -1 26 3 22 9 -4 6 -1 18 7 27 10 13 10 17 1
20 -15 5 -17 33 -3 33 6 0 10 6 10 14 0 7 7 19 15 26 12 10 16 9 21 -5 5 -12
-1 -23 -17 -36 -19 -14 -22 -20 -11 -30 6 -7 12 -21 12 -31 0 -10 -6 -18 -12
-18 -9 0 -8 -4 2 -10 21 -14 30 -12 30 5 0 8 6 15 13 16 6 0 22 2 33 5 17 3
23 -3 28 -21 6 -25 36 -35 36 -12 0 6 5 4 11 -5 5 -10 21 -18 33 -18 20 0 24
5 22 31 0 19 5 34 13 37 11 4 12 -3 7 -31 l-7 -35 51 -6 c123 -15 154 -17 145
-9 -5 4 -11 14 -13 21 -1 7 -9 24 -18 37 -13 19 -27 24 -102 31 -48 5 -97 9
-109 9 -12 -1 -20 2 -18 6 9 13 14 125 6 137 -5 9 -27 12 -67 10 -52 -3 -59
-5 -64 -27 -9 -37 -30 -38 -30 -2 0 29 -2 31 -36 31 -36 0 -36 0 -30 -34z"/>
<path d="M2857 3317 c-7 -18 3 -66 16 -74 5 -3 14 2 19 11 12 22 45 20 58 -4
6 -11 19 -20 30 -20 10 0 22 -4 25 -10 10 -17 25 -11 25 10 0 11 5 20 10 20 6
0 10 18 10 40 l0 40 -45 0 c-25 0 -57 -7 -70 -16 -23 -15 -25 -15 -25 0 0 20
-45 22 -53 3z"/>
<path d="M1938 3279 c-9 -5 -14 -17 -11 -27 3 -12 -4 -21 -24 -29 l-28 -11 38
-1 c21 -1 70 -6 108 -13 57 -9 72 -9 79 2 6 10 14 9 38 -5 36 -21 82 -14 82
13 0 10 5 23 12 30 9 9 7 12 -9 12 -11 0 -23 -7 -27 -15 -8 -22 -32 -18 -53
10 -16 21 -27 25 -83 27 -36 1 -74 5 -86 9 -11 4 -27 3 -36 -2z"/>
<path d="M4557 2913 c-4 -104 -7 -358 -7 -565 l0 -378 109 0 c60 0 116 -3 125
-6 9 -3 16 -1 16 5 0 6 -10 11 -22 11 l-23 0 3 560 2 560 -98 0 -99 0 -6 -187z
m156 65 c35 -41 7 -110 -46 -110 -25 0 -27 -4 -27 -39 0 -35 -3 -39 -25 -39
l-25 0 0 103 c0 57 3 107 6 110 13 13 99 -5 117 -25z m-63 -299 c0 -60 3 -80
13 -77 8 3 13 31 15 81 3 69 5 77 22 77 18 0 20 -7 20 -89 0 -103 -10 -121
-66 -121 -30 0 -37 5 -50 35 -8 19 -14 66 -14 105 l0 70 30 0 30 0 0 -81z m54
-175 c20 -19 20 -28 2 -43 -10 -8 -16 -9 -21 -1 -8 12 -35 14 -35 1 0 -5 14
-14 31 -21 31 -13 53 -49 43 -74 -3 -7 3 -17 13 -20 14 -6 10 -10 -22 -22 -54
-19 -89 -18 -108 4 -15 16 -15 21 -3 38 14 18 15 18 35 0 14 -13 25 -16 31
-10 7 7 -2 19 -27 35 -44 28 -54 66 -28 105 18 28 65 33 89 8z m-64 -264 c0
-54 27 -56 32 -2 2 30 7 38 26 40 22 3 22 2 22 -102 l0 -106 -26 0 c-24 0 -26
3 -22 40 3 33 0 40 -14 40 -14 0 -18 -8 -18 -40 0 -36 -2 -40 -25 -40 -25 0
-25 0 -25 98 0 54 3 102 7 105 3 4 15 7 25 7 14 0 18 -8 18 -40z"/>
<path d="M4890 3011 c0 -13 15 -42 32 -64 29 -36 33 -50 37 -114 2 -46 -1 -78
-8 -87 -12 -15 -5 -66 9 -66 8 0 3 -121 -5 -147 -7 -20 -20 -15 -35 12 -11 20
-11 29 -1 49 12 21 11 26 -8 45 l-20 20 -3 -137 c-2 -75 -2 -214 0 -308 l3
-171 35 2 36 2 -1 153 c-2 145 -1 152 19 157 18 5 20 13 20 103 0 69 -4 100
-12 103 -10 4 -10 6 0 6 19 1 17 121 -3 121 -8 0 -15 4 -15 9 0 5 7 25 15 44
11 26 15 73 15 161 l0 124 -55 4 c-52 3 -55 2 -55 -21z"/>
<path d="M924 2986 c15 -9 35 -16 42 -16 8 0 14 -10 14 -25 0 -14 -4 -25 -10
-25 -5 0 -10 -4 -10 -10 0 -17 35 -11 53 10 9 11 14 20 11 20 -4 0 -1 7 6 15
13 16 103 21 149 8 21 -5 23 -10 16 -47 -3 -23 -7 -49 -8 -58 -1 -16 -12 -17
-122 -12 -66 3 -166 12 -221 20 -121 17 -127 17 -119 4 3 -5 14 -10 23 -10 9
0 40 -11 67 -25 28 -13 56 -25 63 -25 6 0 12 -7 12 -15 0 -8 9 -19 19 -25 44
-23 31 -87 -15 -76 -14 4 -24 1 -28 -10 -10 -27 -7 -34 19 -34 29 0 31 -8 10
-36 -20 -26 -19 -34 5 -34 10 0 31 -6 46 -12 22 -10 28 -10 32 0 2 6 10 12 18
12 17 0 17 -1 4 -34 -11 -30 9 -37 30 -11 11 13 11 20 0 39 -7 13 -9 29 -6 35
11 17 -24 26 -45 13 -27 -17 -50 -15 -42 4 3 9 0 20 -8 26 -10 6 -3 8 23 3 30
-5 37 -2 43 14 3 10 18 22 33 26 44 11 62 33 51 62 -5 15 -5 22 0 18 5 -3 12
-1 15 4 4 5 2 12 -4 16 -16 10 -12 23 9 30 81 25 120 -87 57 -163 -14 -16 -23
-41 -24 -62 0 -20 -8 -40 -18 -47 -10 -7 -19 -23 -21 -35 -6 -40 -42 -61 -88
-52 -22 4 -80 9 -130 10 -83 2 -90 4 -93 23 -4 27 -25 27 -37 -1 -6 -12 -16
-24 -24 -26 -9 -3 -11 0 -6 8 6 10 2 12 -14 7 -12 -3 -35 2 -52 11 -28 16 -31
16 -40 0 -7 -13 -23 -18 -57 -18 -58 0 -68 13 -71 95 -2 33 -4 61 -6 63 -7 7
-55 -30 -50 -38 3 -5 0 -21 -7 -37 -6 -15 -12 -31 -12 -35 -1 -3 -4 -9 -8 -13
-4 -4 -4 -13 -1 -21 4 -12 -17 -14 -136 -12 -77 2 -141 0 -141 -4 0 -5 8 -8
19 -8 24 0 45 -25 37 -45 -12 -34 -101 -3 -112 39 -5 20 -28 35 -55 36 -4 0
-7 -65 -8 -145 -1 -116 2 -150 14 -169 14 -21 14 -24 0 -29 -23 -9 -22 -249 1
-268 12 -10 14 -23 9 -63 -4 -28 -11 -56 -16 -62 -5 -6 -9 -243 -9 -534 l0
-523 53 7 c28 3 75 8 102 12 75 8 95 13 95 25 0 6 -4 8 -9 4 -13 -7 -81 26
-81 39 1 27 29 45 81 51 30 4 63 10 74 15 11 5 94 16 185 25 91 8 251 24 355
35 253 26 281 26 288 -2 8 -28 -1 -38 -14 -16 -8 14 -15 15 -38 7 -25 -9 -29
-15 -28 -45 2 -32 4 -34 32 -29 17 3 98 12 180 20 140 15 309 40 346 51 15 4
16 53 15 503 -1 359 -4 502 -13 512 -7 9 -14 97 -18 249 -4 129 -9 246 -11
260 -1 14 -3 68 -5 120 -1 52 -4 83 -6 68 -3 -22 -10 -28 -29 -28 -13 0 -24 4
-24 10 0 5 -7 7 -16 3 -13 -5 -15 3 -13 51 2 54 4 56 29 56 21 0 32 -8 44 -32
l17 -33 -5 40 c-3 22 -6 77 -6 123 0 78 -1 82 -19 71 -24 -16 -51 -5 -51 21 0
12 -7 20 -18 20 -10 0 -24 8 -33 18 -13 15 -51 20 -245 35 -126 10 -249 20
-274 23 l-45 6 29 -16z m-154 -1516 c20 -37 -21 -113 -51 -95 -7 5 -10 3 -7
-6 6 -19 -51 -66 -62 -50 -9 15 -119 21 -114 6 6 -16 -13 -38 -25 -31 -6 4
-11 18 -11 31 0 12 -6 25 -13 28 -12 4 -23 -14 -41 -66 -4 -14 -14 -17 -43
-14 -33 3 -38 8 -41 31 -2 15 -12 36 -23 47 -10 10 -19 26 -19 34 0 24 29 17
42 -10 12 -27 31 -35 22 -10 -9 22 9 18 24 -6 19 -29 38 -18 34 19 -4 42 20
53 52 23 28 -26 38 -26 61 -1 24 27 41 25 72 -6 l26 -26 26 20 c15 11 26 30
27 43 1 56 42 81 64 39z"/>
<path d="M670 2833 c-14 -3 -33 -12 -43 -21 -14 -12 -24 -14 -45 -6 -15 5 -40
7 -57 3 -30 -7 -30 -7 -3 -8 15 0 33 -10 42 -22 12 -17 20 -20 43 -14 51 15
53 14 53 -15 0 -16 7 -36 16 -44 17 -18 28 -21 19 -6 -3 5 -1 18 4 27 6 10 11
13 11 6 0 -6 7 -19 16 -28 15 -15 15 -17 -5 -22 -21 -5 -25 -23 -12 -57 6 -16
10 -13 29 21 11 23 18 44 15 47 -11 10 30 46 46 41 9 -2 22 -1 29 4 24 15 -7
53 -38 47 -14 -2 -36 1 -49 8 -13 8 -32 11 -43 8 -23 -6 -24 14 0 27 18 11 14
11 -28 4z"/>
<path d="M2980 829 c-99 -16 -195 -27 -220 -25 -33 4 -38 3 -20 -4 14 -4 21
-8 15 -9 -18 -2 -360 -63 -395 -71 -23 -5 -28 -8 -12 -9 27 -1 29 -21 3 -28
-21 -5 -35 -40 -20 -49 6 -3 33 -3 61 1 l51 7 -6 -88 c-3 -49 -9 -98 -12 -109
-3 -11 1 -29 9 -40 12 -17 26 -20 90 -20 l75 0 0 -118 c-1 -111 -2 -117 -19
-102 -16 15 -71 21 -202 24 -50 1 -58 4 -58 20 0 21 19 31 57 31 14 0 38 11
55 25 16 14 42 25 56 25 38 0 60 16 45 31 -9 9 -20 6 -46 -10 -19 -11 -44 -21
-56 -21 -12 0 -40 -9 -64 -19 -58 -27 -133 -51 -160 -51 -35 -1 0 -16 53 -24
55 -8 110 -25 110 -34 -1 -16 -101 -54 -123 -47 -12 4 -49 11 -82 15 -33 4
-77 12 -98 18 -33 9 -39 8 -48 -9 -5 -11 -14 -17 -20 -14 -5 4 -9 -2 -10 -12
0 -16 -1 -16 -9 2 l-9 20 -1 -20 -1 -20 -9 20 c-7 16 -9 13 -9 -16 -1 -48 9
-99 20 -99 5 0 9 13 9 30 0 17 5 30 11 30 5 0 7 -5 3 -12 -5 -7 -2 -9 8 -5 11
4 18 -2 22 -19 5 -20 13 -24 41 -24 18 0 36 4 39 9 3 5 26 12 51 15 25 4 45
11 45 16 0 5 12 13 28 16 15 4 37 13 49 21 13 9 23 10 27 4 4 -5 -2 -12 -11
-16 -10 -3 -26 -17 -37 -31 l-19 -26 82 7 c57 5 81 4 81 -4 0 -24 127 -7 135
18 5 17 60 43 69 33 3 -3 6 -18 6 -34 l0 -28 270 1 c149 0 277 2 285 6 13 4
15 41 15 224 0 142 -4 219 -10 219 -6 0 -8 -11 -4 -25 4 -16 2 -25 -5 -25 -7
0 -11 14 -9 35 1 21 7 35 15 35 18 0 16 19 -2 26 -8 4 -12 10 -9 15 3 5 10 6
16 3 8 -5 9 -1 4 12 -5 10 -7 90 -6 177 0 86 -3 157 -7 156 -4 0 -87 -14 -183
-30z"/>
<path d="M1515 584 c-71 -13 -209 -35 -305 -49 -96 -15 -178 -30 -182 -33 -13
-14 -16 -93 -3 -99 13 -4 160 18 375 57 58 10 120 21 139 24 19 3 38 11 42 18
4 7 19 28 33 47 26 35 31 33 39 -19 4 -20 5 -18 7 10 3 29 4 26 10 -20 l7 -55
1 73 c2 63 0 72 -15 71 -10 -1 -76 -12 -148 -25z"/>
<path d="M845 474 c-38 -8 -86 -17 -105 -20 -19 -3 -96 -15 -170 -26 -74 -11
-155 -24 -180 -27 l-45 -6 -3 -59 c-3 -57 -2 -58 20 -53 22 6 77 14 233 38 39
6 102 16 140 24 39 7 104 19 145 26 104 16 101 14 99 70 -2 48 -3 49 -33 48
-17 0 -62 -7 -101 -15z"/>
<path d="M202 373 c-12 -2 -20 -9 -16 -14 3 -6 -1 -20 -10 -33 -12 -19 -28
-25 -77 -31 -63 -7 -85 2 -74 33 2 6 -2 12 -10 12 -12 0 -15 -15 -15 -65 0
-39 4 -65 11 -65 6 0 54 11 107 24 53 13 109 27 124 30 24 5 26 11 30 61 3 60
1 61 -70 48z"/>
</g>
</svg>
