<?xml version="1.0" standalone="no"?>
<!DOCTYPE svg PUBLIC "-//W3C//DTD SVG 20010904//EN"
 "http://www.w3.org/TR/2001/REC-SVG-20010904/DTD/svg10.dtd">
<svg version="1.0" xmlns="http://www.w3.org/2000/svg"
 width="500.000000pt" height="333.000000pt" viewBox="0 0 500.000000 333.000000"
 preserveAspectRatio="xMidYMid meet">
<metadata>
Created by potrace 1.15, written by Peter Selinger 2001-2017
</metadata>
<g transform="translate(0.000000,333.000000) scale(0.100000,-0.100000)"
fill="#000000" stroke="none">
<path d="M307 3303 l17 -28 -22 19 c-12 11 -22 14 -22 8 0 -6 5 -14 10 -17 18
-11 10 -22 -13 -18 -45 9 -119 -51 -79 -64 7 -3 12 4 12 15 0 46 50 30 70 -21
14 -38 13 -47 -5 -41 -8 4 -15 1 -15 -5 0 -21 -25 -11 -55 21 -26 28 -30 29
-34 13 -2 -11 2 -43 9 -72 15 -68 72 -133 116 -133 58 0 100 19 115 51 l15 31
83 -103 83 -103 -38 -13 c-50 -18 -68 -35 -98 -97 -32 -65 -33 -93 -3 -136 17
-26 34 -37 72 -47 65 -16 99 -5 164 53 27 24 54 44 61 44 6 0 8 5 5 10 -11 18
4 10 69 -37 36 -27 96 -68 135 -92 l69 -45 -36 -16 c-21 -9 -43 -24 -51 -33
-7 -10 -24 -17 -38 -17 -21 0 -22 -2 -12 -21 9 -17 8 -23 -2 -30 -10 -6 -8 -9
9 -9 12 0 22 -4 22 -10 0 -14 -12 -12 -37 5 -21 15 -53 11 -53 -6 0 -5 -7 -9
-15 -9 -8 0 -15 -5 -15 -11 0 -6 -7 -8 -17 -5 -17 7 -73 -38 -73 -58 0 -5 -7
-18 -16 -27 -15 -17 -15 -20 0 -45 24 -35 14 -54 -28 -54 -31 0 -37 -4 -42
-27 -6 -28 -45 -73 -62 -73 -10 0 -42 -33 -42 -43 0 -8 41 -46 62 -58 14 -8
21 -2 39 32 l21 41 51 -5 c34 -3 61 0 79 9 25 13 27 12 48 -21 21 -34 59 -53
79 -41 6 4 13 22 17 40 4 26 12 35 32 40 43 9 92 44 103 73 15 39 -11 88 -56
110 -29 14 -72 69 -62 79 2 3 99 20 152 28 11 1 34 10 50 18 17 8 46 18 66 22
63 11 99 81 57 110 l-22 16 29 31 c17 18 40 42 53 55 25 27 26 35 8 87 -8 21
-12 46 -9 57 4 13 -1 19 -19 22 -12 2 -22 9 -21 15 4 20 -37 26 -56 9 -21 -19
-31 -20 -31 -3 0 7 -19 20 -42 28 -26 10 -42 22 -44 34 -2 11 -25 40 -52 65
-28 25 -86 99 -130 165 -77 117 -107 153 -118 143 -5 -5 38 -89 58 -115 5 -7
11 -22 12 -35 4 -36 91 -151 157 -208 68 -60 86 -87 70 -103 -17 -17 -13 -27
9 -27 13 0 20 7 20 19 0 10 7 22 16 25 21 8 26 8 20 -3 -8 -12 82 -111 100
-111 8 0 14 -4 14 -10 0 -5 7 -10 15 -10 31 0 10 -44 -56 -113 -21 -21 -28
-24 -32 -13 -4 9 1 17 13 21 25 8 52 52 45 74 -6 20 -34 36 -79 46 -23 5 -27
8 -15 16 10 6 5 9 -18 9 -17 0 -34 4 -37 9 -3 5 -21 12 -40 15 -20 4 -47 21
-67 42 -19 20 -59 61 -90 90 -31 30 -67 76 -80 101 -13 26 -36 63 -51 82 -15
20 -31 41 -35 46 -5 6 -14 23 -22 38 -9 16 -20 26 -28 23 -8 -3 -13 0 -11 7 2
6 -2 14 -7 16 -13 5 -34 33 -35 45 0 6 6 2 13 -8 8 -11 20 -16 28 -13 10 4 9
6 -3 6 -10 1 -18 6 -18 12 0 6 -14 24 -30 39 -17 16 -30 32 -29 35 1 4 -7 22
-17 41 l-19 34 -143 0 -142 0 17 -27z"/>
<path d="M955 3312 c-10 -2 -29 -11 -42 -19 -50 -33 -18 -130 62 -191 38 -29
48 -32 82 -26 111 20 137 84 62 156 -67 64 -119 90 -164 80z"/>
<path d="M3638 3185 c-43 -28 -53 -53 -37 -88 10 -22 16 -25 41 -20 l30 6 -17
-32 c-20 -39 -15 -49 10 -21 10 11 24 20 30 20 7 0 16 10 19 23 l7 22 11 -22
c9 -19 7 -26 -13 -42 -13 -11 -18 -20 -11 -21 14 0 58 42 54 53 -1 4 9 5 23 1
15 -4 25 -2 25 5 0 6 -7 11 -15 11 -8 0 -15 4 -15 10 0 5 -8 6 -17 3 -15 -6
-16 -4 -5 9 17 21 7 26 -51 25 -36 0 -51 -5 -58 -19 -5 -10 -14 -18 -19 -18
-19 0 -10 26 19 58 17 17 27 32 24 32 -3 0 0 7 7 15 18 22 0 17 -42 -10z"/>
<path d="M3792 3033 c-43 -6 -31 -23 16 -23 34 0 35 -1 17 -14 -11 -7 -29 -16
-40 -19 -11 -3 -4 -5 19 -6 29 -1 37 -4 32 -16 -3 -9 0 -15 9 -15 8 0 23 -7
32 -15 10 -8 27 -21 37 -29 19 -13 19 -14 -9 -40 -18 -16 -23 -26 -13 -26 8 0
24 9 35 19 18 17 27 18 63 10 57 -13 72 -6 65 28 -3 16 -2 22 1 16 13 -29 24
-10 24 41 0 35 -5 58 -15 66 -8 7 -15 9 -15 4 0 -5 -5 -2 -10 6 -8 12 -11 13
-19 1 -6 -9 -11 -10 -15 -2 -4 6 -12 11 -17 11 -5 0 2 -17 16 -37 27 -40 34
-73 13 -56 -7 6 -41 13 -76 17 -79 7 -117 25 -56 26 52 0 57 6 31 36 -21 24
-41 27 -125 17z"/>
<path d="M3610 2873 c-86 -57 -116 -119 -91 -187 8 -19 19 -26 54 -31 101 -15
189 90 142 171 -9 16 -14 21 -11 12 3 -10 3 -25 0 -33 -5 -13 -8 -13 -27 0
-32 22 -84 19 -97 -5 -16 -30 -30 -24 -19 8 11 32 55 62 91 62 18 0 20 2 8 10
-19 12 -20 12 -50 -7z"/>
<path d="M1510 2825 c0 -8 18 -31 41 -52 22 -20 52 -59 66 -85 14 -26 32 -48
39 -48 7 0 35 -13 61 -30 55 -35 53 -35 79 -14 10 8 14 13 8 10 -7 -3 -15 5
-18 18 -5 19 -15 26 -46 31 -34 6 -100 31 -100 38 0 2 18 1 40 -1 42 -4 100
13 100 30 0 6 -7 8 -15 5 -8 -4 -17 -2 -21 4 -3 6 -19 7 -35 4 -37 -8 -102 22
-149 70 -38 38 -50 43 -50 20z"/>
<path d="M155 2800 c-3 -5 0 -10 8 -10 16 0 57 -41 57 -58 0 -17 -10 -15 -32
5 -15 13 -21 14 -27 5 -4 -8 -15 -10 -26 -6 -13 5 -16 4 -10 -5 6 -10 2 -11
-16 -6 -36 11 -36 15 -6 41 31 27 30 29 -6 13 -14 -6 -31 -22 -38 -35 -27 -51
38 -163 105 -180 38 -9 70 8 89 49 21 44 21 76 1 127 -20 51 -82 88 -99 60z"/>
<path d="M1795 2559 c-68 -60 -68 -157 1 -200 63 -38 144 -6 162 65 11 39 4
66 -14 59 -7 -3 -21 2 -30 11 -17 18 -76 14 -102 -7 -16 -13 -22 -6 -16 19 7
28 70 67 109 68 52 1 29 16 -25 16 -41 0 -55 -5 -85 -31z"/>
<path d="M392 2458 c-14 -14 -16 -42 -3 -34 5 3 11 -5 13 -18 4 -17 1 -23 -9
-19 -16 6 -17 -8 -1 -42 12 -27 23 -32 33 -14 5 6 12 3 21 -10 8 -11 30 -23
49 -27 41 -7 50 -17 31 -34 -12 -9 -23 -6 -55 12 -50 29 -71 17 -49 -29 11
-23 27 -33 88 -52 41 -13 77 -26 79 -27 2 -2 -8 -13 -24 -25 -15 -12 -36 -31
-46 -42 -20 -22 -26 -57 -9 -57 6 0 10 7 10 15 0 8 12 21 28 30 51 28 74 53
67 75 -4 11 -2 20 4 20 6 0 11 9 11 19 0 10 6 21 14 24 8 3 20 16 27 29 12 23
12 23 -8 5 -20 -18 -22 -17 -47 8 -14 14 -26 34 -26 44 0 9 -7 26 -16 37 -14
18 -15 18 -8 -6 5 -20 4 -22 -6 -13 -7 6 -19 9 -26 6 -9 -3 -14 1 -14 12 0 9
-5 13 -10 10 -6 -4 -18 -1 -27 7 -15 11 -16 11 -10 -5 6 -15 4 -16 -13 -7 -28
15 -32 27 -16 43 13 12 12 18 -7 45 -25 35 -28 37 -45 20z"/>
<path d="M4290 2262 c0 -17 108 -92 142 -99 38 -7 52 -20 62 -51 4 -12 11 -22
16 -22 15 0 52 60 47 74 -4 9 4 16 19 20 34 9 25 31 -13 32 -16 1 -36 5 -43 9
-8 5 -11 3 -8 -6 3 -8 11 -13 17 -11 6 1 11 -4 11 -11 0 -8 -14 -11 -44 -9
-33 3 -43 7 -39 18 3 8 0 14 -6 14 -9 0 -9 5 -1 20 13 25 -5 28 -31 4 -14 -13
-24 -13 -61 -4 -23 7 -49 17 -55 22 -9 7 -13 7 -13 0z"/>
<path d="M3915 2180 c-3 -6 1 -13 10 -16 12 -5 15 -14 10 -32 -5 -20 -3 -23
10 -18 9 3 19 6 21 6 2 0 4 7 4 15 0 8 5 15 10 15 6 0 10 -5 10 -11 0 -5 4 -8
9 -5 17 11 43 -6 38 -25 -6 -21 9 -26 16 -6 3 9 9 7 24 -6 11 -9 23 -14 26
-10 4 3 15 -1 25 -10 10 -10 21 -15 24 -12 3 3 11 -2 19 -12 12 -15 12 -16 -4
-10 -11 4 -16 3 -12 -3 3 -6 22 -10 41 -10 22 0 34 -5 34 -13 0 -25 -61 -86
-98 -98 -47 -15 -60 -27 -39 -35 21 -8 22 -24 2 -24 -8 0 -15 5 -15 10 0 6 -7
10 -16 10 -10 0 -14 6 -10 15 3 8 1 15 -4 15 -6 0 -11 15 -11 33 -1 23 -3 26
-6 10 -2 -13 -9 -23 -15 -23 -6 0 -3 -11 6 -25 16 -24 15 -25 -9 -31 -14 -3
-32 -3 -41 0 -16 6 -44 -9 -44 -24 0 -4 13 -13 30 -20 40 -17 57 -37 42 -52
-9 -9 -18 -6 -35 10 -25 24 -46 30 -30 10 6 -7 13 -29 17 -49 4 -21 13 -51 22
-68 8 -17 13 -35 9 -41 -3 -5 2 -10 12 -10 11 0 28 -6 38 -14 18 -13 18 -14
-3 -27 l-21 -13 22 -24 c17 -18 18 -22 4 -16 -9 3 -17 1 -17 -4 0 -7 -10 -8
-29 -2 -25 7 -28 6 -24 -11 3 -10 1 -19 -5 -19 -5 0 -12 15 -14 34 -2 22 0 32
7 28 5 -3 2 6 -8 21 -17 27 -61 134 -62 152 0 6 -5 10 -12 10 -6 0 -15 3 -19
8 -4 4 -3 7 3 7 6 0 13 7 16 14 4 11 1 13 -10 9 -12 -5 -15 -2 -10 10 4 11 2
14 -8 11 -8 -3 -11 -12 -8 -20 8 -21 -14 -43 -37 -37 -16 4 -18 9 -9 24 14 26
5 24 -27 -7 -14 -15 -20 -25 -12 -22 7 3 23 1 36 -3 17 -6 22 -14 17 -28 -4
-12 0 -21 11 -25 26 -10 10 -18 -43 -21 -59 -4 -84 2 -77 19 3 7 -1 16 -10 19
-11 4 -14 -1 -11 -24 4 -26 2 -28 -15 -19 -14 7 -20 7 -20 0 0 -5 -6 -10 -14
-10 -8 0 -16 -6 -19 -12 -2 -7 -8 -10 -12 -6 -5 5 0 18 11 29 19 22 19 22 -5
14 -15 -5 -26 -3 -31 5 -5 8 -7 0 -6 -17 2 -16 6 -36 11 -43 5 -9 4 -11 -3 -6
-7 4 -12 1 -12 -7 0 -8 -7 -20 -15 -27 -10 -8 -15 -9 -15 -2 0 6 -7 9 -15 6
-8 -4 -13 -10 -10 -14 3 -5 -14 -8 -37 -7 -34 1 -42 -2 -40 -15 2 -14 -25 -34
-35 -24 -2 2 -5 18 -5 35 -1 23 -6 31 -20 31 -10 0 -18 4 -18 9 0 4 11 6 25 3
22 -4 25 -1 22 19 -3 17 3 28 22 40 32 19 37 55 11 71 -15 10 -17 15 -7 27 10
12 8 13 -11 7 -17 -6 -21 -4 -16 8 5 12 0 16 -19 16 -14 0 -32 6 -39 14 -8 7
-24 17 -36 20 -12 4 -22 14 -22 22 0 8 -7 14 -15 14 -8 0 -20 9 -27 20 -15 23
-28 26 -28 6 0 -9 -8 -12 -25 -8 -17 3 -36 -4 -59 -22 -40 -30 -53 -32 -82
-11 -21 14 -34 11 -34 -7 0 -5 5 -6 10 -3 16 10 41 -16 35 -35 -3 -11 1 -20
10 -24 8 -3 15 -16 15 -28 0 -16 -3 -19 -9 -10 -6 11 -11 10 -25 -3 -9 -9 -16
-14 -16 -10 0 4 -7 -1 -16 -9 -8 -9 -24 -16 -34 -16 -11 0 -23 -8 -28 -17 -9
-16 -11 -16 -27 0 -15 16 -15 18 1 34 16 16 15 18 -16 31 -40 16 -44 13 -26
-23 14 -27 14 -30 -7 -44 -32 -22 -46 -43 -47 -68 0 -13 -11 -30 -25 -39 -14
-9 -25 -22 -25 -29 0 -7 -3 -15 -7 -17 -16 -7 -45 -85 -50 -134 -7 -69 20
-166 45 -158 16 5 16 5 0 -9 -10 -8 -15 -17 -11 -20 3 -4 -1 -15 -11 -26 -13
-14 -16 -33 -14 -85 2 -36 6 -66 9 -66 4 0 13 -15 20 -32 7 -18 27 -49 44 -68
17 -19 40 -57 50 -85 25 -67 93 -137 160 -166 34 -15 53 -29 50 -37 -6 -16 31
-61 152 -189 44 -47 83 -44 96 7 21 80 -54 174 -130 163 -22 -4 -29 -10 -31
-31 -1 -14 -5 -28 -8 -31 -3 -3 -4 14 -2 39 2 38 7 46 26 48 12 2 22 7 22 11
0 11 -59 23 -73 14 -6 -3 -7 -1 -3 5 9 16 89 15 104 0 8 -8 12 -8 12 -1 0 6
-9 17 -21 25 l-21 14 23 1 c30 3 79 -35 102 -78 l18 -34 -21 25 c-12 14 -26
25 -30 25 -5 0 -12 3 -16 8 -4 4 -12 7 -18 7 -6 0 -4 -6 4 -13 26 -21 70 -93
81 -130 6 -23 6 -44 -1 -61 -9 -24 -7 -26 18 -27 15 -1 30 -1 34 0 4 0 16 -11
26 -24 24 -30 36 -32 29 -6 -2 10 -1 25 4 32 6 10 12 4 23 -21 11 -25 15 -29
16 -15 0 18 2 18 20 -5 14 -17 18 -19 14 -6 -6 16 -4 17 17 11 13 -4 42 -20
63 -36 47 -34 79 -36 156 -10 30 10 71 18 90 19 19 1 62 10 94 22 33 11 69 20
80 20 32 0 71 24 71 42 0 10 7 23 16 30 10 7 20 24 24 37 6 20 4 23 -9 18 -10
-4 -19 -1 -22 8 -4 8 -10 13 -15 10 -14 -9 -49 19 -49 39 0 17 -3 16 -24 -7
-68 -74 -186 -44 -186 47 0 51 29 99 69 117 17 8 31 21 32 29 0 10 2 11 6 3 2
-7 10 -13 17 -13 7 0 21 -9 31 -20 10 -11 22 -17 27 -14 5 3 1 12 -9 19 -17
13 -17 14 2 21 11 4 25 15 32 23 10 14 13 14 32 -3 21 -19 21 -19 21 7 0 14 5
29 11 33 7 4 9 0 5 -12 -8 -27 29 -51 51 -33 12 10 16 10 24 -2 6 -10 9 -10 9
-1 0 6 5 12 10 12 6 0 10 -6 10 -14 0 -8 7 -16 15 -20 24 -9 17 -26 -11 -26
-21 0 -24 -3 -19 -22 6 -16 4 -20 -8 -15 -9 3 -21 -1 -27 -9 -14 -16 -50 -19
-50 -4 0 6 11 10 25 10 14 0 25 4 25 10 0 5 -13 8 -30 7 -16 -1 -30 -8 -30
-14 0 -7 -8 -13 -17 -13 -12 0 -8 -6 13 -19 35 -21 81 -23 89 -3 6 17 45 -7
45 -28 -1 -11 -4 -10 -16 5 -14 19 -16 19 -25 2 -6 -9 -14 -15 -20 -12 -5 3
-6 0 -4 -8 10 -24 97 -16 136 13 19 14 53 34 77 44 47 21 50 27 25 47 -9 8
-14 9 -10 3 4 -7 -2 -10 -18 -7 -15 3 -22 10 -18 19 3 9 13 12 24 9 20 -7 25
5 10 20 -6 6 -4 15 5 23 10 10 14 10 14 1 0 -7 2 -10 5 -7 9 9 -6 38 -16 32
-6 -3 -16 0 -24 6 -11 9 -15 9 -15 1 0 -6 5 -11 10 -11 7 0 7 -6 0 -20 -12
-23 -42 -28 -34 -5 4 8 11 12 17 8 6 -3 7 -1 3 5 -9 14 -38 16 -52 2 -5 -6 -9
0 -9 15 0 28 0 28 24 15 13 -6 24 -5 40 6 29 21 18 34 -23 27 -38 -6 -62 15
-27 24 24 6 29 23 7 23 -8 0 -21 2 -29 6 -11 4 -14 -3 -11 -32 2 -34 -12 -74
-27 -74 -4 0 -10 10 -13 23 -6 20 -7 20 -17 5 -14 -25 -31 -22 -28 5 2 12 -5
34 -14 48 -10 15 -17 31 -16 35 1 5 0 12 -1 17 -4 12 -7 26 -9 37 0 6 -5 10
-10 10 -5 0 -7 -9 -4 -20 3 -12 -1 -22 -11 -26 -9 -3 -16 -11 -16 -16 0 -6 7
-8 15 -4 10 4 15 -1 15 -15 0 -11 -4 -17 -10 -14 -5 3 -10 0 -10 -8 0 -8 7
-18 16 -21 26 -10 7 -24 -34 -24 -26 -1 -41 5 -49 18 -10 15 -9 17 8 13 15 -4
18 -2 13 11 -4 9 -14 16 -23 15 -9 -1 -23 -1 -31 0 -13 1 -13 3 0 10 8 6 18 7
24 4 5 -4 7 1 3 11 -4 10 -1 19 8 22 17 7 20 50 4 59 -6 4 -8 14 -5 22 5 11 2
13 -10 9 -8 -3 -18 -6 -21 -6 -3 0 0 -7 7 -15 8 -9 8 -15 2 -15 -6 0 -12 -12
-14 -27 -2 -16 -8 -27 -15 -26 -7 2 -10 -4 -7 -12 4 -8 2 -15 -2 -15 -17 1
-41 25 -49 50 -7 23 -6 24 9 11 16 -13 16 -12 5 12 -13 29 -24 34 -34 16 -4
-5 -17 -14 -30 -19 -17 -7 -22 -14 -18 -29 4 -15 1 -21 -10 -21 -20 0 -35 22
-19 28 7 2 12 8 12 14 0 5 -9 7 -20 3 -25 -8 -35 27 -26 97 6 42 5 49 -6 41
-7 -5 -21 -13 -32 -17 -14 -5 -17 -2 -12 9 3 9 0 15 -10 15 -23 0 -11 23 20
38 23 12 30 12 44 -1 9 -8 23 -12 30 -10 7 3 22 -7 33 -21 19 -25 59 -36 59
-17 0 5 -9 7 -20 4 -11 -3 -20 -1 -20 5 0 6 -7 18 -16 26 -15 15 -12 36 6 36
5 0 15 -7 24 -15 8 -9 18 -16 21 -15 3 0 6 0 8 -1 23 -8 57 -7 62 1 9 14 -33
47 -69 54 -20 4 -26 10 -22 21 3 8 1 15 -3 15 -17 0 2 44 28 67 21 18 104 41
131 36 3 0 19 -4 37 -7 l31 -7 -8 36 c-10 45 -10 45 -49 48 -34 2 -37 7 -18
26 10 10 9 12 -3 11 -35 -5 -42 0 -25 17 9 9 20 12 24 7 3 -5 20 -22 37 -37
27 -24 32 -26 43 -13 11 13 9 17 -10 26 -23 11 -85 87 -77 95 10 10 134 -123
145 -155 17 -47 8 -73 -22 -66 -17 4 -22 2 -21 -12 0 -9 5 -20 10 -23 5 -4 4
-21 -2 -39 -10 -26 -9 -31 2 -27 10 4 12 -1 8 -16 -4 -20 -2 -19 22 6 14 16
24 33 21 38 -4 5 4 13 17 18 13 5 30 16 37 25 7 9 21 16 30 16 9 0 22 5 29 12
8 8 15 8 25 0 11 -10 20 -7 41 13 15 14 31 25 35 25 12 0 51 -36 51 -47 0 -10
-132 -150 -163 -173 -15 -11 -20 -10 -37 5 -16 14 -17 21 -7 43 7 15 22 35 34
45 36 29 30 47 -14 40 -42 -6 -54 -13 -35 -20 6 -3 12 -9 12 -14 0 -6 -4 -8
-9 -5 -9 6 -64 -32 -88 -61 -8 -10 -12 -13 -9 -7 3 7 0 17 -7 23 -10 8 -22 0
-50 -34 -39 -46 -91 -70 -114 -52 -9 6 -13 6 -13 -2 0 -19 47 -23 79 -7 23 13
36 14 51 6 16 -9 18 -8 14 5 -4 8 -1 15 5 15 11 0 15 -13 12 -38 -2 -15 15
-16 24 -1 5 6 12 4 20 -8 13 -17 15 -17 32 -1 10 11 13 18 5 18 -7 0 -12 5
-12 10 0 13 37 13 45 1 5 -8 68 20 85 39 3 3 24 23 47 44 36 33 45 37 58 26 8
-7 15 -16 15 -20 0 -15 -133 -113 -196 -145 -57 -28 -62 -33 -51 -49 7 -10 19
-16 27 -14 8 2 16 -4 16 -12 1 -8 2 -22 3 -31 1 -11 10 -16 27 -16 22 -1 24 3
19 27 -4 20 -2 29 11 34 24 9 29 0 13 -21 -12 -15 -12 -16 3 -11 10 4 19 1 22
-9 5 -12 9 -13 21 -3 13 11 12 16 -7 42 -17 25 -18 32 -7 39 11 7 11 9 -3 9
-17 0 -16 2 1 33 13 23 25 32 44 32 15 1 32 6 39 13 8 8 14 5 25 -15 18 -35
17 -36 -16 -30 l-28 6 29 -29 c16 -17 27 -34 23 -39 -12 -20 15 -21 35 -1 l20
20 -2 -27 c-3 -28 13 -45 21 -22 2 8 -1 9 -10 4 -8 -5 -5 2 6 14 11 13 27 20
37 18 10 -3 18 -2 18 3 0 4 25 33 55 63 30 31 50 59 45 62 -13 8 -87 -44 -122
-84 -33 -38 -51 -33 -80 22 -17 34 -19 52 -14 101 8 79 33 121 72 121 16 0 34
3 40 7 7 5 14 1 18 -7 3 -9 -1 -15 -11 -15 -13 0 -13 -3 -3 -15 13 -16 35 -21
26 -7 -3 5 1 31 8 59 11 42 11 59 -2 111 -10 43 -20 62 -33 65 -11 3 -19 11
-19 17 0 7 7 10 15 6 8 -3 15 -1 15 3 0 5 -7 11 -15 15 -8 3 -14 9 -14 13 1 4
-1 16 -6 26 -7 16 -9 16 -41 -3 -31 -20 -33 -20 -34 -3 -1 45 -5 61 -12 57
-13 -8 -9 9 7 30 9 12 20 16 31 12 13 -5 14 -3 6 6 -14 18 -27 108 -14 108 15
0 -21 66 -38 68 -8 0 -36 -1 -62 -4 l-47 -6 19 -21 c11 -11 22 -28 25 -38 12
-36 32 -29 38 13 5 41 13 56 23 46 3 -4 -1 -32 -9 -65 -11 -42 -12 -62 -4 -71
11 -14 -5 -32 -30 -32 -7 0 -10 -7 -7 -17 5 -14 4 -15 -4 -4 -11 16 -44 8 -40
-10 2 -6 -7 -12 -19 -14 -14 -1 -23 4 -23 12 0 15 -41 34 -85 40 -36 4 -75 23
-75 36 0 5 8 6 18 2 9 -3 35 -9 58 -12 36 -4 41 -2 52 21 7 16 17 23 25 20 10
-4 16 5 20 28 2 18 3 34 2 36 -2 2 -20 -12 -42 -31 -44 -40 -80 -60 -92 -53
-10 7 -81 124 -81 135 0 10 67 41 88 41 9 -1 28 -7 41 -14 18 -10 34 -11 65
-4 23 6 46 11 53 12 26 4 22 14 -26 59 -29 27 -65 50 -89 56 -26 8 -59 30 -96
66 -30 30 -64 55 -75 55 -11 0 -22 4 -25 8 -3 5 -28 7 -56 6 -27 -2 -50 1 -50
6 0 13 -37 13 -45 0z m-162 -591 c-3 -13 -17 -40 -32 -59 -14 -19 -25 -38 -23
-42 1 -5 -4 -8 -11 -8 -8 0 -20 -11 -27 -25 -7 -14 -18 -25 -23 -25 -6 0 -2 9
8 20 16 18 16 22 3 42 -11 17 -25 23 -55 24 -37 1 -42 -2 -56 -35 -9 -19 -15
-37 -13 -38 2 -2 19 9 37 24 l34 27 -25 -29 c-55 -64 -85 -82 -147 -91 -51 -6
-54 -5 -89 30 -34 34 -36 38 -19 50 11 8 15 18 10 26 -5 8 -3 11 6 8 8 -3 16
-13 18 -24 2 -10 8 -25 13 -31 11 -14 65 -17 92 -7 22 8 20 26 -1 22 -12 -2
-19 4 -21 20 -4 25 -3 26 34 12 15 -6 24 -13 20 -17 -7 -7 12 -33 26 -33 5 0
5 8 -1 18 -14 27 44 97 82 97 33 0 41 19 9 23 -13 2 -22 8 -20 14 5 15 48 18
73 5 11 -5 17 -6 13 -2 -8 9 15 35 31 35 15 0 14 -17 -1 -23 -10 -4 -10 -6 0
-6 7 -1 17 11 22 25 9 22 12 24 24 11 9 -9 13 -24 9 -38z m-619 -36 c4 -10 4
-14 0 -11 -10 11 -44 -10 -44 -27 0 -7 -9 -17 -21 -20 -11 -4 -18 -9 -15 -13
4 -3 -4 -16 -15 -28 -18 -19 -20 -26 -9 -39 7 -8 16 -12 21 -9 5 3 9 0 9 -6 0
-7 -7 -9 -16 -6 -18 7 -50 -19 -34 -29 5 -3 10 -2 10 4 0 6 6 8 13 5 8 -3 26
0 42 6 35 13 22 -6 -23 -32 l-30 -18 -34 38 c-33 37 -74 49 -94 30 -11 -12
-21 -10 -38 7 -14 14 -14 18 1 35 9 10 21 16 26 13 6 -3 7 -1 3 5 -4 7 -13 12
-21 12 -7 0 -16 7 -19 16 -4 10 -13 13 -25 9 -18 -5 -18 -3 -8 20 10 20 14 22
23 11 6 -9 15 -11 24 -6 19 12 30 3 30 -23 0 -16 3 -18 12 -9 17 17 29 15 22
-3 -5 -11 -2 -13 9 -9 9 3 13 12 10 19 -9 26 9 40 21 16 11 -20 12 -20 66 19
59 42 94 50 104 23z m69 -20 c-7 -2 -13 -12 -13 -20 0 -13 2 -13 17 -2 13 11
17 11 20 1 3 -6 8 -10 13 -7 10 6 57 -31 49 -40 -4 -3 -13 1 -22 9 -13 13 -17
13 -36 -5 -30 -28 -29 -33 18 -85 7 -8 10 -18 6 -22 -4 -4 -10 -1 -12 6 -3 6
-9 12 -14 12 -13 0 -11 -34 4 -50 6 -8 3 -7 -9 3 -24 20 -38 22 -28 5 5 -9 3
-9 -9 1 -14 11 -18 11 -23 -3 -4 -10 -13 -15 -21 -11 -9 3 -24 -4 -34 -16
l-19 -22 0 24 c0 36 16 57 32 41 15 -15 28 -16 28 -2 0 6 -7 10 -15 10 -20 0
-19 16 4 39 13 13 19 34 19 70 2 62 6 71 35 70 12 0 16 -3 10 -6z m606 -9 c6
4 11 2 11 -3 0 -6 -4 -11 -10 -11 -5 0 -10 -5 -10 -11 0 -6 9 -8 20 -4 22 7
130 -32 130 -47 0 -5 5 -6 10 -3 6 4 9 3 8 -2 -1 -4 4 -19 11 -32 15 -27 8
-35 -49 -51 -25 -7 -36 -6 -42 2 -4 7 -2 16 5 20 18 12 1 9 -28 -4 -14 -6 -21
-14 -16 -17 5 -4 13 -19 16 -34 6 -23 5 -26 -10 -21 -10 4 -21 1 -26 -7 -6
-11 -11 -11 -21 -1 -17 17 -25 15 -31 -8 -3 -13 -10 -18 -21 -14 -9 3 -23 1
-31 -6 -9 -8 -15 -8 -15 -2 0 6 9 14 20 17 23 7 26 21 8 28 -7 2 2 4 20 4 17
0 35 2 38 6 7 6 -33 76 -44 78 -26 5 -64 4 -68 -3 -3 -4 -17 -5 -32 -2 -20 4
-33 0 -46 -15 -11 -12 -24 -21 -30 -21 -6 1 -1 9 12 20 13 11 21 24 17 30 -3
6 4 10 17 10 14 0 43 20 75 52 43 42 53 48 53 32 0 -27 38 -67 57 -60 8 3 17
6 19 6 2 0 4 5 4 11 0 6 -7 9 -15 5 -8 -3 -15 0 -15 6 0 6 -7 19 -16 29 -9 10
-13 23 -9 29 6 9 9 9 15 0 4 -7 13 -9 19 -6z m-423 -242 c17 8 28 6 45 -6 16
-11 26 -12 35 -5 9 7 16 4 26 -10 8 -12 18 -18 21 -14 4 3 7 0 7 -8 -1 -26
-37 -59 -67 -59 -22 0 -25 -2 -13 -11 11 -8 4 -9 -29 -4 -57 8 -59 10 -80 58
-19 44 -10 73 18 57 8 -4 25 -3 37 2z m190 -79 c-9 -22 10 -50 38 -55 25 -5
42 14 30 33 -9 15 12 10 25 -5 10 -11 9 -15 -5 -18 -14 -3 -13 -6 5 -22 17
-15 20 -16 16 -4 -8 19 7 30 28 22 12 -4 14 -15 10 -42 -3 -20 -7 -38 -8 -39
-1 -2 -23 -7 -48 -12 -41 -7 -50 -6 -79 16 -33 23 -45 50 -21 46 8 -2 10 4 6
14 -4 11 -8 13 -11 5 -2 -7 -8 -12 -14 -12 -6 0 -8 7 -4 15 3 8 3 15 0 15 -13
0 -21 -46 -10 -59 9 -11 8 -13 -4 -9 -9 3 -15 17 -15 34 0 16 -3 34 -8 41 -5
7 -1 10 12 6 13 -3 22 3 32 25 13 30 36 34 25 5z m-415 -39 c39 -9 48 -8 58 5
10 14 11 13 6 -6 -3 -12 -1 -24 5 -28 8 -5 8 -11 0 -20 -9 -11 -18 -11 -52 1
-22 8 -52 14 -67 14 -26 -1 -26 -1 5 -14 17 -8 45 -31 63 -52 18 -22 31 -32
29 -24 -3 16 14 18 46 4 17 -7 18 -4 12 30 -9 47 0 76 24 76 29 0 90 -33 86
-47 -7 -17 5 -23 25 -13 15 9 21 4 36 -27 16 -35 18 -36 21 -14 2 13 -2 27 -9
32 -8 4 -10 11 -6 16 5 4 11 2 15 -4 4 -6 26 -21 50 -33 47 -25 78 -62 66 -81
-4 -8 -3 -9 4 -5 12 7 17 -11 13 -43 -2 -7 3 -10 9 -6 7 4 9 -1 5 -17 -3 -13
0 -31 9 -43 13 -18 15 -17 25 21 11 39 51 91 51 65 0 -8 7 -10 20 -6 10 3 28
2 38 -4 14 -7 24 -6 37 3 23 16 50 -1 33 -21 -7 -8 -5 -19 6 -35 22 -31 20
-52 -8 -85 -20 -22 -27 -25 -37 -16 -10 10 -9 16 4 31 9 10 17 21 17 25 0 8
-59 -13 -88 -31 -17 -11 -25 -12 -36 -3 -15 13 -24 5 -49 -48 -19 -38 -12 -62
9 -34 13 17 13 17 14 -3 0 -43 -12 -86 -21 -72 -7 11 -11 10 -19 -2 -7 -11
-10 -12 -10 -2 0 32 -28 44 -77 34 -28 -6 -54 -7 -63 -2 -11 7 -8 10 15 11 30
1 30 1 5 9 -14 4 -38 9 -55 9 -39 2 -76 28 -56 40 8 6 12 18 8 32 -7 28 34 86
52 75 6 -4 -2 -19 -22 -37 -19 -18 -25 -29 -14 -25 9 3 17 1 17 -5 0 -6 7 -9
15 -5 8 3 15 1 15 -4 0 -6 9 -19 21 -31 20 -20 21 -20 41 -2 20 18 21 18 14
-7 -3 -14 -3 -20 0 -13 4 9 13 9 30 2 34 -12 33 -13 32 21 -1 17 7 39 17 50
17 18 17 20 2 14 -9 -3 -17 -11 -17 -17 0 -6 -7 -1 -16 12 -16 22 -17 23 -27
5 -6 -11 -11 -21 -10 -24 1 -8 -38 -33 -43 -27 -3 2 7 18 21 35 14 16 25 35
25 41 0 6 9 11 20 11 11 0 20 -5 20 -12 0 -9 3 -9 12 0 10 10 6 18 -21 39 -40
32 -71 36 -88 14 -11 -14 -12 -12 -13 12 0 23 -5 29 -31 34 -17 3 -33 12 -36
19 -8 20 -30 17 -54 -7 -17 -17 -19 -23 -8 -31 10 -7 9 -8 -6 -3 -45 15 -55
14 -55 -6 0 -10 -18 -37 -40 -59 -30 -30 -48 -40 -72 -40 -25 0 -29 3 -18 10
8 5 23 10 33 10 9 0 17 3 18 8 0 4 2 19 4 35 4 27 -8 37 -20 17 -3 -6 -20 -17
-37 -26 -24 -12 -33 -13 -42 -3 -8 9 -7 11 6 6 22 -8 33 9 19 27 -8 10 -8 21
0 42 16 39 20 74 8 74 -5 0 -9 -7 -9 -16 0 -9 -5 -12 -12 -8 -6 4 -8 3 -4 -4
3 -6 1 -14 -6 -19 -7 -4 -22 -26 -33 -48 -11 -22 -33 -46 -48 -55 -25 -13 -29
-13 -40 1 -7 8 -20 18 -29 22 -13 4 -18 17 -18 44 0 55 10 83 26 76 8 -3 14 0
14 6 0 6 -5 11 -10 11 -18 0 21 64 62 103 22 20 47 37 55 37 7 0 16 7 20 16 3
9 9 12 12 7 3 -5 27 -14 52 -19z"/>
<path d="M4645 2170 c-4 -6 -12 -10 -18 -9 -34 6 -91 -47 -93 -84 -1 -11 -8
-23 -15 -28 -11 -7 -9 -9 6 -9 26 -1 65 -31 48 -37 -12 -5 29 -44 78 -75 26
-16 27 -16 50 8 21 22 17 30 -13 25 -5 0 -8 8 -8 19 0 21 -15 27 -25 10 -4 -6
-1 -17 5 -25 8 -9 8 -15 2 -15 -25 0 -42 14 -42 34 0 12 -4 26 -10 32 -5 5
-12 31 -15 57 -7 55 7 67 55 47 16 -7 35 -10 42 -7 8 3 4 8 -12 14 l-25 10 23
7 c31 10 28 30 -4 22 -17 -5 -23 -3 -19 4 3 5 4 10 1 10 -3 0 -8 -5 -11 -10z"/>
<path d="M3460 2044 c-15 -39 -12 -47 16 -41 18 3 22 1 15 -6 -16 -16 -14 -23
8 -24 11 -1 22 4 25 12 7 20 42 7 55 -21 16 -36 14 -44 -13 -44 -25 0 -43 -27
-27 -43 12 -12 47 -4 44 11 -2 7 2 12 7 12 16 0 12 -22 -7 -36 -10 -7 -13 -14
-6 -14 6 0 18 7 26 15 12 11 16 12 20 2 3 -9 9 -7 24 6 11 9 23 14 28 10 4 -5
5 0 2 10 -4 10 -7 26 -7 34 0 12 -3 13 -14 4 -7 -6 -21 -9 -30 -5 -16 6 -33
50 -23 60 8 8 27 -5 27 -17 0 -6 -5 -7 -11 -3 -7 4 -10 1 -7 -7 3 -8 14 -12
24 -11 10 2 29 4 41 4 19 0 20 2 8 14 -7 8 -18 14 -24 14 -6 0 -11 5 -11 10 0
6 7 10 16 10 25 0 10 24 -17 27 -13 2 -33 4 -44 5 -12 2 -19 -2 -17 -9 2 -15
-14 -17 -23 -3 -3 6 -26 10 -50 10 -38 0 -43 2 -38 20 8 29 -6 25 -17 -6z"/>
<path d="M934 1556 c-153 -37 -276 -180 -278 -321 -1 -33 3 -73 7 -89 l8 -30
25 45 c14 24 31 51 38 59 7 8 14 44 15 80 1 36 4 85 8 108 5 43 6 44 37 38 17
-4 38 -13 46 -22 13 -13 13 -14 -1 -9 -14 5 -16 -2 -16 -47 0 -29 -3 -62 -6
-73 -6 -19 -2 -20 61 -20 57 0 75 -4 109 -27 50 -33 106 -114 100 -145 -5 -25
0 -28 23 -13 10 6 20 4 31 -6 11 -10 19 -12 24 -5 4 7 16 1 33 -14 15 -14 32
-25 39 -25 7 0 13 -5 13 -11 0 -5 -4 -7 -10 -4 -5 3 -10 -2 -11 -12 0 -16 -2
-15 -16 5 -21 30 -37 28 -29 -3 6 -23 5 -24 -12 -14 -13 8 -17 19 -14 33 5 18
3 19 -10 8 -12 -10 -18 -9 -28 3 -20 25 -30 17 -25 -19 5 -31 4 -33 -20 -33
-19 0 -25 5 -25 23 0 15 -6 23 -17 23 -10 0 -33 2 -51 5 -23 4 -37 1 -51 -13
-15 -15 -26 -17 -67 -10 -67 11 -164 11 -164 0 0 -10 66 -72 104 -96 25 -16
26 -16 66 24 23 23 43 41 45 41 13 0 -13 -45 -36 -63 -16 -11 -29 -24 -29 -28
0 -5 18 -14 40 -20 22 -7 40 -16 40 -21 0 -29 -161 53 -216 109 -89 92 -112
192 -75 328 13 45 19 90 16 106 -7 31 -43 59 -76 59 -11 0 -29 10 -38 22 -11
12 -23 18 -30 14 -9 -6 -9 -11 -1 -21 13 -16 5 -35 -13 -35 -14 0 -67 -64 -67
-80 0 -6 -15 -18 -32 -26 -30 -14 -31 -15 -5 -9 24 5 27 2 27 -21 0 -21 -3
-25 -17 -18 -72 31 -165 2 -178 -56 -4 -19 -13 -30 -23 -30 -15 -1 -15 -2 2
-15 13 -10 17 -22 14 -40 -3 -14 -1 -25 3 -25 5 0 9 5 9 12 0 9 3 9 12 0 10
-10 10 -17 0 -33 -8 -12 -11 -24 -8 -27 3 -3 6 0 6 6 0 7 3 12 8 12 10 0 9
-62 -1 -77 -15 -23 11 -14 27 9 l16 22 0 -21 c0 -15 5 -21 14 -17 7 3 20 -2
29 -10 9 -9 34 -17 56 -18 38 -1 40 -3 35 -27 -4 -20 -3 -23 5 -11 6 8 11 22
11 31 0 9 7 20 16 23 22 8 22 9 22 -19 0 -14 -5 -25 -10 -25 -5 0 -6 -5 -2
-11 11 -18 23 11 20 48 l-2 32 30 -16 c56 -29 66 -33 76 -33 5 0 10 5 10 10 0
6 -5 10 -11 10 -7 0 -18 8 -26 18 -10 12 -16 14 -19 5 -3 -7 -10 -13 -15 -13
-16 0 -10 25 11 43 11 9 20 12 20 7 0 -6 7 -10 16 -10 11 0 15 -6 11 -20 -3
-11 -1 -20 4 -20 5 0 9 5 9 10 0 6 8 10 18 10 13 0 14 -2 3 -9 -11 -7 -11 -9
0 -13 8 -3 19 2 26 11 10 13 12 11 10 -16 -1 -18 -5 -33 -9 -33 -5 0 -8 -4 -8
-10 0 -5 7 -10 15 -10 8 0 15 -4 15 -10 0 -5 -8 -10 -17 -10 -16 -1 -16 -2 1
-12 15 -8 21 -7 28 6 5 9 14 16 19 16 6 0 7 -5 4 -10 -3 -6 1 -13 10 -16 9 -4
14 -13 11 -20 -3 -8 0 -11 9 -8 10 4 13 -2 10 -23 -2 -15 -4 -32 -4 -36 -1 -5
-5 -5 -11 -2 -6 3 -7 -1 -4 -9 5 -14 9 -13 30 1 13 8 24 20 24 26 0 6 3 7 6 4
4 -4 -12 -27 -35 -52 -37 -41 -47 -55 -37 -55 1 0 15 11 30 25 33 30 55 33 27
4 -14 -16 -17 -27 -11 -43 4 -11 13 -20 20 -18 6 1 9 -2 6 -7 -4 -5 1 -14 9
-18 9 -5 19 -32 24 -61 l8 -52 -36 -1 -36 -1 35 -10 c23 -7 40 -6 51 0 9 6 27
8 39 5 19 -5 21 -3 16 15 -5 14 -1 25 11 34 10 7 24 21 32 31 12 15 12 20 -5
33 -18 15 -18 15 -1 10 10 -3 21 -6 23 -6 2 0 4 -7 4 -16 0 -8 5 -12 11 -9 7
5 4 15 -9 29 -24 26 -35 77 -15 69 7 -3 13 1 14 8 0 8 4 4 9 -8 13 -31 32 -29
24 2 -7 26 4 33 23 14 9 -9 12 -7 10 9 0 11 -5 18 -10 15 -5 -3 -8 0 -5 7 7
23 29 23 35 1 9 -34 24 -24 18 12 -5 24 -2 37 9 47 14 11 16 10 11 -3 -6 -15
8 -30 33 -33 6 -1 12 3 12 8 0 6 9 1 19 -11 13 -15 20 -18 24 -9 3 10 8 9 23
-4 18 -15 21 -15 50 6 l32 21 -22 25 c-11 14 -29 24 -38 22 -13 -2 -18 3 -18
17 0 12 -4 21 -9 21 -12 0 -24 -37 -16 -50 3 -5 -1 -10 -9 -10 -11 0 -13 7 -9
28 3 15 6 33 6 40 1 24 36 11 73 -28 20 -21 41 -37 46 -34 5 3 7 9 4 12 -3 3
1 13 9 22 14 16 14 19 0 34 -17 16 -40 13 -30 -5 4 -5 3 -14 0 -20 -4 -6 -13
1 -21 16 -8 15 -14 28 -14 30 0 1 14 2 30 3 20 0 35 -6 43 -19 6 -10 18 -19
26 -19 11 0 11 3 1 15 -10 12 -9 16 4 21 10 4 15 12 12 20 -3 7 0 15 7 17 7 2
9 8 5 12 -4 4 -15 2 -24 -6 -15 -12 -16 -11 -10 9 5 15 3 22 -6 22 -8 0 -30
16 -49 37 -22 23 -27 34 -16 30 10 -4 23 -7 28 -7 5 0 9 -8 10 -17 0 -10 3
-13 5 -6 3 7 12 9 20 6 8 -3 14 -1 15 3 1 11 6 31 15 62 5 16 2 22 -10 22 -9
0 -16 5 -16 11 0 6 8 8 19 4 15 -4 20 1 25 26 8 44 8 59 -4 59 -5 0 -7 -7 -4
-15 8 -19 -23 -32 -39 -16 -6 6 -17 11 -25 11 -8 0 -21 8 -29 18 -9 11 -16 13
-19 6 -6 -15 -41 -6 -48 13 -3 8 -1 11 4 8 6 -3 10 1 10 9 0 9 5 16 11 16 6 0
4 7 -5 15 -23 23 -35 18 -42 -20 -5 -31 -24 -50 -24 -26 0 16 -62 -13 -77 -36
-14 -22 -16 -21 -47 40 -59 116 -151 225 -180 214 -9 -4 -16 -2 -16 4 0 16 81
48 141 55 40 4 64 2 89 -10 66 -30 95 -53 93 -72 -1 -10 2 -21 7 -24 4 -3 12
-25 17 -50 8 -40 11 -45 34 -42 37 4 93 -50 85 -82 -4 -17 0 -25 16 -33 19 -8
25 -6 36 15 11 22 9 35 -9 91 -31 92 -107 167 -199 198 -87 29 -144 34 -206
19z"/>
<path d="M2701 1052 c-1 -22 47 -159 74 -213 14 -27 23 -55 19 -61 -4 -6 -3
-8 4 -4 5 3 20 -9 31 -27 19 -32 65 -94 93 -126 10 -12 10 -15 0 -19 -7 -2 -9
-8 -6 -14 4 -6 10 -5 16 3 7 11 13 8 30 -13 12 -15 22 -39 24 -54 3 -30 11
-41 21 -30 4 3 1 12 -5 18 -15 15 -16 28 -2 28 6 0 10 -7 10 -15 0 -8 7 -15
15 -15 9 0 18 -8 21 -17 15 -44 29 -73 36 -73 22 0 4 -19 -19 -22 -28 -3 -32
-18 -16 -58 4 -8 7 -19 7 -24 1 -11 38 -25 49 -19 4 2 7 16 7 30 0 18 4 24 15
19 18 -7 18 -4 3 29 -6 14 -15 25 -20 25 -5 0 -7 4 -4 9 4 5 2 11 -3 13 -4 1
-11 14 -15 28 -6 23 -4 22 23 -9 17 -19 28 -38 25 -43 -3 -4 -1 -8 4 -8 5 0
15 -11 22 -25 19 -36 24 -23 6 19 -8 20 -11 36 -5 36 5 0 13 -8 16 -17 4 -10
9 -20 12 -23 16 -14 66 -86 63 -92 -1 -5 3 -8 9 -8 6 0 8 9 4 22 -6 17 -4 20
10 15 9 -4 19 -7 21 -7 2 0 4 -7 4 -16 0 -13 3 -14 14 -4 8 6 12 18 9 26 -3 7
21 -11 52 -42 32 -30 60 -52 64 -49 3 4 -7 18 -22 31 -15 13 -25 24 -21 24 4
0 -3 11 -16 25 -39 41 -15 28 33 -17 70 -68 87 -80 87 -63 0 7 -4 17 -10 20
-5 3 -15 16 -21 28 -11 21 -10 21 17 -3 16 -14 30 -28 32 -32 2 -5 13 -8 23
-8 11 0 17 -4 14 -10 -3 -5 2 -10 11 -10 14 0 10 8 -17 37 -24 27 -26 31 -6
13 16 -14 30 -23 32 -20 3 3 14 -3 25 -13 11 -9 25 -17 30 -17 6 0 10 -4 10
-8 0 -5 12 -14 28 -21 22 -11 20 -7 -13 22 -22 19 -37 38 -33 42 7 7 88 -36
121 -63 9 -8 17 -11 16 -6 0 5 -27 29 -60 53 -33 24 -58 46 -55 49 3 3 14 -1
23 -9 25 -20 103 -62 103 -55 0 4 18 -5 40 -19 22 -14 40 -23 40 -21 0 3 -35
28 -77 56 -70 45 -75 50 -46 48 17 -1 30 -5 28 -8 -5 -8 115 -63 122 -57 4 5
-28 25 -74 46 -33 15 -28 31 10 31 17 0 43 3 56 7 17 4 22 3 17 -5 -5 -8 -1
-10 10 -5 12 4 15 3 10 -5 -4 -8 0 -12 11 -12 10 0 29 -3 43 -6 24 -5 24 -5 6
10 -10 8 -15 19 -11 25 3 6 2 11 -4 11 -5 0 -11 -5 -13 -12 -3 -8 -9 -8 -22
-1 -16 9 -14 11 14 16 21 5 39 2 53 -8 12 -8 31 -15 42 -14 15 0 11 4 -14 15
-38 17 -38 19 4 28 22 5 26 4 15 -4 -21 -14 5 -14 31 0 13 7 19 7 19 0 0 -5
19 -9 43 -9 32 2 35 3 12 6 -16 2 -37 7 -45 10 -8 3 -22 5 -30 4 -18 -3 -13 2
19 19 19 10 22 9 16 -1 -6 -9 -2 -11 13 -7 12 4 22 2 22 -2 0 -5 9 -8 20 -7
25 2 25 2 0 25 l-21 19 25 -4 c14 -3 23 -9 20 -14 -3 -5 -1 -9 5 -9 5 0 13 5
16 10 3 6 17 10 31 10 14 0 23 -4 20 -9 -3 -5 -16 -7 -29 -4 -19 4 -20 3 -4
-7 9 -6 23 -8 29 -3 7 4 28 6 46 4 20 -1 32 1 28 7 -3 5 -17 7 -31 4 -15 -2
-25 0 -25 7 0 6 12 11 28 11 15 0 37 3 50 6 13 4 22 2 22 -5 0 -7 -4 -10 -9
-6 -5 3 -12 1 -16 -5 -4 -6 6 -9 26 -6 18 2 35 9 37 16 3 8 0 10 -7 6 -6 -4
-11 -2 -11 3 0 14 17 14 26 0 6 -11 33 -9 94 6 20 6 22 5 10 -5 -13 -10 -12
-11 5 -5 11 4 27 8 35 9 34 5 70 19 70 27 0 5 4 9 10 9 5 0 7 -7 4 -15 -8 -19
5 -19 31 -2 11 8 29 17 39 21 20 7 20 6 1 -14 -19 -20 -19 -21 1 -14 10 4 24
11 31 16 7 5 21 7 33 3 12 -4 27 -1 35 5 12 10 18 10 30 0 13 -10 19 -10 35 5
26 24 25 35 -2 36 -16 1 -12 4 12 10 23 5 7 6 -48 3 -46 -2 -102 -11 -125 -19
-41 -13 -71 -18 -332 -50 -66 -8 -142 -19 -170 -24 -27 -5 -52 -8 -53 -6 -2 2
11 11 30 21 109 56 229 163 309 277 52 73 129 216 129 239 0 7 -15 -20 -34
-59 -155 -322 -445 -523 -828 -573 -170 -23 -341 11 -530 105 -104 52 -180
108 -269 201 -103 108 -149 185 -220 364 -21 52 -38 89 -38 82z"/>
<path d="M2325 598 c50 -50 95 -96 100 -102 6 -6 60 -56 120 -111 111 -102
153 -129 180 -119 8 3 22 -1 31 -10 16 -16 39 -12 29 5 -4 5 0 9 8 9 8 0 25
-15 37 -33 17 -25 20 -27 15 -8 -6 18 -4 22 6 15 26 -15 113 -88 198 -166 72
-66 89 -77 118 -76 l34 1 -53 54 c-29 29 -60 53 -70 53 -10 0 -18 4 -18 8 0 5
-23 22 -51 38 -28 16 -60 34 -70 40 -29 16 -37 28 -14 20 14 -5 17 -4 10 3 -6
6 -19 12 -30 14 -11 2 -43 15 -72 30 -32 16 -68 27 -93 27 -38 0 -110 22 -110
34 0 3 7 3 15 0 9 -4 15 0 15 10 0 9 -5 16 -11 16 -14 0 -39 20 -146 117 -174
158 -248 223 -258 223 -5 0 31 -41 80 -92z"/>
<path d="M980 585 c0 -14 5 -25 10 -25 6 0 10 -9 10 -20 0 -13 -5 -18 -15 -14
-8 4 -13 10 -10 14 3 5 1 11 -4 15 -5 3 -15 -3 -21 -12 -11 -17 -11 -17 -6 0
3 9 9 23 12 31 3 9 -3 14 -21 14 -14 0 -25 -6 -24 -12 1 -6 -1 -19 -5 -28 -11
-24 -3 -63 12 -60 7 1 15 -5 18 -13 4 -8 10 -15 16 -15 5 0 6 5 2 11 -5 9 1
10 20 5 20 -5 26 -3 26 10 0 16 2 15 20 -1 11 -10 20 -23 20 -29 0 -6 5 -18
10 -26 8 -13 11 -12 24 5 24 33 16 74 -21 111 -18 18 -33 38 -33 43 0 8 -23
21 -36 21 -2 0 -4 -11 -4 -25z"/>
</g>
</svg>
