<?xml version="1.0" standalone="no"?>
<!DOCTYPE svg PUBLIC "-//W3C//DTD SVG 20010904//EN"
 "http://www.w3.org/TR/2001/REC-SVG-20010904/DTD/svg10.dtd">
<svg version="1.0" xmlns="http://www.w3.org/2000/svg"
 width="500.000000pt" height="333.000000pt" viewBox="0 0 500.000000 333.000000"
 preserveAspectRatio="xMidYMid meet">
<metadata>
Created by potrace 1.15, written by Peter Selinger 2001-2017
</metadata>
<g transform="translate(0.000000,333.000000) scale(0.100000,-0.100000)"
fill="#000000" stroke="none">
<path d="M0 1665 l0 -1665 1499 0 c1471 0 1500 0 1506 19 5 16 19 21 71 26 35
4 67 11 70 16 10 17 31 9 42 -16 10 -22 15 -24 33 -15 12 7 37 9 59 5 42 -7
80 0 80 16 0 5 -15 9 -32 9 -40 0 -122 30 -145 52 -18 19 -11 68 11 68 35 0
166 84 166 107 0 16 49 62 67 63 14 0 17 -10 38 -110 18 -91 19 -144 3 -157
-7 -6 -31 -14 -53 -19 l-40 -8 50 -6 c42 -4 50 -8 53 -27 l3 -23 585 0 584 0
0 25 c0 26 0 26 84 23 46 -2 79 -6 72 -10 -6 -5 0 -8 15 -8 15 0 29 6 32 14 3
8 15 14 27 13 13 -1 19 -6 15 -15 -9 -25 16 -42 63 -42 l45 0 -7 37 c-4 21 -6
43 -5 48 1 6 4 738 6 1627 l3 1618 -1775 -1 c-976 0 -1776 -3 -1778 -7 -2 -4
2 -54 10 -112 23 -169 7 -527 -29 -642 -12 -42 -22 -47 -33 -20 -6 16 -7 16
-21 -2 -11 -16 -14 -17 -14 -4 0 12 -14 17 -58 20 -31 2 -78 14 -103 26 -25
12 -55 22 -67 22 -12 0 -26 9 -32 20 -6 11 -15 18 -20 15 -13 -8 -30 29 -23
53 3 14 12 21 27 19 17 -2 29 13 63 78 58 109 74 146 71 164 -6 29 -27 22 -54
-18 -14 -22 -46 -52 -70 -66 -51 -30 -71 -24 -101 25 -26 45 -54 48 -92 9 -30
-30 -34 -40 -41 -122 -8 -86 -8 -91 17 -131 14 -22 43 -60 64 -83 22 -24 39
-47 39 -52 0 -6 20 -44 45 -84 25 -41 45 -77 45 -81 0 -3 -15 -6 -32 -6 -18 0
-64 -12 -103 -26 -86 -31 -126 -41 -188 -49 -39 -5 -64 -19 -145 -82 -120 -93
-120 -93 -100 -93 9 0 33 15 52 34 20 18 54 45 75 61 43 29 159 75 192 75 11
0 37 9 59 20 61 31 128 43 146 26 7 -8 14 -20 14 -26 0 -6 5 -8 10 -5 6 3 13
0 16 -8 3 -8 25 -35 48 -61 l43 -46 154 -5 c85 -3 164 -8 177 -10 25 -6 32
-45 8 -45 -24 0 35 -58 72 -71 29 -10 36 -9 57 11 20 18 22 27 14 48 -11 30 2
43 41 41 49 -3 87 20 60 36 -19 12 -10 25 14 19 13 -3 37 1 53 9 37 20 101 15
183 -13 42 -14 66 -18 68 -11 2 6 13 11 24 11 17 0 18 -2 8 -15 -17 -20 2 -65
26 -65 9 0 22 -6 28 -14 6 -7 59 -21 121 -31 261 -41 527 -125 604 -191 90
-78 23 -151 -182 -200 -32 -8 -83 -25 -112 -39 -57 -28 -168 -54 -225 -55 -19
0 -30 -4 -25 -8 17 -12 16 -32 -2 -25 -10 4 -14 2 -10 -4 5 -7 -1 -10 -15 -7
-14 3 -17 1 -8 -3 9 -4 -17 -14 -65 -25 -44 -10 -98 -23 -120 -28 -22 -6 -65
-14 -95 -19 -60 -9 -66 -6 -77 42 -7 32 -25 44 -82 53 -34 5 -41 4 -41 -10 0
-9 -7 -16 -15 -16 -8 0 -15 -6 -15 -14 0 -26 -40 -30 -63 -7 -20 20 -20 21 -2
41 10 11 25 20 34 21 9 0 -11 7 -44 16 -33 8 -71 26 -85 39 l-25 24 34 0 c66
0 24 8 -149 29 -621 77 -1070 216 -1070 332 0 10 -9 34 -20 54 -24 43 -18 82
13 87 18 3 15 6 -18 23 -37 18 -41 26 -62 95 -12 41 -33 115 -48 164 l-26 89
21 22 c17 18 20 30 15 55 -7 31 -7 31 -33 14 -23 -15 -26 -15 -37 -1 -12 17
-8 87 6 87 5 0 9 -16 9 -36 0 -47 18 -41 47 15 12 24 30 52 40 63 13 15 15 23
6 36 -18 29 -46 20 -67 -21 -10 -21 -20 -36 -23 -34 -2 3 3 53 12 113 16 111
32 343 22 334 -3 -3 -12 -84 -21 -181 -9 -96 -22 -193 -30 -215 -14 -38 -15
-35 -17 86 -2 159 0 331 5 394 3 27 2 55 -1 62 -6 17 -53 19 -53 2 0 -9 -3 -9
-12 0 -7 7 -39 12 -75 12 l-63 0 0 -1665z m1876 1380 c13 -8 21 -21 18 -29 -3
-8 4 -24 16 -36 13 -13 23 -39 27 -68 7 -66 -19 -99 -88 -108 -27 -4 -49 -10
-49 -15 0 -5 -9 -9 -20 -9 -11 0 -20 5 -20 11 0 6 -9 18 -20 27 -12 10 -25 40
-32 74 -11 52 -10 59 7 78 11 12 21 33 22 48 7 53 10 55 64 49 29 -4 62 -13
75 -22z m1185 -42 c6 -16 13 -52 16 -81 5 -43 1 -63 -18 -103 -23 -50 -23 -50
-66 -48 -23 2 -45 0 -49 -4 -12 -12 -46 -8 -38 4 4 7 -3 6 -17 -2 -21 -11 -72
-16 -309 -32 -32 -2 -35 0 -38 28 -2 17 -13 39 -24 49 -17 16 -20 28 -16 83 3
54 8 68 29 84 27 21 57 17 78 -12 16 -23 31 -25 31 -4 0 8 7 15 16 15 8 0 12
-5 9 -10 -4 -6 7 -16 24 -23 17 -7 29 -15 27 -18 -3 -3 8 -6 24 -7 29 -2 30
-1 30 38 0 33 4 42 25 52 17 7 28 8 37 1 16 -13 78 -15 78 -3 0 9 37 16 103
18 32 2 39 -2 48 -25z m1033 2 c38 -35 36 -79 -6 -105 -43 -26 -50 -25 -88 10
-26 24 -31 35 -26 56 8 32 43 63 72 64 12 0 33 -11 48 -25z m-717 3 c15 -6 63
-14 105 -18 51 -4 84 -12 96 -23 10 -9 21 -15 23 -13 2 2 12 -7 22 -20 17 -23
17 -24 -10 -29 -16 -3 -43 -14 -62 -23 -28 -14 -59 -17 -170 -15 -127 2 -137
4 -154 25 -35 43 -2 113 57 121 59 7 65 7 93 -5z m-1073 -144 c9 -33 -1 -64
-20 -64 -29 0 -26 -30 6 -60 20 -19 30 -36 27 -47 -3 -10 -8 -30 -11 -45 -4
-16 -11 -27 -18 -25 -6 1 -20 -15 -32 -36 l-20 -39 -18 22 c-23 29 -58 147
-58 196 0 71 12 146 21 132 7 -9 11 -10 17 -2 21 33 96 11 106 -32z m278 -204
c10 -15 24 -20 60 -20 27 0 48 -4 48 -10 0 -5 -4 -10 -10 -10 -5 0 -10 -13
-10 -28 0 -15 -5 -33 -12 -40 -19 -19 -66 -14 -85 8 -13 15 -30 20 -65 20 -40
0 -50 4 -64 25 -15 23 -15 27 0 50 14 22 24 25 71 25 44 0 57 -4 67 -20z
m-2178 -702 c-3 -4 2 -5 10 -2 16 6 23 -10 9 -19 -5 -2 -2 -2 5 0 17 4 209
-122 244 -160 15 -16 24 -35 22 -41 -3 -7 7 -21 21 -32 37 -28 30 -72 -20
-116 -16 -14 -17 -17 -4 -18 9 0 24 -9 34 -20 14 -16 15 -22 5 -35 -7 -8 -11
-34 -8 -63 3 -43 1 -48 -14 -44 -15 4 -18 -2 -18 -35 l0 -40 -69 -12 c-79 -14
-111 -3 -111 36 0 13 -8 31 -17 41 -44 45 -53 60 -47 75 3 10 11 14 16 10 14
-8 1 62 -18 100 -17 32 -10 67 12 67 26 0 11 34 -21 49 -17 8 -33 19 -37 25
-5 7 -8 3 -9 -9 -2 -36 -27 98 -32 176 l-6 76 29 0 c16 0 27 -4 24 -9z m3344
-120 c18 -18 15 -103 -4 -122 -14 -15 -14 -17 3 -22 37 -11 48 -22 48 -45 0
-18 -10 -29 -38 -43 -34 -16 -42 -17 -75 -4 -28 10 -38 20 -40 40 -3 22 3 28
40 43 29 13 37 20 26 22 -14 4 -18 15 -18 54 0 75 26 109 58 77z m-628 -493
c34 -34 38 -34 155 -45 225 -20 407 -45 600 -85 85 -18 113 -19 98 -4 -6 6 -7
24 -4 42 6 28 11 32 44 35 33 3 37 0 38 -20 2 -38 -2 -62 -13 -75 -6 -7 -7
-13 -2 -13 5 0 19 -3 30 -6 19 -5 22 -2 22 33 1 84 0 83 30 83 15 0 33 5 40
12 15 15 52 -16 52 -44 0 -22 -27 -78 -38 -79 -21 -2 -44 -8 -49 -12 -2 -3 52
-24 122 -47 369 -123 515 -268 393 -391 -122 -122 -474 -189 -993 -189 -361 0
-668 29 -978 91 -424 85 -694 183 -841 306 -21 17 -32 21 -41 13 -18 -15 -22
-5 -24 72 -1 62 1 70 31 103 17 20 54 48 82 62 58 30 103 32 213 13 72 -13
108 -11 243 12 41 8 92 13 112 13 21 0 38 3 38 7 0 4 20 10 45 14 25 3 45 10
45 15 0 5 13 9 29 9 17 0 33 5 36 10 12 19 22 10 17 -16 -3 -19 -1 -25 7 -20
6 4 11 2 11 -3 0 -6 7 -11 15 -11 9 0 12 6 9 15 -6 16 1 20 52 29 26 4 33 1
43 -20 15 -34 14 -36 -9 -29 -11 4 -29 0 -42 -9 -12 -9 -19 -16 -15 -16 4 0 0
-11 -9 -25 -14 -21 -14 -26 -1 -39 9 -9 24 -13 38 -9 16 4 21 2 14 -5 -14 -14
-59 -27 -51 -14 12 20 -25 21 -59 2 -20 -11 -42 -20 -50 -20 -8 0 -15 -9 -15
-20 0 -12 -7 -20 -17 -20 -12 0 -14 3 -6 8 9 5 9 11 0 22 -14 17 -47 23 -47 8
0 -6 -11 -7 -27 -4 -17 5 -29 3 -34 -6 -14 -22 -10 -31 12 -25 15 4 23 -1 31
-19 18 -38 26 -39 248 -19 38 4 70 12 76 21 21 27 50 15 45 -18 -2 -12 47 -21
78 -15 15 3 33 1 40 -6 8 -8 11 -8 11 1 0 7 -5 12 -11 12 -6 0 -9 5 -7 11 2 6
7 10 11 9 4 0 14 6 23 14 11 12 21 13 40 6 14 -6 40 -10 57 -11 l32 -1 -27 -9
c-14 -6 -33 -25 -42 -44 -21 -43 -20 -45 7 -45 13 0 28 -5 34 -11 7 -7 41 -11
85 -10 40 1 85 3 101 3 22 1 25 4 16 14 -9 11 -8 14 5 14 9 0 19 7 22 15 7 18
24 10 24 -11 0 -24 38 -54 71 -54 27 0 30 3 27 28 -2 19 -9 28 -26 30 -12 2
-26 11 -31 21 -8 15 -4 17 34 17 32 1 42 -3 38 -13 -8 -20 24 -16 36 5 8 14
12 15 22 5 15 -15 29 -17 29 -5 0 8 -62 34 -77 31 -20 -3 -23 2 -9 16 22 22
114 19 192 -7 53 -17 70 -19 85 -10 10 7 24 12 30 12 6 0 17 7 26 15 9 9 23
13 34 10 14 -5 17 -2 13 9 -5 12 0 16 19 16 14 0 29 -5 32 -11 12 -18 49 -27
88 -20 21 3 37 11 36 16 0 6 -5 9 -10 7 -5 -1 -29 7 -54 19 -24 11 -49 17 -56
13 -8 -5 -9 -3 -4 6 6 10 4 12 -11 6 -10 -4 -15 -4 -11 0 9 10 -22 44 -40 44
-7 0 -26 -8 -40 -17 -19 -13 -28 -14 -31 -5 -2 6 -11 12 -21 12 -30 0 -43 21
-24 42 18 20 4 25 -15 6 -9 -9 -18 -9 -37 0 -34 16 -34 16 -28 -10 6 -23 5
-23 -17 2 -14 15 -24 20 -27 13 -12 -33 -43 -55 -73 -51 -20 3 -30 0 -30 -8 0
-7 -6 -15 -12 -17 -7 -3 -1 -6 15 -6 33 -1 35 -14 5 -35 -20 -14 -22 -14 -32
6 -6 11 -22 25 -36 29 l-25 9 23 -19 c27 -24 28 -31 2 -31 -20 0 -44 32 -33
44 3 3 -3 6 -15 6 -11 0 -25 6 -29 13 -4 7 -19 20 -33 28 -14 9 -41 32 -61 50
-42 39 -90 69 -112 69 -9 0 -22 7 -30 15 -13 13 -16 13 -21 -2 -5 -13 -13 -8
-40 23 -19 21 -32 42 -29 47 10 16 39 5 73 -28z"/>
<path d="M1303 2092 c-13 -8 22 -54 50 -65 9 -3 17 -14 16 -24 0 -10 -3 -13
-6 -6 -3 10 -11 9 -34 -2 -34 -18 -39 -40 -7 -29 20 6 21 5 10 -9 -8 -9 -20
-13 -28 -10 -8 3 -14 0 -14 -5 0 -13 36 -25 50 -17 5 3 10 -2 10 -11 0 -16 1
-16 19 0 10 9 25 14 34 11 8 -4 29 1 46 9 62 32 95 14 62 -33 -12 -16 -21 -33
-21 -38 0 -5 -22 -31 -49 -57 -41 -40 -54 -47 -74 -42 -14 3 -38 1 -54 -5 -26
-11 -24 -13 47 -25 41 -7 96 -13 122 -13 41 -1 47 1 41 17 -5 12 -1 11 13 -5
16 -19 33 -24 102 -29 70 -5 82 -4 82 9 0 8 5 17 12 19 18 6 0 26 -43 49 -43
21 -56 18 -87 -23 -7 -10 -18 -18 -25 -18 -8 0 -8 3 1 12 7 7 12 20 12 31 0
11 5 17 13 14 6 -2 21 1 32 6 21 11 26 13 60 15 15 2 16 5 7 14 -7 7 -12 19
-12 28 0 13 1 13 10 0 7 -12 12 -12 22 -2 10 10 9 15 -4 28 -17 17 -54 12 -43
-6 3 -5 1 -10 -6 -10 -6 0 -9 -8 -6 -19 3 -14 1 -18 -9 -14 -17 6 -18 30 -1
36 9 4 8 8 -3 16 -21 14 -37 -16 -21 -40 14 -24 14 -29 -2 -29 -20 0 -45 31
-48 60 -2 14 -14 40 -27 58 -13 18 -22 40 -20 50 4 19 -28 56 -42 47 -5 -3
-11 -1 -15 4 -3 6 -13 7 -23 4 -15 -6 -15 -5 -3 10 12 15 11 17 -3 17 -9 0
-26 -9 -38 -20 -12 -11 -24 -17 -27 -14 -3 3 2 11 12 18 9 7 17 19 17 27 0 12
-2 12 -9 0 -7 -11 -13 -11 -32 3 -25 17 -47 20 -66 8z"/>
<path d="M1680 2073 c-1 -27 -23 -51 -53 -58 -18 -5 -27 -14 -27 -27 0 -13 5
-18 14 -15 21 8 67 -16 61 -31 -3 -7 0 -10 5 -7 6 3 10 0 10 -8 0 -13 33 -31
53 -28 4 1 7 -5 7 -11 1 -7 9 -3 19 10 22 26 38 27 77 7 16 -8 36 -15 44 -15
8 0 -5 10 -30 21 -74 33 -140 108 -140 159 0 26 -40 29 -40 3z"/>
</g>
</svg>
