<?xml version="1.0" standalone="no"?>
<!DOCTYPE svg PUBLIC "-//W3C//DTD SVG 20010904//EN"
 "http://www.w3.org/TR/2001/REC-SVG-20010904/DTD/svg10.dtd">
<svg version="1.0" xmlns="http://www.w3.org/2000/svg"
 width="500.000000pt" height="333.000000pt" viewBox="0 0 500.000000 333.000000"
 preserveAspectRatio="xMidYMid meet">
<metadata>
Created by potrace 1.15, written by Peter Selinger 2001-2017
</metadata>
<g transform="translate(0.000000,333.000000) scale(0.100000,-0.100000)"
fill="#000000" stroke="none">
<path d="M0 3249 c0 -93 8 -109 52 -109 15 0 28 -4 28 -10 0 -5 18 -10 40 -10
23 0 40 5 40 11 0 15 105 5 124 -10 7 -6 27 -8 44 -5 25 5 30 3 29 -12 -1 -11
-14 -27 -29 -36 -16 -10 -28 -26 -28 -37 0 -15 10 -20 58 -25 127 -13 167 -19
177 -25 18 -13 105 0 105 15 0 8 7 14 16 14 13 0 15 9 12 45 l-3 45 95 -1
c100 0 178 -17 88 -18 -37 -1 -50 -5 -59 -22 -9 -17 -8 -20 3 -16 7 2 12 8 11
13 -1 5 24 11 55 12 63 4 73 8 52 23 -11 8 9 9 64 5 43 -3 95 -6 114 -6 l36 0
-39 -35 c-38 -36 -60 -33 -48 4 3 11 2 12 -4 4 -6 -8 -14 -9 -23 -3 -31 20
-31 9 -1 -19 61 -57 32 -131 -57 -147 -41 -8 -118 10 -143 32 -9 8 -24 12 -33
8 -10 -4 -16 -1 -16 7 0 11 -3 11 -10 -1 -9 -13 -11 -13 -20 0 -8 13 -10 12
-10 -2 0 -14 -8 -18 -34 -18 -18 0 -50 -7 -70 -15 -29 -12 -36 -21 -36 -43 0
-21 -10 -33 -44 -55 -46 -29 -91 -35 -164 -22 -27 4 -48 3 -56 -4 -7 -6 -29
-12 -49 -13 -20 -2 -37 -6 -37 -10 0 -5 -5 -8 -10 -8 -6 0 -24 -10 -40 -22
-24 -17 -27 -24 -18 -36 26 -31 -48 -50 -104 -27 -35 14 -53 2 -56 -39 -3 -38
-3 -38 24 -32 15 4 46 16 68 27 33 16 62 19 170 19 72 0 162 5 201 10 81 12
168 -1 187 -29 16 -22 53 -43 62 -34 3 3 6 -3 6 -14 0 -11 -11 -26 -25 -33
-29 -16 -28 -32 2 -40 21 -5 21 -6 3 -27 -10 -13 -26 -23 -35 -23 -9 0 -30 -9
-45 -20 -16 -11 -71 -32 -122 -45 -51 -14 -109 -30 -128 -35 -53 -16 -217 -50
-283 -59 -31 -5 -64 -14 -72 -21 -13 -11 -15 -156 -15 -1141 l0 -1129 1590 0
1590 0 -6 43 c-3 26 0 58 10 86 9 24 16 72 16 107 0 59 2 64 31 85 l31 22 20
-21 c29 -29 42 -92 42 -215 l1 -107 838 0 837 0 0 1475 c0 1587 3 1500 -47
1556 -15 18 -12 75 7 135 7 19 9 41 6 49 -4 10 1 15 14 15 16 0 20 7 20 35 0
30 -4 35 -22 35 -13 1 -34 7 -48 15 -17 10 -57 14 -120 15 l-96 0 1 -125 c0
-69 3 -125 8 -125 4 0 7 -9 7 -19 0 -15 -5 -18 -21 -14 -12 4 -24 14 -26 23
-6 24 -66 50 -113 50 -21 0 -42 5 -45 10 -10 16 -28 12 -21 -5 3 -10 -3 -19
-17 -26 -12 -5 -34 -27 -47 -47 -14 -20 -30 -42 -36 -49 -18 -19 -126 -53
-175 -56 -24 -2 -56 -11 -71 -21 -42 -27 -103 -38 -148 -26 -75 20 -106 105
-55 152 l24 23 -32 1 c-38 1 -121 54 -144 92 -9 15 -25 40 -36 57 -12 16 -23
45 -27 65 l-5 35 -679 3 c-658 2 -679 2 -663 -16 10 -10 17 -26 17 -35 0 -9 5
-19 10 -22 6 -3 10 -15 10 -26 0 -11 7 -27 16 -36 8 -9 13 -21 10 -29 -3 -7 2
-18 10 -24 8 -7 14 -23 14 -35 0 -12 7 -28 15 -35 8 -7 15 -23 15 -36 0 -13 4
-24 10 -24 5 0 12 -16 16 -35 3 -19 10 -38 15 -41 5 -3 9 -14 9 -24 0 -10 6
-31 14 -47 8 -15 29 -64 47 -108 18 -44 38 -89 44 -100 7 -11 17 -40 24 -65 7
-25 17 -52 22 -60 5 -8 12 -22 15 -30 3 -8 12 -27 20 -42 8 -14 12 -33 9 -40
-3 -8 1 -21 10 -28 8 -7 15 -21 15 -32 0 -10 7 -29 16 -43 12 -19 13 -28 4
-45 -9 -16 -9 -25 -1 -33 8 -8 11 -6 11 7 0 15 3 16 14 7 11 -9 34 -8 98 3 45
9 110 17 143 18 l59 3 6 -37 c4 -20 3 -35 -2 -32 -4 3 -8 12 -8 20 0 8 -10 14
-22 15 -22 1 -22 1 2 10 17 6 3 7 -45 5 -108 -6 -180 -16 -183 -26 -2 -5 -10
-6 -18 -3 -8 3 -14 -1 -14 -8 0 -11 -3 -11 -10 1 -8 13 -11 13 -19 1 -13 -19
-65 61 -58 89 3 13 0 20 -9 20 -8 0 -17 13 -20 30 -4 16 -13 35 -20 41 -8 6
-14 20 -14 31 0 11 -7 26 -15 34 -8 9 -15 26 -15 38 0 13 -7 29 -15 36 -8 7
-15 23 -15 35 0 12 -7 28 -15 35 -8 7 -15 19 -15 27 0 7 -7 24 -16 38 -8 13
-14 29 -12 37 1 7 -6 25 -16 40 -10 15 -15 32 -11 38 4 6 -1 20 -10 30 -10 11
-15 26 -12 34 3 8 -3 22 -14 32 -13 12 -18 26 -15 40 4 13 0 27 -9 34 -9 7
-14 21 -13 30 2 10 -6 27 -16 39 -15 17 -17 24 -8 33 10 10 7 16 -10 30 -20
15 -21 20 -11 37 11 18 10 22 -8 32 -17 8 -20 17 -15 40 4 21 1 31 -13 38 -13
7 -16 18 -13 40 3 24 0 31 -12 31 -9 0 -16 5 -16 11 0 13 -464 9 -477 -4 -14
-15 22 -28 65 -24 47 5 47 6 28 -47 -14 -41 -151 -180 -189 -192 -33 -10 -40
11 -13 37 14 13 26 29 26 36 0 6 11 20 25 31 32 25 32 47 -1 77 -23 21 -25 27
-14 41 8 8 22 13 32 11 10 -3 20 -1 23 3 7 12 -63 30 -125 33 -51 2 -51 2 -65
-37 -8 -21 -18 -42 -23 -45 -9 -6 -13 -19 -32 -110 -6 -24 -14 -49 -20 -56 -5
-6 -7 -15 -4 -18 4 -3 -6 -45 -20 -91 -15 -47 -25 -90 -21 -96 3 -5 1 -10 -5
-10 -6 0 -9 -4 -5 -9 3 -5 1 -12 -5 -16 -5 -3 -10 -15 -10 -25 0 -10 -7 -25
-15 -34 -8 -8 -15 -24 -15 -35 0 -11 -9 -36 -20 -56 -11 -19 -17 -42 -14 -50
4 -9 -1 -24 -11 -35 -9 -10 -14 -24 -10 -29 3 -6 -1 -23 -9 -38 -30 -56 -56
-120 -56 -136 0 -9 -8 -25 -18 -35 -31 -31 -34 -50 -7 -44 31 5 75 -38 75 -73
0 -41 -41 -75 -90 -75 -37 0 -41 3 -40 23 4 38 0 47 -15 41 -12 -5 -13 -10 -4
-20 17 -21 1 -54 -27 -54 -19 0 -24 -5 -24 -26 0 -19 4 -25 15 -20 9 3 15 0
15 -10 0 -10 -6 -13 -18 -10 -19 6 -37 -17 -45 -59 -4 -18 -5 -18 -12 -2 -4
11 -1 27 11 45 10 15 17 37 15 49 -1 12 6 30 16 40 13 13 17 26 12 43 -13 48
-9 63 35 105 33 31 43 48 39 63 -2 11 1 31 8 43 7 13 12 28 11 32 -1 5 7 23
18 42 11 18 20 41 20 52 0 12 7 26 15 33 8 7 15 21 15 31 0 11 9 28 19 38 12
12 17 27 14 41 -4 14 2 29 17 45 19 20 21 27 10 40 -10 13 -10 18 3 33 9 10
16 26 15 37 0 11 5 34 12 50 7 17 12 36 11 43 -1 8 5 24 13 37 8 12 12 32 9
43 -3 13 3 28 16 41 12 12 17 21 11 21 -11 0 -3 25 19 59 9 14 14 34 13 47 -2
12 4 29 13 37 10 10 13 25 10 40 -4 15 -1 28 9 36 9 8 16 17 16 22 0 11 -162
1 -174 -11 -13 -13 -83 -13 -88 1 -5 16 -365 15 -413 -1 -38 -13 -38 -13 -14
-25 24 -13 24 -13 -11 -19 -19 -3 -80 -10 -135 -16 -94 -9 -102 -8 -128 11
-25 18 -37 20 -105 14 -42 -4 -74 -5 -71 -1 3 3 44 8 90 11 81 4 109 15 72 29
-10 4 -158 10 -330 13 l-313 6 0 -84z m1527 -161 c-1 -10 -5 -18 -9 -18 -4 0
-8 -7 -8 -15 0 -8 -4 -15 -8 -15 -17 0 -21 13 -11 31 6 13 6 19 -1 19 -5 0
-10 -4 -10 -9 0 -5 -5 -22 -11 -38 -8 -22 -12 -24 -19 -13 -8 13 -10 13 -10
-1 0 -12 -13 -18 -51 -21 -64 -7 -89 -1 -89 21 0 51 54 79 152 77 66 -1 76 -3
75 -18z m2212 -769 c36 -13 51 -35 51 -78 0 -43 -40 -71 -102 -71 -80 0 -122
61 -82 118 28 40 76 51 133 31z m-946 -341 c23 -130 78 -541 73 -545 -3 -3
-24 -9 -46 -13 l-41 -8 -85 170 c-47 94 -87 169 -89 167 -2 -2 8 -76 21 -164
13 -88 23 -167 24 -176 0 -12 -12 -18 -42 -22 -24 -3 -43 -5 -44 -4 -5 5 -84
580 -81 583 2 2 25 5 52 6 l49 3 80 -172 c44 -95 82 -171 83 -169 2 2 -9 83
-23 181 -29 195 -30 195 32 195 28 0 32 -4 37 -32z m-503 -92 l0 -42 -76 -11
c-41 -6 -77 -13 -79 -15 -2 -2 1 -37 7 -77 l11 -73 57 7 c54 6 58 5 63 -17 16
-57 11 -65 -48 -74 -31 -5 -56 -12 -57 -17 0 -4 3 -39 6 -78 l7 -72 42 6 c23
3 60 9 83 13 l41 6 6 -43 c3 -24 4 -45 2 -47 -3 -3 -249 -41 -251 -38 -1 0
-16 118 -33 261 -18 143 -34 274 -37 291 l-6 31 124 20 c67 11 126 18 131 16
4 -2 7 -23 7 -47z m-502 -56 c41 -25 58 -65 67 -156 6 -60 4 -76 -13 -111 -25
-48 -56 -70 -112 -79 l-42 -7 5 -51 c3 -28 9 -79 13 -112 l6 -62 -43 -4 c-24
-3 -45 -4 -46 -4 -2 1 -63 549 -63 568 0 12 15 19 63 26 98 15 130 13 165 -8z
m-479 -64 c52 -27 61 -54 82 -254 22 -208 19 -239 -28 -284 -33 -31 -95 -48
-138 -37 -17 5 -43 21 -58 37 -32 33 -39 69 -58 289 -11 129 -11 146 5 180 33
74 123 106 195 69z m2253 -803 c27 -24 24 -87 -4 -107 -49 -35 -118 -4 -118
53 0 57 79 93 122 54z m-1327 -476 c33 -28 57 -110 43 -149 -15 -41 -38 -55
-107 -62 -35 -3 -66 -8 -69 -10 -6 -7 16 -43 43 -70 14 -14 25 -31 25 -39 0
-32 -78 -75 -99 -54 -8 8 -11 7 -11 -3 0 -10 -9 -5 -25 12 -27 30 -32 53 -12
61 14 6 -30 46 -51 47 -8 0 -12 9 -10 23 2 16 -5 26 -26 37 -23 12 -33 26 -42
64 -22 86 15 120 123 113 64 -4 70 -3 101 24 40 35 81 37 117 6z"/>
<path d="M1682 1753 c-23 -4 -23 -6 -16 -86 3 -45 8 -85 11 -89 9 -16 60 -7
78 12 15 16 17 30 11 82 -4 42 -12 67 -23 76 -17 12 -21 13 -61 5z"/>
<path d="M1202 1678 c-7 -7 -12 -32 -12 -57 1 -85 29 -312 41 -327 14 -17 51
-18 67 -2 7 7 12 32 12 58 0 79 -30 313 -41 327 -14 16 -51 17 -67 1z"/>
<path d="M26 3074 c-10 -25 -7 -174 3 -174 6 0 13 5 16 10 5 8 11 7 21 -1 11
-9 14 -8 14 5 0 12 10 16 40 16 32 0 40 4 40 18 0 9 9 23 20 30 11 7 20 18 20
25 0 16 -38 49 -42 36 -2 -6 -16 -5 -37 2 -26 9 -38 9 -53 0 -15 -9 -20 -8
-24 3 -9 23 5 39 22 25 11 -9 14 -8 14 5 0 21 -46 22 -54 0z"/>
<path d="M20 2850 c-16 -10 -23 -60 -10 -75 13 -16 105 -10 128 8 10 8 16 7
22 -2 6 -10 13 -8 30 9 13 13 29 20 41 17 26 -7 34 10 15 29 -14 13 -22 14
-52 4 -26 -9 -42 -9 -58 -2 -24 12 -102 20 -116 12z"/>
</g>
</svg>
