<?xml version="1.0" standalone="no"?>
<!DOCTYPE svg PUBLIC "-//W3C//DTD SVG 20010904//EN"
 "http://www.w3.org/TR/2001/REC-SVG-20010904/DTD/svg10.dtd">
<svg version="1.0" xmlns="http://www.w3.org/2000/svg"
 width="500.000000pt" height="335.000000pt" viewBox="0 0 500.000000 335.000000"
 preserveAspectRatio="xMidYMid meet">
<metadata>
Created by potrace 1.15, written by Peter Selinger 2001-2017
</metadata>
<g transform="translate(0.000000,335.000000) scale(0.100000,-0.100000)"
fill="#000000" stroke="none">
<path d="M1266 3333 c-4 -9 -7 -76 -7 -149 0 -110 -2 -133 -15 -138 -26 -10
-47 -7 -66 11 -15 14 -18 14 -18 1 0 -8 -9 -27 -21 -42 -18 -23 -19 -29 -8
-61 9 -24 21 -37 36 -40 13 -3 33 -7 46 -10 12 -2 46 -20 75 -39 56 -38 72
-33 53 16 -5 14 -7 29 -4 32 3 3 1 11 -5 19 -13 15 -5 57 13 72 8 7 14 45 16
103 4 88 3 94 -20 111 -21 16 -23 23 -16 57 4 21 11 42 17 45 19 12 -3 29 -37
29 -21 0 -35 -6 -39 -17z"/>
<path d="M1500 3339 c0 -4 5 -11 10 -14 6 -3 10 -23 10 -44 0 -39 -23 -71 -50
-71 -11 0 -11 -3 -2 -12 8 -8 12 -45 12 -100 0 -70 3 -90 15 -94 17 -7 20 -35
4 -51 -17 -17 -20 -83 -3 -83 18 0 32 -35 44 -109 5 -31 12 -70 16 -87 4 -20
0 -42 -10 -62 -10 -19 -18 -65 -20 -114 -2 -46 -7 -95 -11 -110 -4 -17 3 -57
19 -112 25 -81 28 -86 54 -86 43 0 56 13 48 51 -3 18 -13 41 -22 50 -9 10 -14
26 -11 36 4 16 5 16 13 -3 l9 -22 18 24 c18 24 18 24 -7 24 -29 0 -46 25 -46
68 0 31 26 62 53 62 10 0 17 8 17 18 0 10 7 27 15 38 22 29 18 53 -11 64 -14
6 -30 7 -36 4 -17 -11 -28 18 -28 74 0 53 0 53 22 38 27 -19 38 -20 38 -4 0 6
7 20 17 30 15 17 15 19 0 36 -21 23 -21 41 -1 64 14 14 14 20 4 33 -19 23 -26
19 -38 -23 -8 -26 -18 -38 -32 -39 -12 -1 -20 4 -20 13 0 17 -40 74 -52 74 -4
0 -8 -7 -8 -15 0 -9 -6 -12 -15 -9 -9 4 -15 19 -15 36 0 27 2 29 33 23 33 -6
34 -5 56 45 18 43 25 49 37 40 8 -7 14 -21 14 -32 0 -11 5 -16 10 -13 6 4 10
12 9 18 -3 26 2 37 16 37 8 0 15 4 15 9 0 5 -7 14 -15 21 -12 10 -15 40 -15
152 l0 139 -80 -2 c-44 -1 -80 -5 -80 -10z"/>
<path d="M2220 3312 c0 -47 6 -54 35 -40 20 9 29 6 55 -16 18 -14 36 -24 41
-20 12 7 49 84 49 101 0 10 -22 13 -90 13 l-90 0 0 -38z"/>
<path d="M2597 3305 l-37 -42 39 7 c22 4 55 16 75 28 29 17 41 19 65 11 16 -6
31 -19 34 -30 3 -11 11 -17 19 -14 9 4 33 -11 58 -35 23 -22 48 -41 54 -41 41
-6 52 -2 68 26 9 17 17 36 18 44 0 8 11 29 25 47 14 18 25 35 25 38 0 10 -298
7 -305 -3 -3 -6 -18 -6 -38 0 -49 14 -59 10 -100 -36z"/>
<path d="M3483 3335 c13 -9 17 -20 12 -35 -4 -14 -1 -28 10 -40 17 -19 21 -42
17 -118 -2 -53 -17 -47 -26 10 -5 29 -10 38 -15 29 -5 -7 -13 -11 -19 -7 -6 3
-19 -5 -30 -19 -21 -27 -47 -25 -54 3 -6 23 -57 27 -65 6 -3 -9 3 -22 18 -32
25 -17 27 -18 72 -20 21 -2 27 -7 27 -25 0 -13 7 -32 15 -43 8 -10 15 -27 15
-36 0 -13 8 -18 32 -18 19 0 41 -9 55 -22 13 -12 23 -17 23 -11 0 7 16 17 35
23 49 16 44 25 -12 23 -27 -2 -58 -1 -70 2 -29 7 -30 40 -2 56 14 7 19 17 16
30 -4 15 0 19 24 19 22 0 29 5 29 20 0 11 4 20 9 20 5 0 17 7 25 16 12 11 13
20 6 34 -13 25 -13 57 1 62 6 2 11 17 11 33 0 17 5 36 10 43 8 9 -11 12 -88
12 -87 -1 -97 -2 -81 -15z"/>
<path d="M3860 3344 c-70 -11 -98 -24 -102 -49 -3 -14 -1 -25 3 -25 5 0 9 -11
9 -25 0 -25 14 -33 25 -15 3 5 12 7 20 3 10 -3 15 1 15 15 0 26 18 38 26 18 3
-8 21 -22 40 -31 19 -9 34 -22 34 -30 0 -8 8 -15 18 -16 27 -1 -35 -17 -80
-21 -26 -1 -43 2 -46 10 -2 7 7 13 25 13 17 1 8 5 -22 9 -39 6 -60 3 -93 -11
-40 -17 -42 -19 -30 -44 11 -24 76 -65 103 -65 6 0 17 9 25 20 16 23 42 27 34
6 -7 -18 42 -27 74 -13 22 10 22 12 5 18 -15 7 -15 8 6 8 17 1 22 5 17 17 -3
9 3 28 13 43 11 15 22 50 24 77 3 27 8 59 12 72 7 21 6 22 -61 21 -38 -1 -80
-3 -94 -5z"/>
<path d="M4263 3314 c-1 -29 -10 -46 -47 -83 -25 -26 -46 -52 -46 -59 0 -29
-48 -62 -90 -62 -22 0 -40 -4 -40 -9 0 -14 41 -41 62 -41 19 0 27 -10 33 -40
3 -15 -2 -20 -17 -20 -12 0 -19 -3 -15 -6 3 -3 39 -8 79 -10 88 -5 135 -19
148 -44 16 -30 12 -85 -8 -103 -25 -23 -34 -21 -66 8 -28 26 -46 25 -80 -7
-19 -17 -18 -18 42 -18 69 0 83 -14 25 -24 -44 -7 -192 -61 -205 -74 -6 -6 2
-8 19 -5 22 4 25 2 13 -6 -21 -15 -4 -14 87 5 41 8 92 24 112 35 43 23 71 25
71 4 0 -8 -7 -15 -15 -15 -8 0 -15 -4 -15 -9 0 -5 32 -2 71 7 56 12 75 13 90
4 12 -8 19 -8 19 -2 0 31 52 -11 267 -216 232 -219 260 -240 238 -171 -4 12
-55 67 -114 122 -222 209 -331 315 -331 324 0 5 -14 21 -31 35 -17 14 -27 26
-22 26 5 0 15 -6 23 -12 8 -7 6 -3 -4 10 -31 36 -10 38 24 2 16 -18 30 -33 30
-34 0 -6 105 -109 195 -191 81 -75 97 -85 92 -63 -4 15 -3 29 2 32 17 11 59
-59 53 -89 -1 -6 19 -31 44 -55 l46 -45 -7 105 c-4 58 -11 111 -17 117 -7 9
-6 20 6 38 19 29 21 41 4 27 -16 -12 -78 -4 -79 12 -1 6 -4 22 -6 36 -8 47 -5
72 11 88 14 14 17 12 31 -21 8 -20 15 -43 15 -51 0 -14 24 -29 33 -19 3 2 -3
30 -14 61 -19 55 -19 56 1 77 19 20 20 35 20 243 l0 222 -30 0 c-31 0 -33 -3
-44 -53 -7 -30 -109 -133 -115 -116 -2 6 -11 -3 -21 -19 -16 -26 -22 -29 -52
-23 l-33 7 2 74 c1 41 3 86 5 100 l3 25 -226 3 -225 2 -1 -36z"/>
<path d="M768 3203 c-16 -8 -28 -20 -28 -28 0 -7 -16 -19 -35 -25 -42 -14 -44
-16 -61 -88 -19 -82 -19 -83 16 -71 27 10 30 15 30 57 0 58 10 73 41 69 17 -3
25 -12 30 -33 5 -27 41 -73 81 -103 14 -10 22 -9 47 10 41 30 39 54 -7 83 -56
35 -76 70 -63 108 6 17 11 33 11 34 0 9 -37 1 -62 -13z"/>
<path d="M2526 3190 c-36 -7 -86 -49 -86 -72 0 -4 -8 -9 -17 -12 -20 -6 -43
-49 -43 -78 0 -24 61 -25 97 -1 25 16 26 16 44 -5 10 -13 28 -25 40 -27 12 -2
32 -11 46 -20 13 -9 32 -15 42 -13 10 2 25 -3 34 -11 14 -11 18 -11 23 2 3 9
1 24 -5 35 -6 11 -10 32 -11 48 0 16 0 45 0 64 0 68 -71 106 -164 90z"/>
<path d="M488 3164 c-12 -11 5 -42 25 -50 18 -6 14 -8 -20 -11 -35 -3 -43 -8
-43 -24 0 -10 -5 -19 -10 -19 -13 0 -9 -32 4 -42 6 -4 0 -15 -12 -25 -13 -10
-28 -29 -35 -43 -8 -16 -23 -26 -40 -28 -31 -4 -34 -14 -11 -33 24 -20 51 -79
58 -130 7 -49 33 -93 42 -72 3 7 15 27 27 45 32 47 32 84 1 116 l-26 27 6 -32
c4 -25 2 -33 -9 -33 -36 0 -43 93 -10 126 7 8 11 22 9 31 -4 13 6 24 32 38 21
11 41 19 45 18 14 -5 38 34 44 72 7 39 5 41 -29 58 -41 19 -41 19 -48 11z"/>
<path d="M112 3124 c-29 -18 -56 -34 -60 -34 -20 0 -52 -48 -52 -78 0 -43 16
-48 108 -30 68 12 78 17 95 45 16 28 17 37 6 75 -12 39 -25 58 -39 57 -3 0
-29 -16 -58 -35z"/>
<path d="M2144 3115 c-9 -14 -24 -25 -33 -25 -41 0 -31 -33 25 -82 19 -17 34
-39 34 -49 0 -11 7 -22 15 -25 8 -4 15 -12 15 -19 0 -6 9 -20 20 -30 11 -10
20 -25 20 -34 0 -30 17 -42 67 -47 l49 -4 -4 58 c-4 54 -2 60 17 65 22 5 29
31 11 42 -5 3 -10 14 -10 23 0 29 -37 52 -81 52 -46 0 -84 31 -76 61 4 15 -22
39 -43 39 -5 0 -17 -11 -26 -25z"/>
<path d="M2795 3037 c5 -23 7 -58 6 -78 -1 -22 5 -41 14 -49 8 -7 15 -21 15
-32 0 -11 10 -30 22 -43 21 -22 22 -22 42 -4 11 11 27 19 36 19 9 0 20 13 25
31 7 22 23 38 52 54 44 23 46 35 7 35 -24 0 -64 47 -57 67 5 14 -44 29 -116
37 l-53 5 7 -42z"/>
<path d="M605 2960 c-9 -10 -21 -35 -27 -56 -5 -21 -21 -52 -34 -67 -13 -16
-24 -38 -23 -50 1 -38 52 -120 84 -136 17 -8 37 -18 46 -22 9 -4 21 -3 27 3 6
6 21 16 34 22 19 9 24 21 26 64 l3 52 -31 0 c-39 0 -45 15 -31 92 8 47 8 67
-2 87 -15 31 -49 36 -72 11z"/>
<path d="M223 2855 c-3 -9 -3 -42 1 -73 3 -31 2 -73 -2 -92 -12 -48 -6 -60 33
-60 35 0 61 -22 50 -40 -5 -8 -24 -9 -56 -5 -39 5 -48 4 -44 -7 9 -24 -32 -77
-67 -86 -37 -9 -50 -41 -52 -130 -1 -40 -6 -56 -19 -63 -9 -6 -20 -8 -25 -6
-4 3 -4 124 -1 269 5 259 3 288 -27 288 -11 0 -13 -66 -14 -365 0 -201 3 -365
6 -365 3 0 17 9 31 20 29 23 51 17 31 -8 -49 -59 -68 -153 -68 -328 0 -84 3
-159 6 -168 5 -12 21 -16 73 -16 37 0 71 4 77 9 18 16 112 42 135 36 13 -3 94
-7 179 -9 85 -3 166 -8 178 -12 24 -7 24 -6 17 52 -4 32 -13 62 -19 66 -8 5
-7 11 2 20 9 9 15 9 23 1 9 -9 16 -9 30 0 23 15 48 -5 32 -25 -5 -7 -15 -31
-22 -53 -10 -33 -10 -45 2 -67 13 -25 16 -26 33 -13 27 20 48 19 39 -2 -4 -10
-8 -25 -9 -33 -2 -8 -11 -17 -21 -18 -9 -2 -15 0 -11 6 3 5 -5 13 -18 16 -19
5 -23 11 -19 28 4 22 4 23 -11 4 -20 -25 -21 -66 -1 -66 17 0 20 -16 5 -25
-22 -14 -9 -46 30 -71 22 -15 40 -29 40 -31 0 -6 -49 2 -72 11 -13 6 -17 3
-15 -13 1 -12 10 -22 25 -26 21 -5 21 -7 7 -21 -14 -14 -23 -15 -75 -3 -33 7
-60 17 -60 22 0 5 7 7 15 3 8 -3 18 1 22 8 5 7 18 19 31 25 15 8 22 20 20 33
-2 17 -17 25 -68 39 -36 10 -66 18 -67 19 -10 1 0 -30 12 -40 14 -12 13 -16
-6 -37 -13 -12 -19 -23 -15 -23 4 0 0 -7 -8 -16 -18 -17 -21 -34 -7 -34 6 0 9
-9 8 -19 -1 -17 -4 -18 -17 -8 -8 7 -18 17 -22 22 -7 10 -12 11 -44 14 -13 1
-15 8 -10 31 7 36 -17 42 -34 10 -6 -11 -17 -20 -25 -20 -19 0 -24 42 -6 56
12 9 11 12 -5 16 -11 3 -28 1 -39 -3 -11 -4 -14 -8 -7 -8 20 -1 14 -17 -12
-29 -27 -12 -42 -70 -19 -79 18 -7 17 -43 -2 -43 -9 0 -15 -9 -15 -23 0 -12
-6 -31 -14 -42 -7 -11 -16 -29 -19 -40 -2 -11 -5 0 -5 25 -1 25 5 62 12 82 16
43 11 54 -14 30 -24 -24 -38 -71 -46 -156 -5 -53 -3 -75 6 -81 9 -5 10 -2 5
15 -6 19 -4 21 17 18 14 -2 29 -15 39 -36 17 -38 35 -52 66 -52 35 0 37 -18 4
-38 -31 -19 -33 -36 -3 -24 14 5 15 4 2 -10 -11 -11 -21 -13 -38 -7 -34 13
-63 35 -76 57 -6 10 -21 34 -33 52 -25 38 -24 68 8 208 10 46 19 87 19 92 0 5
-13 11 -29 15 -33 7 -51 43 -51 101 0 47 -17 51 -51 13 -24 -28 -28 -40 -24
-69 4 -19 10 -69 14 -110 5 -41 13 -91 20 -110 6 -19 11 -58 11 -86 0 -43 6
-58 36 -98 30 -40 35 -53 31 -82 -3 -20 0 -49 9 -69 18 -44 19 -71 1 -58 -6 6
-35 16 -64 23 -29 6 -57 18 -63 25 -14 17 -3 38 16 31 26 -10 14 13 -13 28
l-28 14 25 10 c14 6 45 15 70 20 l45 10 -47 1 c-52 1 -68 17 -68 69 0 16 -7
35 -15 42 -13 11 -15 -7 -14 -153 l0 -166 37 3 c20 2 45 7 56 11 17 8 17 9 -3
20 -20 10 -19 11 13 12 22 1 41 -6 52 -18 21 -24 93 -26 154 -4 56 20 57 20
52 -14 -4 -26 -1 -30 30 -36 18 -4 51 -16 72 -26 22 -11 44 -19 49 -19 5 0 7
20 6 44 -4 68 14 87 91 95 58 5 65 8 62 26 -5 26 -22 46 -33 39 -5 -3 -9 2 -9
10 0 26 23 18 52 -16 21 -26 26 -28 22 -12 -3 12 -1 25 5 28 7 5 1 17 -17 32
-15 14 -20 23 -12 20 8 -3 23 -9 33 -12 9 -4 17 -10 17 -15 0 -5 25 -8 55 -8
31 1 59 -1 62 -5 3 -3 -5 -6 -19 -6 l-26 0 26 -30 c26 -30 55 -39 67 -20 3 5
8 26 10 47 3 21 8 61 11 88 4 28 8 94 8 147 l1 97 47 48 47 48 3 83 c3 70 0
86 -15 96 -21 16 -22 45 -2 52 9 4 15 19 15 41 0 19 7 48 16 65 l16 31 70 -6
c69 -6 108 -25 108 -52 0 -6 17 -17 38 -23 l37 -11 -38 4 c-34 3 -39 1 -51
-28 -12 -30 -11 -32 8 -37 29 -8 31 -33 4 -45 -20 -9 -24 -20 -28 -75 -8 -94
-3 -110 46 -164 24 -27 44 -54 44 -60 0 -22 -21 -86 -28 -86 -14 0 -32 24 -32
42 0 10 -9 26 -20 35 -11 10 -20 21 -20 25 0 21 -65 108 -81 108 -29 0 -31
-17 -3 -24 32 -8 26 -28 -12 -41 -16 -5 -36 -14 -44 -20 -8 -5 -22 -10 -30
-11 -8 -1 -22 -2 -30 -3 -33 -3 -43 -55 -31 -172 1 -11 39 -17 48 -8 10 10 43
2 43 -10 0 -3 -5 -13 -10 -21 -8 -12 -14 -13 -41 -3 -35 14 -53 8 -45 -13 3
-7 1 -16 -5 -20 -16 -9 10 -33 32 -29 10 2 23 6 28 10 5 3 15 -1 23 -8 14 -15
70 -16 102 -2 13 6 21 3 28 -8 5 -10 18 -17 30 -17 14 0 18 -5 14 -15 -3 -10
1 -15 13 -15 32 0 44 -25 36 -76 -5 -34 -2 -52 10 -71 14 -21 15 -27 4 -34
-11 -7 -12 -12 -2 -27 6 -11 8 -23 3 -28 -5 -5 -9 -36 -10 -69 -3 -114 -3
-113 36 -130 43 -18 122 -20 174 -4 36 11 38 13 33 46 -3 19 0 44 7 58 16 30
5 79 -15 71 -51 -21 -49 -23 -41 30 5 27 8 59 7 72 0 12 4 22 9 22 6 0 10 7
10 16 0 12 7 15 25 12 19 -4 25 -1 25 13 0 10 -4 20 -9 23 -5 3 -9 21 -9 38 1
18 -1 40 -3 48 -3 10 5 16 25 18 18 2 30 11 33 23 3 10 9 19 14 19 17 0 9 -35
-11 -53 -28 -23 -25 -33 10 -40 16 -4 30 -10 30 -15 0 -5 -11 -7 -24 -5 -26 5
-39 -20 -29 -57 8 -31 102 -21 163 18 9 6 -25 22 -47 22 -29 0 -30 26 -2 33
12 3 18 10 14 17 -5 8 -10 8 -20 0 -22 -19 -27 5 -20 99 7 85 7 89 -14 96 -13
4 -28 1 -36 -5 -12 -10 -15 -9 -15 4 0 9 -8 16 -20 16 -27 0 -25 14 5 30 19
10 30 11 50 2 32 -15 75 -15 75 -1 0 5 -5 7 -11 3 -8 -5 -10 41 -7 169 2 121
0 171 -7 159 -5 -9 -11 -35 -12 -57 -1 -22 -8 -61 -15 -87 -13 -44 -15 -46
-26 -27 -8 12 -11 33 -7 50 4 17 2 36 -5 44 -7 9 -8 15 0 20 5 3 10 20 10 36
0 16 6 45 14 64 9 21 11 37 5 40 -5 4 -9 17 -9 29 0 16 -7 26 -21 29 -15 4
-20 11 -16 21 4 9 3 16 -2 16 -5 0 -12 12 -15 26 -5 19 -10 24 -17 17 -7 -7
-2 -29 16 -68 26 -59 26 -85 -2 -116 -18 -21 -52 -164 -43 -179 9 -15 60 -41
69 -35 4 2 5 -9 3 -26 -5 -36 -16 -43 -41 -29 -13 7 -22 7 -26 0 -10 -16 -45
-12 -45 5 0 8 9 20 20 27 28 18 25 35 -10 56 -27 17 -28 20 -15 39 19 27 11
33 -51 33 -51 0 -52 1 -72 41 -21 42 -20 69 2 69 8 0 10 14 6 48 -4 39 -9 48
-27 50 -29 4 -30 22 -3 22 11 0 23 7 26 15 11 27 -16 45 -66 45 -46 0 -48 1
-53 33 -2 18 1 36 7 40 6 5 46 6 89 3 89 -5 99 2 78 61 -12 32 -11 37 13 62
15 15 26 39 26 53 0 15 5 30 10 33 6 3 10 22 10 41 0 24 8 43 26 61 33 33 25
39 -19 13 -21 -12 -44 -19 -55 -16 -10 4 -39 -1 -63 -9 -24 -9 -57 -14 -74
-11 -25 4 -35 -1 -58 -30 l-29 -34 26 0 c14 0 37 5 51 12 18 8 29 8 36 1 8 -8
5 -13 -10 -18 -12 -3 -26 -15 -31 -26 -6 -10 -17 -19 -25 -19 -9 0 -15 -10
-15 -25 0 -14 -4 -25 -9 -25 -5 0 -30 -20 -55 -45 -26 -25 -54 -45 -62 -45
-19 0 -18 -19 1 -26 31 -12 14 -27 -25 -21 -22 3 -61 -1 -87 -9 -53 -16 -203
-19 -203 -4 0 6 7 10 15 10 8 0 19 9 25 20 6 11 20 20 32 20 21 0 21 0 2 -15
-17 -13 -11 -14 66 -11 47 3 92 6 100 8 56 13 -12 48 -107 55 -40 3 -73 10
-73 14 0 5 35 9 78 9 42 0 83 4 91 9 16 10 6 31 -15 31 -8 0 -12 4 -9 10 3 5
-3 15 -15 22 -11 7 -20 18 -20 25 0 7 -12 13 -27 13 -21 0 -24 3 -14 9 15 10
-1 16 -57 23 -29 4 -34 22 -7 26 49 7 65 13 60 22 -10 15 -61 12 -75 -5 -7 -8
-18 -15 -24 -15 -33 -1 -116 -147 -116 -205 0 -37 -17 -30 -30 11 -18 52 -8
199 16 247 18 38 18 38 -5 83 -14 26 -45 60 -75 81 -72 52 -84 76 -47 88 21 6
31 47 33 130 2 49 1 50 -29 53 -18 2 -37 10 -43 18 -15 17 -34 18 -59 3 -15
-10 -22 -8 -37 8 -29 29 -63 102 -75 158 -5 27 -14 54 -19 60 -4 5 -13 29 -19
53 -11 39 -14 42 -47 42 -22 0 -37 -6 -41 -15z m186 -366 c7 -22 14 -76 17
-118 3 -71 2 -79 -19 -97 -12 -11 -39 -26 -60 -33 -52 -17 -65 -5 -49 46 13
42 2 64 -21 44 -20 -16 -33 3 -39 54 -6 51 6 85 31 85 28 0 51 10 51 23 0 19
54 56 66 46 6 -5 16 -27 23 -50z m-145 -436 c56 -65 105 -220 76 -238 -21 -13
-9 -25 30 -31 22 -4 43 -11 47 -17 8 -14 -66 -3 -135 19 l-53 18 33 11 c18 6
32 16 31 22 -4 22 -12 89 -12 114 -1 14 -16 46 -35 70 -65 85 -50 112 18 32z"/>
<path d="M2510 2830 c0 -13 22 -53 35 -62 6 -4 21 -8 34 -8 23 0 23 -1 8 -18
-10 -10 -17 -35 -17 -55 0 -28 -8 -46 -37 -77 l-36 -41 12 -57 c7 -31 24 -106
38 -167 13 -60 31 -141 40 -180 9 -38 24 -80 33 -93 10 -12 21 -44 25 -71 9
-66 28 -72 73 -26 l35 36 41 -44 c23 -24 51 -47 63 -51 27 -9 34 -27 23 -63
-5 -15 -9 -20 -9 -10 -1 27 -21 20 -21 -8 0 -28 41 -61 65 -51 8 3 15 14 15
25 0 20 32 37 50 26 6 -3 8 -16 4 -29 -3 -14 1 -27 10 -35 31 -26 8 -81 -24
-61 -8 6 -18 10 -22 10 -13 0 -30 -72 -24 -101 3 -16 1 -29 -4 -29 -5 0 -7
-13 -3 -30 5 -26 2 -30 -15 -30 -11 0 -23 8 -25 18 -4 15 -5 15 -6 0 -1 -10
-11 -18 -28 -20 -17 -2 -27 -8 -25 -16 1 -8 -7 -16 -18 -19 -11 -3 -20 -12
-20 -19 0 -9 -12 -14 -33 -14 -18 0 -42 -7 -53 -15 -19 -15 -19 -15 0 -30 32
-24 106 -17 106 10 0 20 23 24 97 18 65 -5 67 -4 48 12 -17 14 -17 16 -2 11
12 -4 17 0 17 14 0 20 -9 24 -44 20 -17 -2 -17 0 -5 13 9 8 40 18 70 22 35 5
58 14 67 26 7 11 22 19 32 19 19 0 28 -10 75 -83 27 -41 34 -82 12 -74 -7 3
-21 -1 -32 -9 -18 -13 -18 -14 4 -14 28 0 19 -16 -13 -22 -16 -3 -27 0 -31 10
-3 8 -12 12 -21 8 -8 -3 -22 1 -31 10 -24 24 -28 8 -4 -22 11 -15 21 -33 21
-40 0 -8 4 -14 9 -14 5 0 14 -14 20 -30 13 -39 22 -38 45 5 23 42 99 115 120
115 29 0 115 -72 273 -228 51 -49 84 -64 98 -42 7 12 66 -26 94 -61 10 -13 36
-56 57 -94 20 -39 52 -89 71 -112 18 -23 33 -45 33 -50 0 -5 15 -27 34 -49 19
-22 49 -69 67 -105 23 -46 60 -91 130 -161 104 -103 106 -107 112 -218 2 -54
2 -55 31 -52 l29 4 -6 -70 c-5 -58 -3 -71 9 -74 12 -2 11 -12 -10 -51 -14 -26
-26 -50 -26 -53 0 -2 87 -4 194 -4 146 0 196 3 200 13 5 9 7 9 12 0 4 -10 49
-13 175 -13 l169 0 0 998 c-1 894 -3 994 -16 969 -19 -34 -48 -32 -52 4 -3 28
31 79 54 79 9 0 14 12 14 36 0 33 -2 36 -22 30 -13 -4 -52 -13 -87 -22 -73
-17 -117 -38 -123 -56 -3 -8 -9 -5 -17 10 -11 21 -41 31 -41 13 0 -5 -9 -7
-21 -4 -15 4 -17 8 -8 14 10 6 10 11 0 23 -16 19 -1 22 17 4 7 -7 12 -8 12 -2
0 6 -9 19 -21 30 -17 16 -22 16 -30 4 -8 -12 -9 -10 -4 6 3 14 0 24 -9 27 -9
4 -12 0 -10 -11 5 -21 -12 -49 -23 -39 -4 5 -1 12 6 17 11 6 -7 28 -70 88 -52
50 -88 77 -93 71 -16 -15 -30 -10 -17 5 10 11 1 24 -41 64 -59 56 -103 92
-112 92 -22 0 125 -166 190 -215 47 -35 68 -55 58 -55 -3 0 -1 -7 6 -15 7 -8
16 -12 21 -10 4 3 15 -7 23 -23 8 -16 30 -39 48 -52 l33 -22 -33 6 c-19 3 -50
19 -70 36 -20 16 -44 30 -54 30 -10 0 -98 78 -195 174 -98 95 -193 186 -212
202 -33 28 -34 28 -18 4 9 -14 16 -29 16 -35 1 -20 73 -103 173 -201 57 -55
110 -109 118 -119 14 -16 13 -17 -7 -11 -58 18 -144 29 -333 40 -81 5 -90 4
-91 -12 0 -13 -3 -12 -11 6 -17 34 -27 26 -16 -12 10 -32 12 -34 72 -38 34 -3
79 -14 101 -26 41 -20 110 -100 180 -205 38 -58 38 -59 18 -78 -15 -16 -24
-18 -44 -10 -21 8 -22 10 -6 16 22 9 21 14 -8 48 -19 21 -29 26 -42 19 -24
-12 -43 -4 -43 18 0 10 -4 21 -8 24 -19 11 -4 -32 21 -65 15 -20 27 -46 27
-57 0 -12 5 -42 12 -66 9 -34 19 -47 44 -59 17 -9 34 -13 37 -11 3 3 3 23 0
45 -7 50 9 69 57 69 48 0 70 -8 70 -27 0 -8 7 -28 16 -46 19 -36 22 -193 5
-210 -8 -8 -11 -3 -11 16 0 14 -10 35 -22 47 -14 13 -17 20 -8 20 11 0 11 3 2
12 -10 10 -14 10 -21 0 -6 -9 -15 -10 -39 -1 -18 6 -29 16 -25 22 3 5 1 7 -4
4 -14 -9 -74 3 -68 13 2 3 -2 7 -10 7 -31 0 -13 -27 26 -38 29 -9 53 -28 90
-72 54 -65 64 -91 55 -141 -5 -25 -21 -45 -67 -81 -33 -26 -57 -51 -52 -56 4
-4 35 -11 68 -16 l60 -8 -3 -60 c-1 -33 -5 -85 -8 -115 -7 -66 -11 -116 -19
-235 -4 -49 -8 -92 -11 -96 -2 -3 -6 -46 -10 -95 -3 -49 -10 -97 -15 -106 -5
-9 -6 -37 -3 -62 8 -54 -4 -60 -35 -18 -62 81 -64 83 -72 71 -10 -17 -33 2
-54 44 -24 48 -79 117 -91 113 -5 -2 -23 18 -38 46 -17 30 -33 47 -41 44 -36
-13 -239 276 -274 390 -10 32 -25 75 -34 94 -35 79 -56 130 -51 130 2 0 18
-15 34 -32 16 -18 30 -28 30 -21 0 23 -43 96 -61 100 -17 5 -29 42 -29 90 0
13 -9 41 -20 63 -11 22 -20 50 -20 63 0 14 -7 30 -15 37 -12 10 -15 30 -13 84
2 39 7 70 12 69 5 -1 18 -23 27 -49 10 -26 26 -55 35 -63 15 -15 16 -14 9 4
-4 11 -11 36 -15 55 -4 19 -15 55 -25 80 -9 26 -14 59 -11 79 5 29 -20 155
-39 204 -12 28 -25 19 -14 -10 7 -18 6 -30 -1 -37 -7 -7 -10 -5 -10 7 0 10
-12 40 -26 68 -14 28 -23 53 -20 56 2 3 0 16 -5 30 -6 17 -6 30 2 39 8 10 2
22 -28 53 -58 62 -113 72 -284 56 -169 -17 -218 -28 -298 -68 -64 -32 -79 -49
-109 -127 -27 -69 -33 -80 -44 -80 -7 0 -19 10 -27 22 -12 19 -11 23 5 35 10
7 26 47 38 95 19 73 26 85 56 106 26 17 43 22 66 17 25 -4 38 0 62 20 16 14
34 25 39 25 6 0 18 9 28 20 10 11 24 20 32 20 7 0 13 10 13 23 0 13 5 28 11
34 6 6 8 20 4 32 -6 21 -83 100 -150 154 -19 16 -40 40 -47 55 -12 23 -19 25
-73 25 -42 1 -76 -7 -111 -23 l-52 -23 -37 36 c-37 36 -65 47 -65 27z m2152
-830 c-3 -25 -1 -29 12 -24 9 3 16 1 16 -5 0 -6 -3 -11 -7 -11 -5 0 -8 -67 -8
-150 0 -82 3 -150 8 -150 4 0 7 5 7 10 0 6 5 10 11 10 7 0 9 -10 5 -25 -4 -14
-2 -25 2 -25 5 0 9 -13 10 -30 0 -16 -4 -30 -9 -30 -5 0 -9 3 -10 8 -5 51 -18
65 -43 46 -11 -8 -14 -14 -8 -14 9 0 10 -12 6 -41 l-7 -40 48 2 c39 2 50 -1
65 -20 9 -14 20 -19 23 -14 4 6 -1 17 -11 26 -10 9 -19 31 -20 49 -4 44 18
130 31 125 15 -5 37 -102 35 -160 -3 -110 -1 -117 32 -117 17 0 30 5 30 10 0
14 28 12 33 -2 5 -17 -154 -70 -168 -57 -5 5 -16 9 -26 9 -15 0 -54 54 -101
137 -23 41 -23 79 -1 87 14 6 14 8 -5 22 -20 14 -22 23 -21 102 2 160 11 216
36 227 17 7 21 15 17 32 -6 22 1 43 15 43 4 0 6 -14 3 -30z m-87 -539 c-3 -3
3 -10 14 -15 27 -15 81 -85 81 -105 0 -18 -59 -63 -72 -55 -4 3 -8 11 -8 19 0
7 -17 28 -37 46 -37 32 -38 32 -41 11 -6 -39 -20 -24 -24 26 -3 32 0 50 9 55
7 4 13 16 13 27 0 16 4 17 35 7 19 -6 33 -13 30 -16z m13 -223 c5 -7 13 -28
17 -45 4 -23 12 -33 25 -33 24 0 77 -45 95 -80 8 -16 21 -34 29 -42 12 -12 11
-25 -6 -90 -19 -69 -23 -77 -49 -82 -21 -4 -31 -13 -38 -38 -9 -31 -9 -32 -10
-6 -1 25 -3 26 -33 17 -36 -10 -48 0 -48 39 0 26 -12 28 -51 5 -20 -12 -29
-25 -29 -44 0 -15 -12 -41 -28 -58 l-28 -32 3 53 c2 29 6 76 9 103 3 28 7 73
9 100 3 28 7 75 10 105 3 30 6 73 6 95 0 36 1 38 12 20 15 -25 119 -165 122
-165 10 0 -12 100 -27 125 -28 46 -20 89 10 53z m-125 -875 c13 -62 21 -117
17 -123 -9 -14 -68 34 -80 65 -6 16 12 266 21 295 1 3 5 -24 10 -60 5 -36 19
-115 32 -177z m329 76 c56 -29 83 -61 79 -93 -8 -78 -75 -152 -193 -212 -75
-38 -88 -41 -88 -19 0 8 -6 15 -14 15 -7 0 -18 6 -24 13 -9 10 0 19 41 39 106
52 185 146 171 203 -3 14 -22 41 -41 60 l-35 35 41 -15 c22 -7 50 -19 63 -26z"/>
<path d="M132 2821 c-15 -9 -18 -88 -7 -159 5 -31 3 -48 -7 -60 -8 -9 -22 -36
-31 -59 -15 -37 -15 -43 -2 -43 8 0 15 4 15 9 0 5 15 25 33 44 39 43 40 47 41
172 1 81 -2 100 -14 102 -8 2 -21 -1 -28 -6z"/>
<path d="M1072 2776 c-12 -24 -22 -54 -22 -67 0 -30 -5 -37 -58 -78 l-44 -34
5 -61 c10 -152 50 -236 118 -250 16 -3 29 -12 29 -20 0 -9 14 -19 33 -24 l32
-9 -40 -11 c-22 -7 -46 -12 -53 -12 -7 0 -18 -12 -24 -26 -10 -21 -9 -27 3
-34 16 -11 135 -4 189 10 19 5 48 12 63 15 42 9 27 28 -30 41 -63 14 -72 20
-70 44 1 15 9 20 29 20 20 0 31 8 43 30 16 32 33 38 53 18 26 -26 38 10 34 99
-2 35 -6 42 -24 45 -29 4 -35 34 -12 59 14 16 15 22 5 28 -11 7 -10 12 0 29
12 19 10 25 -19 55 -53 55 -113 80 -172 72 l-49 -7 6 56 c3 31 4 56 1 56 -2 0
-14 -20 -26 -44z"/>
<path d="M2040 2746 c-54 -29 -84 -60 -98 -103 -9 -28 -8 -34 7 -43 10 -5 21
-7 23 -4 3 2 18 -2 34 -11 16 -8 35 -15 42 -15 6 0 12 -5 12 -11 0 -5 4 -8 9
-5 5 3 12 -5 15 -19 4 -14 14 -25 22 -25 11 0 14 -5 9 -17 -16 -39 -15 -49 4
-70 l21 -22 -48 -7 c-61 -9 -90 -23 -71 -34 11 -7 10 -15 -4 -46 -17 -34 -17
-37 -1 -49 23 -16 133 -13 143 4 22 35 141 -53 141 -104 0 -48 -28 -103 -77
-153 -56 -57 -96 -78 -158 -84 -34 -3 -40 0 -43 18 -2 11 3 26 11 32 17 15 10
65 -8 58 -7 -2 -17 0 -24 7 -18 18 -51 -70 -44 -120 6 -48 -18 -139 -46 -174
-14 -17 -20 -19 -44 -10 -16 6 -32 9 -37 6 -5 -3 -11 1 -13 7 -4 10 -8 9 -16
-2 -7 -10 -7 -17 1 -21 5 -4 7 -17 4 -30 -3 -13 -3 -18 0 -11 3 6 10 12 15 12
6 0 8 -4 4 -9 -3 -5 -1 -12 4 -16 19 -11 121 -7 136 5 13 11 15 5 15 -43 0
-31 5 -59 10 -62 23 -14 6 -97 -29 -138 -11 -13 -17 -67 -25 -205 -10 -164
-14 -191 -32 -217 -74 -105 -137 -222 -135 -251 1 -18 -5 -37 -14 -44 -17 -14
-20 -40 -5 -40 6 0 16 11 22 25 6 14 22 32 35 40 22 15 32 36 16 34 -29 -5
-28 8 7 68 22 36 43 69 47 72 5 3 17 23 28 43 20 40 39 42 29 3 -5 -20 0 -26
30 -39 40 -16 55 -41 37 -59 -6 -6 -11 -21 -11 -33 0 -19 8 -24 56 -34 78 -16
125 -38 131 -60 5 -20 19 -24 98 -36 67 -9 73 -14 36 -31 -32 -16 -34 -34 -3
-28 9 2 39 7 65 10 46 6 48 8 33 24 -11 12 -16 36 -16 73 0 60 -17 80 -44 52
-9 -9 -32 -14 -61 -12 -48 1 -65 12 -47 30 6 6 8 24 5 39 -4 21 -1 30 11 35 9
4 20 3 24 -1 4 -4 1 -10 -5 -12 -9 -3 -11 -14 -7 -31 9 -36 24 -52 24 -25 0
27 16 39 73 53 34 9 47 17 47 31 0 21 -16 34 -25 19 -3 -5 0 -10 7 -10 7 -1
-5 -7 -27 -15 -28 -10 -41 -11 -46 -3 -4 6 -12 7 -19 3 -8 -5 -11 -3 -8 6 2 7
21 17 41 22 19 5 38 16 41 24 10 25 -1 27 -30 4 -15 -11 -37 -21 -50 -21 -34
0 -76 -41 -78 -76 -1 -29 -2 -30 -29 -16 -27 13 -28 32 -3 32 17 0 26 43 13
65 -6 12 -6 16 1 11 5 -3 12 0 15 8 8 21 -42 17 -53 -4 -5 -10 -6 -21 -2 -25
4 -4 -2 -5 -13 -3 -15 2 -20 11 -20 33 0 25 5 31 25 33 14 2 40 10 58 18 19 9
62 20 98 26 53 9 64 14 64 30 0 11 5 28 10 38 14 27 23 227 10 235 -6 3 -10
-4 -11 -17 -1 -23 -1 -23 -10 2 -7 20 -8 18 -4 -13 6 -53 -12 -196 -26 -213
-17 -21 -23 -10 -9 18 l12 23 -22 -23 c-26 -28 -41 -21 -16 7 33 36 46 117 41
252 -4 107 -3 128 10 133 10 4 15 -1 16 -17 4 -60 10 -86 27 -130 17 -46 20
-48 35 -32 10 9 18 34 18 58 l2 42 7 -49 c3 -28 12 -52 18 -54 7 -2 12 -12 12
-23 0 -10 5 -19 11 -19 6 0 9 12 7 28 -2 15 -8 26 -15 25 -7 -2 -13 4 -13 13
0 8 5 12 10 9 6 -3 10 0 10 7 1 7 7 0 15 -17 12 -27 13 -28 14 -7 1 27 9 28
27 5 23 -31 17 7 -10 58 -14 25 -28 70 -32 100 -4 30 -11 59 -16 65 -4 6 -8
46 -6 88 1 53 4 72 11 61 8 -15 11 -13 23 10 16 31 18 103 4 125 -8 12 -10 8
-11 -15 -1 -24 -4 -18 -17 28 -9 31 -20 57 -25 57 -4 0 -6 -8 -3 -17 3 -10 7
-52 10 -93 3 -41 3 -65 0 -52 -3 12 -9 22 -13 22 -4 0 -8 49 -8 109 0 84 -4
114 -17 132 -19 28 -21 46 -3 27 21 -21 33 -48 47 -106 7 -29 15 -51 18 -48 7
7 -36 239 -54 291 l-14 40 5 -45 c6 -44 5 -45 -10 -18 -26 46 -45 139 -45 223
0 57 -5 87 -16 103 -22 32 -37 28 -32 -9 4 -25 2 -30 -13 -26 -12 3 -16 0 -12
-9 3 -8 3 -14 0 -14 -8 0 -48 72 -43 77 2 3 9 -5 16 -16 6 -12 15 -19 20 -16
5 3 -4 30 -20 59 -35 64 -37 76 -10 51 20 -18 20 -18 6 16 -7 19 -17 45 -21
59 -7 24 -7 24 12 10 11 -8 3 0 -16 18 -75 70 -149 86 -221 48z m171 -125 c7
-19 9 -58 6 -89 -6 -53 14 -132 33 -132 4 0 13 -12 19 -27 6 -16 27 -39 46
-52 19 -13 35 -27 35 -32 0 -5 4 -9 9 -9 5 0 7 10 5 23 -3 13 2 9 11 -12 27
-57 14 -64 -32 -20 -24 22 -47 38 -52 35 -14 -9 -57 47 -76 99 -16 41 -19 44
-32 28 -12 -16 -14 -7 -12 72 3 130 2 134 -33 167 l-33 31 47 -24 c36 -18 50
-33 59 -58z"/>
<path d="M696 2549 c-9 -11 -22 -19 -30 -19 -22 0 -26 -26 -11 -64 10 -22 11
-37 5 -41 -7 -4 -7 -13 0 -25 5 -10 10 -33 10 -50 0 -17 6 -33 14 -36 8 -3 17
-16 20 -30 7 -27 26 -33 26 -8 0 8 -5 25 -12 37 -26 46 -44 116 -36 131 5 9 6
21 3 26 -10 16 1 12 40 -14 61 -42 78 -19 50 65 -12 34 -20 44 -39 45 -13 1
-31 -7 -40 -17z"/>
<path d="M3699 2198 c-16 -38 -14 -60 10 -108 10 -19 31 -74 46 -122 23 -74
34 -93 69 -123 69 -61 177 -136 186 -130 5 3 19 -8 32 -24 24 -30 95 -71 124
-71 15 0 16 9 11 67 -3 46 -10 71 -22 79 -10 7 -16 24 -15 41 3 48 1 52 -50
78 -57 29 -80 32 -80 9 0 -14 -8 -16 -46 -11 -26 2 -51 11 -55 18 -5 8 -8 38
-7 68 2 48 -1 55 -20 62 -19 7 -22 5 -22 -20 0 -28 -33 -81 -51 -81 -5 0 -9 9
-9 21 0 11 -4 18 -9 15 -5 -3 -12 6 -16 21 -4 17 -2 29 4 31 27 9 -1 152 -30
152 -4 0 -9 14 -12 30 -8 39 -21 38 -38 -2z"/>
<path d="M2629 1768 c-1 -7 -2 -20 -3 -28 0 -8 -9 -16 -19 -18 -16 -3 -17 -1
-7 18 17 32 6 34 -29 5 -28 -24 -45 -65 -21 -50 6 4 16 2 23 -3 7 -6 28 -12
47 -14 29 -2 36 -7 38 -29 3 -22 -3 -28 -38 -41 -24 -10 -40 -23 -40 -33 0 -9
-5 -13 -10 -10 -6 4 -8 10 -5 15 3 4 -2 10 -10 14 -8 3 -18 0 -21 -6 -4 -7 -2
-14 4 -16 15 -5 15 -35 0 -50 -6 -6 -9 -14 -6 -17 3 -3 24 12 46 33 28 27 42
35 46 26 9 -23 -16 -78 -48 -106 -17 -15 -25 -27 -18 -28 7 0 10 -4 7 -10 -3
-5 4 -10 15 -10 16 0 20 5 16 15 -3 8 -1 15 4 15 11 0 70 103 70 123 0 8 9 17
20 20 19 5 20 10 14 59 -8 67 -19 88 -46 88 -15 0 -19 5 -15 20 3 11 1 23 -4
26 -5 3 -10 -1 -10 -8z"/>
<path d="M2631 1057 c-8 -12 -17 -47 -20 -77 -3 -30 -10 -54 -16 -53 -5 2 -15
-12 -21 -30 -9 -26 -8 -34 5 -44 13 -10 14 -15 4 -31 -11 -18 -8 -22 21 -36
18 -9 71 -25 116 -35 46 -11 87 -26 92 -33 5 -7 6 -25 4 -40 -3 -16 -1 -28 4
-28 13 0 13 50 -1 89 -8 21 -24 38 -52 52 -38 20 -61 21 -114 4 -33 -11 -30
18 5 46 26 21 22 22 -25 2 -9 -4 -13 7 -13 36 0 34 3 41 20 41 24 0 26 13 5
30 -17 14 -19 57 -5 96 13 34 8 40 -9 11z"/>
<path d="M920 905 c-5 -6 -7 -15 -4 -18 4 -3 3 -27 -1 -52 -5 -35 -10 -45 -21
-41 -8 3 -14 -1 -14 -9 0 -14 -15 -20 -75 -29 -16 -2 -6 -3 24 -3 53 2 55 1
62 -28 4 -16 9 -63 12 -103 2 -40 7 -75 10 -78 3 -4 17 -4 31 0 33 8 39 33 40
161 1 72 5 103 15 111 9 7 11 18 5 35 -5 13 -9 31 -9 39 0 19 -61 32 -75 15z"/>
<path d="M140 727 c0 -7 6 -19 13 -26 10 -10 9 -14 -3 -21 -12 -6 -15 -28 -15
-92 1 -82 1 -83 25 -80 28 3 70 39 70 59 0 8 -7 16 -15 19 -8 4 -15 13 -15 22
0 12 4 11 20 -6 24 -26 29 -26 54 -7 19 14 18 15 -7 35 -14 11 -28 34 -32 50
-7 32 -26 51 -33 32 -2 -7 -8 -12 -14 -12 -7 0 -7 5 1 13 6 8 8 17 4 20 -12
12 -53 7 -53 -6z"/>
<path d="M2517 692 c3 -9 19 -31 35 -48 l30 -32 -23 -16 c-22 -15 -25 -14 -50
10 -31 30 -45 26 -54 -16 -4 -16 -14 -34 -23 -39 -11 -6 -15 -22 -14 -59 1
-48 0 -50 -30 -56 -32 -6 -76 1 -95 16 -11 9 -74 -14 -143 -51 -22 -12 -90 -1
-90 14 0 8 -9 17 -21 20 -11 4 -25 18 -31 31 -6 13 -19 24 -30 24 -22 0 -23
-9 -1 -25 19 -14 11 -45 -12 -45 -8 0 -21 12 -28 27 l-12 27 -5 -30 c-4 -22
-10 -28 -25 -26 -11 2 -24 3 -30 3 -5 0 -19 -1 -30 -3 -16 -2 -21 3 -23 32 -5
62 -12 67 -33 24 l-21 -40 -66 1 c-37 0 -76 -4 -87 -9 -11 -5 -27 -12 -35 -16
-8 -4 -16 -16 -18 -28 -2 -14 -13 -23 -33 -27 -31 -7 -39 -32 -14 -41 8 -4 15
-10 15 -15 0 -14 -22 -11 -40 6 -15 14 -228 40 -239 30 -6 -7 51 -26 102 -34
54 -9 62 -14 54 -36 -5 -10 -20 -15 -52 -15 -25 0 -45 -4 -45 -9 0 -5 -3 -16
-6 -24 -4 -12 0 -14 16 -10 30 8 49 -23 50 -80 l0 -48 23 27 23 26 49 -22 c67
-31 195 -67 280 -79 39 -5 106 -15 150 -21 54 -8 155 -11 307 -7 216 6 228 7
265 30 21 13 52 29 70 36 18 7 38 19 44 27 17 21 33 17 84 -17 59 -40 50 -50
-53 -65 -75 -11 -73 -12 100 -13 124 -1 177 2 180 10 3 9 10 9 27 0 30 -16 36
-9 36 45 0 46 -5 53 -24 30 -8 -10 -9 -15 -1 -18 7 -2 8 -11 4 -22 -7 -18 -8
-18 -20 -2 -10 14 -16 15 -33 6 -12 -6 -21 -15 -21 -20 0 -24 -28 -7 -36 23
-8 28 -14 32 -47 35 -51 4 -64 31 -33 67 13 15 29 24 35 21 7 -4 10 -2 9 5 -2
7 7 18 20 24 12 5 22 13 22 18 0 4 -16 48 -35 97 -42 109 -44 130 -10 130 24
0 51 31 38 44 -3 3 -20 6 -37 6 -25 0 -43 13 -98 72 -38 39 -68 77 -68 83 0
19 -32 42 -67 48 -27 5 -31 4 -26 -11z"/>
<path d="M1 334 l0 -335 177 5 c214 6 258 10 254 25 -2 12 1 13 75 15 29 0 53
-2 53 -6 0 -5 -6 -8 -12 -9 -7 0 1 -7 17 -14 26 -11 32 -11 47 2 13 12 28 14
60 8 24 -4 65 -6 91 -5 32 1 47 -3 42 -9 -4 -8 52 -11 179 -11 102 0 186 2
186 5 0 8 -53 29 -68 26 -7 -1 -38 3 -70 9 -31 6 -84 15 -117 20 -33 4 -73 14
-90 20 -16 7 -88 14 -158 16 -71 2 -137 9 -148 15 -11 5 -45 12 -76 15 -30 2
-83 13 -117 23 -108 33 -170 50 -208 57 -35 6 -42 12 -35 32 3 10 53 10 192 0
66 -5 139 -10 163 -12 23 -2 53 -8 65 -13 12 -6 101 -23 197 -37 96 -15 189
-30 207 -33 17 -3 47 0 66 6 19 7 44 14 57 16 27 5 49 32 50 61 0 24 -16 33
-70 41 -19 3 -42 9 -50 13 -15 8 -9 12 56 34 12 5 25 81 18 101 -3 7 -24 16
-47 19 -22 4 -46 11 -53 16 -6 6 -38 8 -70 5 -32 -2 -127 -7 -210 -11 -134 -6
-152 -5 -167 11 -14 13 -21 14 -31 5 -9 -6 -42 -10 -80 -9 -54 2 -69 -1 -80
-16 -12 -17 -19 -17 -72 -7 -42 9 -66 19 -82 38 -16 18 -27 23 -34 16 -6 -6
-6 -12 1 -16 6 -4 11 -14 11 -22 0 -11 -6 -14 -22 -9 -36 11 -45 25 -27 38 25
19 44 60 30 65 -6 2 -11 10 -11 18 0 8 -6 11 -16 7 -14 -5 -15 -3 -4 16 13 25
7 51 -12 51 -7 0 -19 9 -26 20 -7 11 -16 20 -22 20 -5 0 -9 -133 -9 -336z"/>
<path d="M3536 501 c-4 -5 -1 -13 5 -17 7 -4 7 -9 2 -13 -14 -8 -26 -81 -15
-81 14 0 23 -27 16 -45 -8 -20 -24 -19 -24 2 0 12 -3 14 -11 6 -8 -8 -8 -17 1
-32 14 -28 -4 -91 -27 -91 -10 0 -13 -5 -8 -17 19 -46 24 -81 19 -110 -6 -29
-9 -32 -40 -31 -20 1 -34 6 -34 14 0 17 -17 21 -65 14 -24 -4 -53 -1 -70 6
-17 7 -40 10 -51 7 -12 -2 -25 0 -28 6 -10 16 -26 13 -26 -4 0 -8 5 -15 10
-15 6 0 10 -7 10 -15 0 -17 -55 -21 -65 -5 -4 6 -11 8 -16 5 -5 -4 -9 -1 -9 4
0 6 -8 11 -18 11 -10 0 -23 5 -30 12 -13 13 -14 11 -16 -40 -2 -35 11 -53 24
-32 5 8 13 9 26 2 11 -5 25 -7 32 -5 7 3 21 -6 31 -18 17 -21 21 -22 46 -11
20 9 31 10 39 2 11 -11 94 -14 120 -4 9 3 16 12 16 20 0 9 11 14 29 14 18 0
31 6 33 15 2 10 7 12 17 5 12 -7 13 -13 3 -34 l-12 -26 130 0 c71 0 131 3 134
8 5 9 -11 73 -54 205 -23 72 -36 97 -48 97 -16 1 -16 1 0 10 15 9 15 13 0 53
-9 23 -20 44 -24 47 -4 3 -11 23 -16 45 -8 38 -25 55 -36 36z"/>
<path d="M3796 488 c-20 -76 -22 -99 -10 -134 12 -36 20 -113 28 -265 2 -37 6
-71 10 -78 5 -7 48 -11 127 -11 l120 0 -2 68 c-1 71 4 124 16 163 6 18 0 14
-25 -16 -40 -51 -87 -82 -102 -67 -6 6 -13 31 -15 56 -6 47 -25 76 -38 56 -8
-13 -65 -13 -65 0 0 6 9 19 20 30 28 28 27 60 -1 53 -31 -8 -44 21 -40 88 1
34 -2 60 -8 64 -6 3 -13 0 -15 -7z"/>
<path d="M1073 119 c-36 -37 6 -70 99 -78 72 -7 159 7 165 26 2 5 -7 19 -19
30 -19 18 -41 23 -128 28 -80 5 -108 4 -117 -6z"/>
</g>
</svg>
