<?xml version="1.0" standalone="no"?>
<!DOCTYPE svg PUBLIC "-//W3C//DTD SVG 20010904//EN"
 "http://www.w3.org/TR/2001/REC-SVG-20010904/DTD/svg10.dtd">
<svg version="1.0" xmlns="http://www.w3.org/2000/svg"
 width="500.000000pt" height="751.000000pt" viewBox="0 0 500.000000 751.000000"
 preserveAspectRatio="xMidYMid meet">
<metadata>
Created by potrace 1.15, written by Peter Selinger 2001-2017
</metadata>
<g transform="translate(0.000000,751.000000) scale(0.100000,-0.100000)"
fill="#000000" stroke="none">
<path d="M2 5018 l3 -2493 60 -2 c33 -2 71 -6 85 -9 27 -7 94 -6 123 2 12 4
17 0 17 -13 1 -17 1 -17 14 0 14 18 66 24 66 7 0 -5 -6 -11 -12 -12 -7 0 7 -4
32 -7 49 -7 73 -4 65 10 -3 4 -20 6 -38 2 -22 -4 -29 -2 -22 5 13 14 128 29
191 25 27 -1 143 -4 259 -5 190 -3 211 -2 227 14 10 10 13 18 8 18 -6 0 -14 8
-17 18 -4 9 -18 27 -31 40 -24 23 -24 23 -3 29 11 3 21 9 21 14 0 16 20 9 27
-8 3 -10 11 -24 17 -32 6 -8 11 -24 11 -35 0 -17 5 -20 30 -18 28 2 29 2 11
-12 -10 -9 -22 -13 -27 -11 -4 3 -11 0 -14 -6 -12 -18 177 -8 192 11 7 9 12
10 13 4 0 -7 15 -12 34 -12 25 0 33 4 32 17 0 9 -7 20 -13 24 -20 12 -15 34 7
40 15 4 20 0 20 -14 0 -11 7 -19 16 -19 14 0 14 -2 -1 -16 -13 -14 -14 -19 -3
-25 14 -9 145 -4 178 6 12 4 28 1 36 -6 12 -10 16 -9 21 9 3 12 12 22 20 22 8
0 12 -4 9 -9 -3 -5 4 -8 17 -8 12 1 32 -2 45 -7 17 -6 22 -4 22 9 0 10 5 13
12 9 7 -5 9 -2 5 9 -3 9 1 18 9 21 24 9 29 7 16 -6 -28 -28 -13 -38 51 -37 34
1 190 -2 347 -5 507 -12 980 -11 980 3 0 5 -6 12 -12 14 -8 4 -7 6 3 6 9 1 19
-5 22 -12 3 -9 17 -13 39 -11 54 6 118 5 128 -1 5 -3 18 0 29 7 16 10 40 10
112 1 56 -7 99 -9 109 -3 17 9 336 5 403 -5 24 -4 37 -2 37 6 0 8 4 8 14 0 8
-7 36 -14 63 -17 26 -3 75 -12 107 -20 47 -11 61 -12 67 -2 6 9 9 9 14 -3 5
-14 45 -15 333 -12 180 1 335 3 345 3 16 0 17 126 17 2500 l0 2500 -2500 0
-2500 0 2 -2492z m2376 2178 c55 -29 85 -72 90 -129 5 -65 25 -77 125 -77 68
0 71 -1 117 -42 26 -24 74 -59 106 -78 32 -19 81 -57 109 -85 52 -51 136 -176
156 -233 14 -41 21 -42 309 -45 285 -2 457 9 485 32 20 16 20 16 1 -6 -19 -23
-19 -23 5 -25 13 0 32 0 42 0 10 1 16 -2 13 -7 -3 -5 0 -11 8 -14 25 -10 64
-71 72 -111 7 -38 6 -39 -19 -34 -24 5 -26 3 -20 -21 7 -32 13 -40 13 -18 0
11 8 17 22 17 21 0 21 0 2 -15 -16 -13 -16 -14 -1 -9 17 6 24 -10 8 -20 -18
-12 -61 13 -61 34 0 12 -4 18 -10 15 -5 -3 -9 -16 -8 -28 0 -12 -3 -30 -7 -39
-5 -13 -3 -18 10 -18 9 0 13 -4 10 -10 -3 -5 -13 -10 -22 -10 -9 0 -13 3 -10
7 4 3 2 13 -5 20 -9 11 -9 17 3 25 10 7 3 8 -22 4 -27 -5 -40 -2 -50 11 -13
15 -12 16 9 11 12 -4 22 -2 22 3 0 5 -7 9 -16 9 -8 0 -13 4 -9 9 13 22 -32 14
-56 -9 -31 -30 -74 -38 -65 -12 5 14 3 13 -9 -2 -8 -10 -12 -23 -9 -27 3 -5 1
-9 -5 -9 -6 0 -17 -12 -26 -27 l-16 -28 6 28 c3 15 1 27 -5 27 -5 0 -10 -7
-10 -15 0 -8 -14 -18 -32 -23 -25 -7 -32 -14 -31 -29 2 -16 -2 -20 -18 -16
-13 4 -27 -3 -42 -19 -12 -13 -34 -29 -49 -36 -28 -12 -29 -35 -4 -55 7 -5 4
-7 -7 -3 -11 3 -20 0 -24 -9 -5 -14 -7 -13 -18 1 -8 12 -14 14 -19 6 -4 -7 -4
-16 -1 -22 3 -5 1 -10 -4 -10 -12 0 -15 19 -12 63 1 15 -3 27 -10 27 -6 0 -9
-8 -7 -18 6 -20 -27 -48 -37 -33 -3 5 1 12 7 14 7 3 3 6 -10 6 -25 1 -63 20
-74 37 -8 13 -57 29 -73 25 -5 -1 -2 6 8 17 9 10 17 27 16 38 0 16 -2 16 -7 3
-4 -9 -15 -15 -24 -13 -10 1 -18 -4 -18 -12 0 -23 -46 -17 -62 9 -8 12 -15 44
-17 70 -2 46 -2 48 22 42 17 -5 25 -3 24 7 -1 38 4 50 18 44 29 -11 29 24 0
54 -16 16 -31 27 -35 25 -4 -2 -7 2 -7 9 0 29 -25 73 -51 90 -15 10 -19 15 -9
12 16 -5 16 -3 2 31 -8 19 -15 37 -15 39 0 2 -10 4 -22 3 -13 0 -17 -3 -10 -6
10 -4 8 -11 -8 -28 -14 -15 -18 -25 -11 -30 19 -11 12 -23 -11 -17 -17 4 -20
2 -15 -11 3 -9 -1 -18 -10 -21 -9 -4 -13 -14 -10 -26 4 -15 0 -20 -13 -20 -10
0 -21 8 -23 18 -4 14 -5 14 -6 -3 -2 -43 21 -96 59 -134 55 -56 55 -126 -1
-118 -21 4 -24 9 -23 43 1 27 -4 44 -18 56 -11 9 -17 22 -13 27 3 6 0 20 -8
32 -8 11 -18 16 -21 11 -3 -5 -28 -8 -55 -7 -36 2 -51 -2 -56 -12 -4 -11 -9
-12 -18 -5 -7 6 -42 13 -77 15 -53 4 -67 8 -75 25 -5 11 -17 21 -27 21 -10 1
-28 1 -40 1 -12 1 -30 7 -38 15 -14 13 -20 11 -52 -15 -41 -34 -58 -25 -32 15
16 24 16 28 1 42 -15 15 -17 14 -28 -10 -7 -15 -16 -27 -20 -27 -5 0 -16 -17
-25 -37 l-16 -38 -10 26 c-5 15 -18 29 -28 32 -12 3 -20 14 -20 26 0 16 -6 21
-24 21 -14 0 -38 11 -54 25 -17 14 -39 25 -50 25 -32 0 -73 25 -61 37 7 7 2
12 -16 15 -26 5 -34 -2 -39 -34 -3 -20 -16 -38 -27 -38 -6 0 -7 5 -4 10 3 6 3
19 0 30 -5 15 -13 19 -38 16 -37 -4 -59 2 -52 14 3 5 1 12 -5 15 -6 4 -16 -6
-23 -24 -6 -17 -15 -31 -19 -31 -4 0 -8 -9 -8 -21 0 -18 4 -20 26 -15 15 4 32
2 40 -5 8 -6 14 -8 14 -4 0 4 7 2 15 -5 24 -20 -1 -40 -47 -40 -26 0 -37 -4
-32 -11 3 -6 1 -15 -6 -19 -16 -10 45 -41 66 -33 7 3 14 0 14 -6 0 -6 5 -11
11 -11 18 0 41 -30 35 -45 -3 -8 -12 -12 -21 -9 -9 4 -15 1 -15 -8 0 -14 -75
-46 -92 -40 -12 3 -9 -13 4 -26 9 -9 9 -15 0 -24 -12 -12 -15 -8 -25 39 -5 24
12 56 28 52 6 -1 19 1 30 5 11 5 26 10 33 12 22 6 13 32 -14 37 -19 3 -32 -2
-50 -22 -17 -18 -24 -21 -24 -10 0 11 -10 15 -42 15 -40 -1 -43 1 -46 27 -3
24 -7 27 -25 21 -12 -4 -23 -11 -25 -15 -2 -5 -8 -9 -14 -9 -6 0 -7 8 -4 17 4
9 2 20 -5 23 -8 6 -8 9 0 14 6 4 11 2 11 -4 0 -6 5 -8 10 -5 7 4 7 13 0 26 -6
11 -9 23 -6 28 7 11 -34 73 -51 79 -7 2 -13 -4 -13 -15 0 -12 -8 -18 -25 -19
-30 -2 -33 11 -5 26 20 11 23 30 5 42 -5 4 4 12 20 18 31 12 45 2 45 -32 0
-10 5 -18 11 -18 5 0 7 -5 3 -12 -5 -8 0 -9 14 -6 26 7 28 0 6 -17 -15 -11
-15 -12 3 -17 16 -4 24 3 38 34 18 42 15 58 -9 39 -12 -10 -14 -7 -12 22 4 41
12 57 32 57 9 0 27 14 41 30 29 35 72 60 102 60 14 0 21 8 23 27 2 14 9 28 15
31 9 2 11 -5 7 -27 l-6 -30 35 11 c25 8 34 15 29 26 -3 8 13 -3 36 -25 23 -22
56 -43 73 -47 48 -9 87 -7 95 5 4 7 9 8 13 1 3 -6 19 -14 35 -18 19 -4 27 -3
23 3 -10 17 15 30 51 27 20 -1 31 3 30 10 -2 6 2 14 7 16 6 3 11 -10 13 -27 3
-25 -1 -33 -13 -33 -9 0 -13 -5 -9 -11 4 -7 16 -2 33 13 35 32 67 18 82 -35 5
-21 16 -40 24 -43 16 -6 105 24 105 36 0 20 120 88 175 99 85 19 97 27 60 42
-47 19 -64 17 -90 -7 l-25 -23 6 23 c8 32 -9 40 -53 24 -29 -10 -37 -10 -40 0
-7 18 -20 15 -43 -10 -17 -18 -20 -19 -20 -5 0 9 -7 17 -15 17 -8 0 -23 21
-35 47 -19 43 -35 62 -51 63 -4 0 -10 -20 -13 -45 -7 -46 -19 -58 -30 -30 -9
24 4 71 26 95 12 13 17 27 13 38 -6 15 -8 14 -16 -5 -4 -13 -15 -23 -24 -23
-8 0 -15 -3 -15 -7 0 -5 -10 -19 -21 -33 -20 -24 -20 -24 -14 -2 6 22 -12 31
-29 15 -4 -5 -12 -8 -17 -8 -5 0 -9 -3 -9 -7 0 -5 0 -15 0 -23 0 -8 6 -15 14
-15 9 0 12 -7 9 -20 -3 -11 -10 -20 -17 -20 -6 0 -17 -9 -24 -20 -11 -18 -10
-20 11 -20 13 0 28 5 34 11 6 6 16 8 22 5 19 -12 12 -24 -19 -31 -16 -4 -30
-11 -30 -16 0 -13 -28 -11 -37 4 -12 19 -70 57 -77 50 -3 -3 -1 -12 5 -19 7
-9 2 -14 -21 -19 -18 -4 -30 -13 -31 -23 -1 -15 -2 -15 -6 -1 -2 9 10 30 28
48 25 26 29 34 19 46 -10 12 -9 15 4 15 9 0 16 4 16 9 0 5 -13 8 -30 7 -19 -1
-30 3 -30 11 0 7 4 13 9 13 11 0 11 59 1 65 -4 3 5 42 21 87 45 131 119 185
197 144z m-197 -886 c8 0 24 -6 34 -14 11 -8 40 -18 64 -23 50 -9 79 -45 80
-99 1 -45 21 -58 76 -50 25 4 45 13 45 19 0 8 3 9 8 1 4 -6 31 -11 60 -11 39
-1 62 -7 92 -27 22 -14 44 -26 50 -26 6 0 8 -5 4 -12 -5 -8 -2 -9 9 -5 10 4
17 1 17 -6 0 -8 3 -9 8 -1 9 13 42 14 42 1 0 -5 7 -6 16 -3 21 8 53 -11 63
-37 11 -29 -5 -61 -26 -52 -9 3 -19 1 -22 -4 -3 -5 -28 -11 -54 -14 -35 -4
-53 -11 -64 -27 -14 -20 -17 -21 -25 -6 -7 13 -21 16 -59 14 -27 -2 -48 -7
-46 -13 5 -13 -11 -27 -45 -42 -24 -11 -28 -10 -28 2 0 8 5 15 11 15 14 0 39
25 39 39 0 24 -47 10 -69 -20 -21 -29 -22 -31 -5 -43 12 -9 15 -19 10 -32 -8
-18 -9 -18 -19 4 -12 26 -20 28 -37 7 -7 -8 -9 -15 -5 -15 4 0 -4 -11 -19 -25
-15 -14 -24 -25 -20 -25 3 0 1 -7 -6 -14 -6 -8 -37 -20 -68 -27 -31 -6 -90
-25 -130 -41 -50 -20 -96 -31 -141 -33 -54 -2 -66 -6 -66 -20 0 -23 -30 -43
-59 -38 -13 3 -27 0 -31 -7 -8 -12 -9 -89 -2 -96 10 -10 38 10 43 31 6 26 30
40 40 24 3 -6 -1 -18 -10 -28 -14 -15 -14 -19 -3 -24 8 -3 17 -23 20 -44 10
-71 41 -127 83 -148 42 -22 55 -35 48 -47 -9 -15 7 -50 21 -44 9 3 15 -9 20
-40 3 -24 13 -56 21 -72 l14 -27 0 33 c0 22 5 32 15 32 8 0 25 11 37 25 12 14
30 25 40 25 10 0 23 11 28 24 5 13 19 27 31 31 17 6 19 9 8 16 -20 12 -2 11
22 -1 15 -8 19 -8 17 2 -2 8 6 13 20 12 20 -1 22 3 17 23 -4 16 -1 23 10 23 8
0 15 -4 15 -10 0 -5 7 -10 15 -10 8 0 15 5 15 10 0 6 7 10 16 10 9 0 12 5 8
13 -6 9 -4 9 8 -1 11 -9 18 -10 23 -2 12 19 26 11 15 -9 -15 -28 3 -34 32 -11
14 11 28 16 32 13 3 -4 13 2 20 13 15 19 15 19 31 -1 9 -11 14 -14 10 -7 -4 7
0 12 11 12 12 0 15 -6 12 -25 -6 -27 1 -32 20 -13 6 6 14 9 17 6 4 -3 -1 -12
-10 -19 -8 -8 -21 -19 -28 -25 -7 -7 -32 -15 -55 -19 -35 -6 -42 -4 -42 10 0
9 -4 13 -10 10 -5 -3 -10 -15 -10 -26 0 -10 -4 -19 -10 -19 -5 0 -10 -11 -10
-25 0 -17 -5 -25 -17 -24 -11 0 -13 3 -5 6 6 2 12 9 12 15 0 6 -9 3 -20 -7
-21 -19 -18 -37 5 -28 8 3 15 0 15 -5 0 -6 -8 -13 -17 -15 -10 -2 -1 -4 19 -4
37 0 37 0 33 38 -4 33 -3 37 14 32 13 -3 17 -11 14 -24 -4 -15 -2 -18 11 -13
11 4 16 1 16 -11 0 -10 -5 -15 -13 -12 -10 4 -12 -3 -9 -24 2 -17 0 -29 -7
-29 -6 0 -8 -6 -5 -14 3 -8 1 -17 -5 -21 -8 -4 -8 -12 -1 -25 11 -21 3 -77
-13 -87 -6 -3 -7 -1 -3 5 12 21 -3 33 -26 21 -15 -8 -19 -8 -14 0 4 6 2 11 -3
11 -10 0 -13 -6 -15 -39 -1 -8 -8 -16 -16 -18 -13 -4 -13 -3 0 6 11 8 12 11 2
11 -9 0 -11 7 -7 20 4 11 2 20 -4 20 -16 0 -13 19 6 38 12 12 18 13 21 4 6
-18 52 -15 52 4 0 10 -6 14 -14 11 -8 -3 -17 1 -20 9 -3 9 1 14 12 14 13 0 14
2 4 9 -7 4 -12 14 -10 21 2 7 -3 15 -10 17 -8 3 -10 -1 -5 -13 4 -12 3 -15 -5
-10 -8 5 -12 0 -12 -12 0 -26 -23 -44 -45 -36 -11 5 -21 1 -27 -9 -9 -18 -38
-24 -38 -8 0 16 30 34 60 35 17 1 30 4 30 9 0 7 -22 11 -50 8 -12 -1 -11 1 3
12 15 13 16 16 2 27 -13 11 -19 9 -35 -10 -10 -12 -20 -25 -22 -28 -2 -4 -30
-21 -63 -39 -45 -23 -59 -36 -57 -50 4 -18 7 -59 10 -125 2 -32 5 -35 23 -31
16 4 20 2 17 -8 -3 -8 -16 -13 -30 -11 -31 3 -39 -19 -28 -77 4 -23 7 -69 6
-104 -1 -45 3 -65 14 -74 13 -11 13 -12 -2 -13 -9 0 -23 7 -32 15 -21 21 -28
19 -20 -7 4 -13 7 -29 7 -35 0 -7 4 -13 9 -13 4 0 8 7 8 17 0 15 2 15 19 -1
15 -14 20 -14 25 -4 5 10 7 10 12 1 8 -17 24 -16 24 1 0 7 9 25 20 39 24 30
25 38 5 31 -19 -8 -19 3 -1 21 7 8 17 11 21 7 5 -4 5 -1 1 6 -4 6 -15 12 -24
13 -10 0 -12 3 -5 6 10 3 9 8 -2 20 -13 12 -13 18 -3 30 11 13 13 13 18 -2 5
-14 8 -13 18 7 15 28 10 91 -9 115 -12 15 -12 16 5 10 10 -4 25 -2 33 4 18 16
24 8 25 -32 1 -62 -34 -206 -72 -299 -36 -87 -38 -93 -44 -125 -5 -31 -58
-154 -73 -169 -4 -4 -8 -49 -9 -99 0 -51 -4 -113 -8 -139 -6 -34 -4 -55 6 -75
10 -20 13 -54 12 -106 -2 -42 1 -79 6 -82 6 -3 10 -1 10 5 0 6 5 8 10 5 6 -4
10 -14 9 -23 -3 -35 4 -46 10 -17 4 17 3 36 -3 43 -12 16 9 33 31 25 10 -4 11
-9 2 -19 -9 -11 -8 -14 5 -14 19 0 20 -13 5 -42 -8 -15 -8 -22 1 -28 15 -9 6
-40 -10 -40 -6 0 -8 5 -5 10 3 6 -3 10 -15 10 -34 0 -18 -23 18 -27 25 -3 32
0 32 14 0 16 1 16 16 1 9 -9 14 -24 11 -32 -7 -18 -52 -22 -62 -6 -14 22 -20
7 -22 -50 -2 -41 1 -59 9 -57 6 1 13 -12 15 -30 1 -18 -2 -33 -7 -33 -6 0 -10
9 -10 20 0 14 -6 20 -22 19 -13 0 -17 -3 -10 -6 18 -7 15 -23 -6 -23 -23 0
-42 -19 -42 -43 0 -13 -5 -17 -18 -13 -16 5 -18 2 -14 -24 2 -16 0 -30 -4 -30
-14 0 -84 65 -84 77 0 7 -16 9 -45 5 -36 -4 -52 0 -80 19 -19 13 -39 35 -45
49 -13 33 -79 151 -95 170 -13 16 -24 59 -50 194 -8 44 -20 85 -26 92 -6 7 -8
17 -5 22 3 5 -3 17 -13 26 -15 14 -24 15 -40 6 -12 -6 -21 -18 -21 -27 0 -11
-7 -14 -25 -11 -14 3 -25 2 -25 -2 0 -4 -8 -7 -17 -6 -12 1 -18 -6 -18 -19 0
-17 -6 -19 -33 -17 -26 3 -32 0 -32 -15 0 -11 5 -24 11 -30 12 -12 4 -33 -13
-33 -6 0 -8 9 -5 20 4 15 0 20 -13 20 -22 0 -39 22 -22 28 7 2 12 8 12 14 0 7
-5 7 -13 -1 -19 -15 -27 -4 -27 36 0 24 -5 33 -16 33 -13 0 -15 7 -10 36 7 33
6 35 -14 24 -12 -6 -18 -16 -13 -23 4 -8 1 -7 -9 1 -9 8 -14 20 -11 28 3 8 0
14 -6 14 -6 0 -11 -4 -11 -10 0 -17 -21 -11 -54 17 -28 24 -29 26 -7 20 20 -5
52 4 70 19 3 2 -6 15 -19 29 -27 29 -21 62 9 46 14 -8 25 -6 44 9 14 11 35 20
47 20 19 0 20 2 10 15 -7 8 -20 14 -29 13 -10 -2 -15 4 -15 15 1 9 -4 17 -12
17 -10 0 -14 -13 -14 -40 0 -43 -13 -50 -50 -30 -14 7 -25 7 -39 -2 -11 -7
-23 -9 -27 -6 -12 13 5 38 25 38 11 0 23 5 26 10 3 6 0 10 -7 10 -7 0 -23 10
-34 23 -16 16 -19 28 -13 45 11 29 18 28 14 -3 -2 -27 9 -42 20 -25 4 6 11 8
16 5 5 -4 9 -1 9 4 0 6 -7 11 -15 11 -18 0 -19 14 -5 41 12 21 35 27 27 6 -3
-7 1 -21 8 -31 8 -10 11 -24 8 -32 -3 -8 0 -14 6 -14 12 0 15 33 4 44 -11 11
-12 59 -1 73 6 7 5 14 -3 19 -8 4 -9 3 -5 -4 4 -7 1 -12 -7 -12 -8 0 -22 -9
-32 -20 -23 -25 -51 -9 -35 20 6 10 10 28 10 39 0 12 4 21 10 21 5 0 7 -7 4
-15 -4 -8 -1 -15 4 -15 17 0 25 21 13 33 -6 6 -11 19 -11 30 0 14 -5 17 -20
12 -27 -8 -26 7 2 24 19 12 20 14 4 23 -9 5 -13 14 -10 20 5 7 1 9 -9 5 -10
-3 -17 -2 -17 3 0 6 6 10 13 10 6 0 1 6 -13 13 -21 10 -26 21 -28 60 -3 44 -1
47 22 47 21 0 24 5 24 34 0 28 -3 34 -16 30 -14 -5 -14 -4 1 6 9 6 17 18 17
26 0 10 7 14 18 12 9 -2 16 -10 15 -16 -2 -7 2 -12 7 -12 6 0 10 5 10 10 0 6
5 10 11 10 5 0 7 -4 4 -10 -3 -5 -1 -10 4 -10 6 0 11 5 11 11 0 5 5 7 10 4 6
-3 10 1 10 9 0 9 -5 16 -10 16 -6 0 -14 8 -17 18 -13 33 -57 60 -68 41 -9 -14
-35 16 -35 40 0 10 14 34 32 51 17 18 27 35 22 38 -11 9 -12 35 -1 43 9 7 10
29 1 83 -5 27 -3 37 5 32 6 -4 11 -18 11 -32 0 -15 6 -24 15 -24 17 0 20 16 5
25 -5 3 -10 15 -10 25 0 10 -6 20 -12 23 -9 3 -7 10 7 21 20 17 20 17 -1 7
-18 -9 -25 -7 -37 12 -9 12 -16 17 -16 10 -1 -6 4 -15 9 -18 6 -3 10 -14 10
-23 0 -10 -3 -13 -8 -6 -4 6 -16 14 -26 18 -19 6 -19 6 -3 -12 9 -10 17 -28
17 -39 0 -12 6 -23 13 -26 10 -4 10 -7 0 -18 -11 -11 -13 -10 -13 5 0 9 -4 14
-10 11 -6 -3 -7 1 -4 9 3 9 1 16 -5 16 -6 0 -11 7 -11 15 0 11 -7 14 -25 9
-15 -4 -25 -2 -25 5 0 6 5 11 11 11 5 0 7 5 4 10 -3 6 1 10 11 10 14 0 14 3 4
15 -7 9 -21 13 -31 10 -13 -5 -19 -1 -19 10 0 11 5 15 15 12 8 -4 17 -2 21 4
8 13 -16 40 -29 32 -6 -4 -7 -1 -2 7 5 9 2 10 -14 5 -24 -7 -29 10 -6 19 8 3
15 15 15 26 0 12 -5 18 -10 15 -6 -4 -7 -11 -4 -17 5 -7 2 -9 -8 -5 -9 3 -21
0 -27 -6 -8 -8 -11 -7 -11 6 0 9 -5 17 -11 17 -6 0 -8 8 -4 19 8 26 -18 46
-35 26 -7 -8 -18 -15 -24 -15 -6 0 -5 4 3 9 16 10 6 31 -15 31 -8 0 -14 10
-14 23 0 18 -2 19 -10 7 -8 -12 -10 -11 -10 7 0 12 -13 35 -29 51 -21 21 -28
36 -24 51 4 15 -2 27 -20 41 -21 17 -47 67 -28 56 4 -3 12 3 18 13 9 14 7 21
-9 35 -19 17 -20 16 -13 -6 5 -20 4 -21 -7 -8 -7 9 -22 14 -33 12 -19 -3 -19
-2 -1 12 11 9 15 19 10 28 -5 7 -7 23 -5 36 1 12 -3 22 -9 22 -7 0 -9 -8 -5
-19 3 -11 1 -22 -5 -26 -6 -3 -8 -10 -5 -15 3 -5 -4 -14 -15 -20 -18 -10 -19
-9 -10 15 6 15 6 24 1 20 -5 -3 -16 2 -24 10 -20 19 -27 19 -27 0 0 -8 -4 -15
-9 -15 -25 0 0 40 49 78 75 60 116 79 195 93 85 15 143 7 208 -29 29 -16 93
-41 142 -56 157 -48 190 -58 207 -67 23 -12 68 -11 68 0 0 5 6 16 13 23 31 33
87 142 82 159 -4 12 -1 19 7 19 7 0 28 16 47 35 38 38 88 65 119 65 25 0 31
16 20 55 -6 23 -4 33 9 43 9 6 11 12 5 12 -15 0 -16 36 -1 45 6 4 8 13 6 19
-3 7 -1 19 4 27 7 11 9 11 9 -3 0 -10 7 -18 15 -18 8 0 15 8 15 19 0 13 10 20
37 24 43 7 56 1 48 -22 -3 -10 1 -24 9 -31 19 -15 42 4 52 44 8 33 20 34 20 1
0 -14 -4 -25 -8 -25 -4 0 -8 -4 -8 -10 0 -5 6 -10 14 -10 8 0 17 -6 19 -12 3
-7 6 1 6 19 1 17 6 35 11 38 16 10 12 23 -9 30 -13 4 -18 12 -14 21 5 13 8 13
23 -1 9 -8 23 -15 31 -15z m237 -682 c8 -8 15 -8 27 2 23 19 19 -6 -5 -30 -28
-28 -25 -37 10 -37 17 0 30 5 30 11 0 6 5 18 10 26 9 13 11 13 21 0 9 -12 12
-13 16 -1 4 10 7 10 13 1 6 -9 12 -9 29 -1 20 11 21 10 15 -13 -5 -20 -2 -26
9 -26 22 0 31 -18 17 -35 -15 -18 -47 -20 -53 -2 -3 9 -8 8 -18 -4 -12 -15
-57 -29 -138 -44 -12 -2 -29 -9 -35 -14 -7 -6 -22 -12 -33 -14 -11 -1 -36 -17
-57 -34 -20 -16 -68 -41 -104 -53 l-68 -23 -42 26 c-65 42 -97 110 -73 156 15
28 31 27 31 -1 0 -30 15 -52 28 -44 6 3 13 24 17 47 5 29 13 43 30 49 13 5 26
14 30 20 4 6 28 8 62 6 46 -4 62 -10 90 -38 l35 -33 -7 37 c-7 36 -6 37 34 48
22 6 43 15 46 20 8 13 18 13 33 -2z m-1983 -1322 c11 -16 17 -54 19 -119 3
-88 2 -94 -15 -90 -11 3 -19 0 -19 -6 0 -14 -47 -15 -55 -1 -3 6 -2 10 4 10 6
0 15 9 21 19 13 25 22 114 11 107 -4 -3 -8 6 -7 20 1 21 -6 28 -36 39 -27 9
-38 9 -42 1 -2 -6 -5 -4 -5 5 -2 26 21 39 66 39 34 0 46 -5 58 -24z m2977
-1169 c5 -10 7 -21 4 -25 -2 -4 5 -9 16 -9 26 -2 50 -23 26 -23 -25 0 -28 -25
-6 -39 18 -11 20 -11 15 3 -3 8 -2 18 4 21 18 12 21 -25 4 -51 -16 -25 -16
-26 4 -19 26 8 63 -3 55 -16 -4 -6 -11 -6 -19 1 -10 8 -22 7 -47 -3 -24 -11
-29 -16 -18 -21 11 -5 14 -17 12 -46 -2 -22 -8 -40 -13 -40 -5 0 -9 -4 -9 -10
0 -14 33 -13 47 1 6 6 16 9 21 5 5 -3 -6 -22 -24 -42 -35 -36 -64 -40 -64 -9
0 12 -6 15 -20 10 -16 -5 -20 -2 -20 15 0 16 5 20 15 16 8 -3 15 -1 15 4 0 6
-7 10 -15 10 -9 0 -18 8 -22 18 -3 9 -20 28 -36 43 -26 22 -28 28 -18 47 6 12
16 22 22 22 16 0 22 -29 9 -45 -10 -12 -9 -15 4 -15 10 0 14 -5 11 -11 -4 -6
2 -13 14 -16 12 -3 21 -12 21 -19 0 -18 29 -18 36 0 7 18 -26 65 -44 66 -21 0
-8 25 14 25 27 0 33 13 20 41 -13 28 -56 33 -80 9 -9 -9 -17 -11 -21 -5 -3 5
-1 10 4 10 6 0 11 5 11 11 0 5 -4 7 -10 4 -17 -10 -11 4 10 25 17 17 21 18 34
5 19 -19 26 -19 26 0 0 8 -3 15 -7 15 -10 0 -32 47 -26 54 9 9 36 -1 45 -17z"/>
<path d="M1590 4886 c0 -9 -8 -16 -20 -16 -24 0 -25 -8 -5 -34 23 -30 19 -33
-41 -39 -31 -3 -58 -8 -61 -11 -8 -8 5 -53 20 -68 7 -7 16 -22 21 -33 7 -18 8
-18 19 5 21 41 107 37 107 -6 0 -13 4 -24 9 -24 16 0 10 124 -9 180 -18 53
-40 78 -40 46z"/>
<path d="M1492 4561 c-17 -16 -20 -27 -13 -34 7 -7 6 -14 -5 -22 -15 -10 -15
-13 0 -27 19 -20 21 -64 4 -71 -7 -2 -22 3 -32 12 -18 15 -18 15 -7 -6 6 -13
19 -23 27 -23 28 0 11 -35 -19 -38 -28 -3 -35 -16 -17 -27 6 -4 8 -15 5 -26
-4 -10 -2 -19 4 -19 5 0 12 -10 14 -22 l4 -23 8 23 c8 25 25 30 25 7 0 -8 5
-15 11 -15 6 0 1 -9 -12 -19 -19 -16 -22 -22 -11 -32 6 -7 12 -21 12 -31 0
-10 5 -18 11 -18 5 0 9 10 7 22 -2 19 2 23 24 23 27 1 39 -13 43 -47 2 -10 3
-21 4 -25 0 -4 8 2 16 13 15 19 20 11 16 -24 -2 -9 6 -12 21 -10 16 2 26 13
33 35 5 18 18 36 28 39 13 4 17 12 14 27 -3 12 -8 40 -12 62 -11 71 -15 85
-25 85 -5 0 -7 -6 -4 -14 3 -8 -3 -19 -16 -26 -11 -6 -18 -15 -15 -21 4 -5 14
-5 26 2 18 9 20 8 17 -8 -2 -10 -11 -17 -21 -17 -9 1 -17 -2 -17 -7 0 -5 5 -9
11 -9 12 0 38 -29 39 -42 0 -4 -11 -2 -25 4 -20 9 -28 8 -43 -5 -24 -22 -32
-21 -32 1 0 13 2 14 9 3 6 -9 11 -10 15 -2 4 6 0 14 -8 17 -9 3 -16 14 -16 25
0 10 -8 23 -19 28 -36 20 -36 71 0 71 10 0 19 7 19 15 0 8 3 14 8 14 4 -1 16
-1 27 0 19 2 19 2 1 13 -57 33 -73 71 -36 83 23 7 27 25 6 25 -19 0 -25 21
-12 42 26 42 -54 58 -92 19z"/>
<path d="M1810 4403 c0 -16 7 -37 15 -47 8 -11 15 -32 15 -46 0 -34 32 -64 58
-56 31 10 39 26 46 97 l6 66 -42 -1 c-24 0 -55 3 -70 7 -26 7 -28 5 -28 -20z"/>
<path d="M4495 1512 c-49 -3 -64 -8 -80 -27 -18 -21 -25 -23 -61 -16 -35 7
-45 4 -68 -16 -31 -26 -64 -30 -72 -8 -9 21 -69 39 -92 26 -26 -14 -85 -15
-152 -2 -52 10 -136 0 -100 -11 8 -3 38 -13 65 -23 55 -20 121 -31 238 -41 61
-5 81 -11 90 -25 7 -11 15 -19 20 -19 4 0 25 -11 45 -25 20 -14 46 -25 57 -26
20 0 20 0 0 -9 -11 -4 -71 -6 -132 -3 l-113 4 0 -50 c0 -30 5 -52 13 -55 6 -3
3 -5 -8 -3 -17 2 -21 11 -23 54 -3 49 -5 53 -28 51 -13 -1 -24 -6 -24 -10 0
-15 -56 -36 -83 -31 -19 4 -29 1 -33 -11 -3 -9 -13 -16 -22 -16 -13 0 -12 3 4
15 24 18 13 18 -51 2 -36 -10 -51 -19 -53 -33 -2 -14 -1 -15 6 -6 7 10 11 10
21 -1 9 -12 7 -16 -10 -20 -11 -3 -18 -10 -15 -15 12 -19 75 -25 253 -22 203
3 254 -5 348 -54 66 -34 90 -37 120 -19 23 15 61 17 70 3 3 -5 12 -7 19 -4 7
3 26 -5 42 -18 37 -30 82 -60 114 -76 37 -19 98 -75 102 -92 2 -8 10 -20 18
-27 31 -26 -184 13 -266 48 -83 35 -134 24 -134 -30 0 -23 -6 -28 -46 -37 -40
-9 -55 -8 -98 8 -28 11 -53 24 -56 28 -11 18 -222 10 -290 -10 -63 -18 -128
-8 -151 23 -7 9 -67 27 -93 27 -13 0 -17 -5 -14 -18 4 -12 -5 -27 -25 -43 -24
-19 -43 -24 -91 -25 -76 -2 -200 -18 -291 -38 -38 -9 -84 -16 -102 -16 -17 0
-35 -4 -38 -10 -3 -6 -21 -10 -39 -10 -17 0 -37 -5 -42 -10 -6 -6 -26 -12 -45
-13 -19 -1 -54 -13 -79 -26 -26 -14 -59 -23 -79 -22 -43 2 -101 -17 -101 -34
0 -40 113 -155 153 -155 24 0 53 -16 97 -52 43 -35 48 -39 88 -61 66 -37 87
-65 86 -114 -2 -78 -1 -78 -269 -69 -116 4 -181 14 -306 47 -20 5 -47 9 -60 9
-13 0 -37 7 -53 15 -15 8 -45 15 -66 15 -21 0 -43 6 -49 14 -6 7 -38 21 -71
30 -33 9 -70 23 -84 29 -17 9 -45 11 -97 6 -114 -12 -126 -11 -131 9 -3 11
-27 23 -67 35 -34 10 -59 21 -56 26 10 17 -24 19 -77 5 -52 -14 -53 -14 -75
11 -12 14 -28 25 -36 25 -8 0 -20 7 -27 15 -9 10 -22 14 -39 10 -14 -3 -42 -1
-60 5 -26 7 -37 7 -43 -3 -7 -12 -9 -10 -12 15 -1 15 -101 48 -140 47 -17 -1
-67 6 -110 15 -63 13 -91 14 -135 6 -30 -5 -60 -15 -65 -20 -6 -6 -19 -10 -31
-10 -12 0 -25 -4 -30 -9 -6 -5 -81 -12 -168 -15 -86 -3 -161 -7 -165 -10 -5
-3 -60 -9 -123 -15 -63 -5 -135 -15 -160 -22 -40 -11 -54 -10 -104 6 -49 15
-80 17 -192 12 -82 -3 -140 -10 -148 -17 -12 -10 -15 -54 -15 -246 l0 -234
2500 0 2500 0 0 399 c0 239 -4 402 -9 406 -6 3 -6 16 0 34 6 17 9 150 7 337
l-3 309 -45 8 c-53 10 -370 23 -455 19z"/>
<path d="M2609 1306 c-2 -2 -42 -7 -89 -9 -47 -3 -106 -13 -132 -21 -27 -9
-69 -23 -95 -32 -27 -9 -61 -18 -78 -20 -79 -13 -264 -63 -310 -83 -11 -5 -42
-15 -70 -22 -48 -13 -49 -14 -20 -19 17 -4 35 -4 40 -1 6 3 19 7 30 8 56 6
148 24 163 32 9 4 49 14 87 21 39 6 95 20 126 31 30 10 65 19 77 19 11 0 24 5
28 11 3 6 15 8 27 5 11 -3 37 4 58 15 21 10 42 18 46 17 5 -1 43 6 86 16 50
12 73 22 65 27 -14 9 -32 11 -39 5z"/>
<path d="M0 1152 c0 -97 4 -150 14 -173 13 -31 14 -32 18 -10 2 16 13 28 33
35 17 6 41 19 55 28 35 23 122 38 290 48 159 9 230 19 230 30 0 4 -18 15 -40
25 -44 20 -51 34 -20 42 11 3 20 8 20 12 0 13 -128 42 -248 57 -70 8 -134 16
-142 19 -39 11 -81 18 -142 22 l-68 4 0 -139z"/>
<path d="M1020 1181 c-14 -4 -64 -6 -113 -5 -58 2 -98 -2 -120 -11 l-32 -14
29 -1 c28 0 29 0 11 -20 -18 -20 -18 -20 11 -15 158 29 212 37 293 41 94 4
115 9 107 23 -6 10 -152 11 -186 2z"/>
</g>
</svg>
