<?xml version="1.0" standalone="no"?>
<!DOCTYPE svg PUBLIC "-//W3C//DTD SVG 20010904//EN"
 "http://www.w3.org/TR/2001/REC-SVG-20010904/DTD/svg10.dtd">
<svg version="1.0" xmlns="http://www.w3.org/2000/svg"
 width="500.000000pt" height="333.000000pt" viewBox="0 0 500.000000 333.000000"
 preserveAspectRatio="xMidYMid meet">
<metadata>
Created by potrace 1.15, written by Peter Selinger 2001-2017
</metadata>
<g transform="translate(0.000000,333.000000) scale(0.100000,-0.100000)"
fill="#000000" stroke="none">
<path d="M0 1665 l0 -1665 905 0 c629 0 905 3 905 11 0 5 15 24 33 40 22 21
26 28 12 23 -11 -4 -17 -4 -13 1 4 4 -13 21 -38 37 -26 16 -43 32 -40 35 3 4
27 -8 53 -26 25 -18 49 -28 52 -23 14 21 92 53 108 44 13 -8 10 -11 -16 -17
-18 -4 -35 -13 -38 -21 -3 -8 -14 -14 -26 -14 -11 0 -17 -3 -13 -7 3 -4 -10
-24 -31 -45 -26 -27 -32 -38 -21 -38 10 0 22 8 27 18 10 16 10 16 11 0 0 -17
81 -18 1565 -18 l1565 0 0 1665 0 1665 -38 0 c-35 0 -39 -3 -51 -36 -7 -20
-37 -60 -66 -89 -93 -94 -213 -118 -328 -67 -54 24 -127 97 -152 152 -15 33
-23 40 -47 40 -26 0 -28 -3 -22 -22 13 -41 84 -146 122 -179 38 -34 98 -64
172 -86 l45 -13 -59 5 c-32 3 -66 10 -76 15 -10 6 -28 10 -39 10 -12 0 -21 4
-21 8 0 5 -23 19 -51 33 -75 35 -120 98 -143 202 l-6 27 -423 -1 c-232 0 -416
-3 -409 -6 6 -2 12 -13 12 -24 0 -12 -5 -16 -15 -13 -8 4 -15 15 -15 25 0 19
-39 19 -1695 19 l-1695 0 0 -1665z m2267 1599 c13 -4 20 -10 17 -15 -3 -5 1
-6 9 -4 7 3 18 -4 24 -17 13 -26 25 -88 18 -88 -10 0 -45 41 -45 53 0 8 -19
13 -57 15 -32 1 -67 5 -78 9 -18 5 -19 4 -5 -12 14 -17 13 -18 -8 -13 -13 4
-25 1 -30 -7 -4 -7 -17 -16 -29 -19 -21 -7 -22 -5 -17 26 4 18 11 37 15 42 5
6 41 15 81 22 40 6 75 12 78 13 3 0 15 -2 27 -5z m-244 -43 c-3 -13 -12 -17
-32 -15 -21 2 -31 -3 -45 -26 -16 -29 -16 -31 1 -60 14 -24 15 -32 4 -42 -7
-7 -11 -8 -9 -3 5 15 -5 19 -30 11 -15 -5 -21 -13 -18 -23 3 -8 6 -19 6 -25 0
-6 8 -7 17 -4 15 6 15 4 -2 -14 -10 -11 -13 -20 -8 -20 6 0 16 7 23 15 17 20
40 19 40 -2 -1 -20 -13 -37 -53 -72 -22 -20 -27 -22 -27 -8 0 9 6 17 13 17 12
0 34 21 51 48 15 25 -17 11 -45 -19 -16 -18 -33 -29 -36 -25 -4 3 -1 12 5 18
7 7 12 15 12 19 0 12 -48 58 -54 52 -3 -4 -6 1 -6 11 0 9 -6 19 -14 22 -8 3
-12 13 -10 22 4 12 0 10 -14 -5 -20 -22 -39 -32 -28 -14 11 17 -70 2 -116 -22
-40 -21 -45 -27 -33 -37 11 -9 15 -9 15 -1 0 6 7 11 15 11 8 0 14 -5 12 -12
-1 -6 9 -14 23 -18 16 -4 21 -8 13 -13 -7 -4 -10 -14 -7 -22 3 -8 -4 -28 -15
-44 -23 -32 -26 -41 -12 -41 5 0 14 12 20 28 13 32 43 53 59 43 7 -4 1 -21
-19 -50 -16 -24 -29 -47 -29 -50 0 -4 16 -22 35 -41 19 -19 35 -39 35 -43 0
-12 -49 26 -50 38 -1 6 -23 33 -50 60 -28 28 -50 53 -50 58 0 4 -6 7 -13 7 -8
0 -28 18 -46 40 -17 22 -27 40 -21 40 7 0 10 6 7 13 -5 15 37 47 95 72 24 11
78 39 121 64 60 34 98 48 170 61 51 10 95 18 99 19 3 0 4 -7 1 -18z m64 -190
c-8 -34 8 -44 27 -17 18 29 51 34 60 10 4 -12 1 -14 -14 -9 -17 5 -18 3 -8
-27 17 -56 20 -85 9 -92 -6 -4 -11 -12 -11 -17 0 -6 13 -1 30 11 25 18 28 26
23 51 -5 28 -4 30 17 27 36 -5 35 -38 -2 -71 -30 -26 -31 -28 -12 -42 17 -12
21 -12 32 3 7 9 10 23 7 31 -6 15 11 31 33 31 9 0 10 -5 4 -16 -10 -18 15 -57
30 -48 5 3 4 12 -2 19 -7 8 -9 19 -5 24 3 6 1 20 -5 31 -9 17 -8 20 9 20 22 0
81 -52 81 -72 1 -19 29 33 30 55 0 9 7 17 15 17 8 0 15 7 15 15 0 23 17 18 24
-7 13 -49 7 -97 -14 -110 -11 -7 -20 -18 -20 -25 0 -18 -10 -16 -32 4 -17 15
-20 15 -34 1 -11 -11 -12 -18 -5 -22 6 -4 11 -1 11 6 0 7 9 2 20 -12 17 -21
21 -23 30 -10 8 12 10 11 10 -8 0 -28 -29 -41 -42 -19 -8 15 -11 14 -31 -6
l-22 -22 -3 23 c-4 25 -29 30 -34 6 -2 -11 -15 -18 -35 -19 -37 -3 -41 2 -15
22 15 13 15 13 -8 7 -44 -12 -51 -23 -33 -50 12 -19 22 -24 42 -19 29 6 60 -8
42 -19 -13 -9 -15 -26 -2 -26 16 0 23 52 9 61 -10 7 -8 9 5 9 10 0 20 -7 23
-15 4 -8 13 -15 21 -15 8 0 12 -4 9 -9 -4 -5 2 -7 12 -4 23 6 53 -22 46 -42
-8 -19 -23 -19 -30 0 -4 8 -11 15 -16 15 -6 0 -7 -7 -4 -16 4 -11 -1 -22 -14
-31 -40 -28 -15 -93 36 -93 28 0 30 -7 8 -38 -9 -13 -11 -22 -4 -22 5 0 19 14
29 31 l20 32 0 -57 c0 -50 -3 -57 -17 -50 -48 20 -89 33 -104 34 -26 0 -24 40
2 40 17 0 18 3 9 24 -7 14 -17 22 -24 20 -21 -9 -28 15 -9 33 16 16 15 18 -15
28 -26 8 -29 13 -19 23 11 11 8 12 -16 6 -26 -6 -28 -5 -21 16 6 20 4 22 -13
18 -15 -4 -26 1 -37 18 -20 31 -35 31 -35 -1 0 -15 6 -25 14 -25 8 0 17 -7 20
-16 9 -24 7 -100 -4 -129 -12 -32 -34 -23 -26 11 4 16 3 22 -6 19 -8 -3 -19 8
-27 27 -12 27 -16 30 -25 16 -9 -14 -11 -15 -21 -2 -9 13 -13 13 -31 -3 -29
-25 -47 -60 -34 -68 5 -3 10 -1 10 6 0 8 4 8 15 -1 19 -16 19 -27 1 -46 -17
-16 -36 -19 -36 -4 0 5 -15 27 -34 47 -18 21 -31 45 -28 53 3 8 1 12 -2 8 -7
-6 -38 14 -57 37 -4 6 -24 29 -45 53 -33 38 -37 59 -5 30 12 -11 13 -9 6 7 -4
11 -8 28 -9 37 0 12 -6 16 -17 13 -25 -8 -35 16 -14 32 25 18 35 16 35 -4 1
-16 2 -16 12 1 10 18 11 17 23 -10 16 -39 44 -39 74 -2 l24 30 -21 37 c-24 42
-21 74 11 109 24 25 42 29 33 6 -3 -8 -2 -13 3 -10 5 3 11 19 14 36 4 16 10
30 14 30 9 0 63 -82 63 -95 0 -4 -9 0 -20 10 -28 25 -39 9 -12 -17 27 -27 36
-18 38 37 1 33 -2 42 -12 38 -16 -6 -18 15 -4 51 11 30 25 35 17 7z m670 -57
c0 -8 -5 -14 -11 -14 -6 0 -17 -10 -25 -21 -10 -17 -15 -19 -21 -8 -6 8 -4 16
3 21 9 5 9 10 -1 20 -10 10 -14 10 -21 -1 -5 -8 -14 -10 -22 -6 -8 5 -5 -1 5
-13 17 -19 17 -22 3 -22 -10 0 -17 -5 -17 -11 0 -13 25 -39 39 -39 5 0 9 -9 8
-20 -1 -11 -5 -20 -10 -20 -5 0 -8 -10 -7 -22 3 -38 1 -50 -10 -43 -18 11 -10
-15 11 -36 16 -16 18 -23 8 -35 -10 -12 -13 -12 -24 3 -15 20 -32 12 -19 -9 5
-7 7 -25 5 -40 -1 -16 2 -28 7 -28 5 0 12 -10 15 -21 4 -16 11 -20 26 -16 27
7 35 -7 20 -31 -10 -17 -8 -25 12 -50 41 -51 64 -47 73 14 1 7 5 16 9 20 7 7
87 -37 112 -62 16 -16 45 -13 45 5 0 6 -6 8 -13 5 -7 -2 -21 3 -32 11 -20 16
-20 16 3 10 33 -9 27 5 -24 58 l-46 48 13 45 c7 24 17 44 21 44 4 0 8 7 8 15
0 14 -3 13 -24 -2 -24 -18 -38 -39 -50 -77 -6 -18 -7 -18 -27 0 -36 33 -43 54
-22 69 10 7 14 17 10 21 -4 4 -14 -2 -23 -14 -19 -27 -29 -28 -31 -2 -1 11 2
18 8 15 5 -4 9 5 9 19 0 14 4 27 10 31 5 3 7 13 4 23 -5 13 -4 14 4 3 6 -9 19
-11 41 -6 27 6 31 4 31 -14 0 -11 -5 -23 -12 -27 -8 -5 -9 0 -6 14 4 12 2 22
-3 22 -5 0 -9 -6 -9 -12 0 -7 -3 -24 -7 -38 -6 -22 -5 -24 10 -11 11 9 17 10
17 2 0 -6 5 -11 10 -11 6 0 10 8 10 18 0 27 10 33 27 17 8 -8 22 -15 31 -15
15 1 15 2 -1 11 -9 6 -15 15 -11 20 3 5 0 16 -6 24 -7 8 -9 15 -6 15 4 0 0 7
-8 16 -9 8 -16 24 -16 34 0 10 -7 31 -15 46 -8 16 -15 37 -15 47 0 15 6 17 38
11 20 -4 39 -10 42 -14 3 -4 12 -7 20 -7 20 -1 237 -91 319 -132 59 -30 62
-33 47 -50 -21 -24 -20 -69 3 -117 11 -21 17 -42 15 -46 -3 -4 -20 0 -39 10
-21 11 -30 21 -24 27 19 19 10 53 -16 59 -27 7 -34 26 -10 26 8 0 15 4 15 10
0 5 -7 7 -15 4 -8 -4 -17 1 -21 10 -3 9 -10 13 -15 11 -5 -3 -16 3 -26 15 -21
25 -46 26 -41 3 2 -10 11 -18 20 -18 24 0 58 -31 58 -52 0 -14 -3 -13 -16 5
-10 14 -22 21 -31 17 -9 -3 -22 0 -29 6 -11 9 -14 8 -14 -5 0 -10 -5 -14 -11
-11 -6 4 -8 13 -5 21 4 9 -3 18 -17 24 -14 6 -16 9 -6 9 9 1 16 8 16 16 0 9
-6 14 -13 11 -7 -3 -17 7 -22 22 -15 45 -112 134 -112 103 0 -5 7 -12 16 -15
15 -6 14 -9 -5 -25 -24 -21 -28 -46 -8 -54 8 -3 14 -22 15 -43 1 -30 -1 -35
-11 -25 -6 7 -12 24 -12 39 0 17 -6 28 -17 30 -25 5 -23 -29 3 -59 12 -13 35
-44 50 -68 30 -46 33 -44 32 16 0 6 7 13 16 16 15 4 16 -1 7 -44 -5 -26 -13
-46 -18 -43 -9 6 4 -32 28 -78 16 -30 15 -32 -7 -49 l-24 -19 27 0 c38 0 43
-15 19 -60 -20 -39 -20 -40 -1 -50 24 -13 40 -13 20 0 -10 7 -12 12 -4 18 19
12 25 48 12 78 -6 16 -12 36 -13 44 0 8 -11 34 -23 58 -22 41 -22 42 -2 42 11
0 20 -7 20 -15 0 -8 6 -15 14 -15 10 0 13 8 10 26 -4 23 -3 24 18 12 13 -7 29
-11 37 -9 9 2 12 -3 7 -14 -3 -9 -6 -21 -6 -27 0 -6 -6 -6 -15 2 -9 7 -15 8
-15 2 0 -5 8 -13 17 -16 10 -4 13 -10 8 -14 -6 -4 -17 -16 -25 -27 -15 -20
-14 -20 8 -1 19 17 22 17 22 3 0 -10 -4 -17 -10 -17 -5 0 -10 -7 -10 -15 0
-10 10 -14 37 -12 30 2 40 -2 47 -20 7 -14 21 -23 43 -25 18 -2 33 0 33 4 0 4
11 8 23 8 33 0 36 6 24 47 -9 30 -8 36 6 44 22 13 22 33 0 25 -12 -4 -9 1 6
12 19 15 22 25 17 46 -4 16 -13 26 -25 26 -10 0 -22 7 -25 16 -5 14 -4 15 9 4
9 -7 18 -10 22 -6 3 3 12 -3 20 -14 8 -11 18 -20 24 -20 19 0 8 27 -21 53 -32
29 -40 57 -16 57 23 0 135 -70 156 -98 21 -26 26 -52 11 -52 -5 0 -16 11 -25
25 -20 30 -49 34 -44 6 2 -10 -6 -28 -16 -40 -11 -12 -14 -21 -9 -21 6 0 13
-7 17 -15 5 -13 2 -13 -19 1 -24 16 -25 15 -25 -4 0 -12 -4 -24 -10 -27 -5 -3
-10 1 -10 9 0 9 -5 16 -11 16 -6 0 -8 -8 -4 -19 3 -11 1 -22 -5 -26 -15 -9
-12 -28 4 -22 8 3 16 -2 19 -14 4 -13 0 -19 -11 -19 -12 0 -13 -3 -4 -12 14
-14 16 -32 3 -24 -5 4 -29 -13 -53 -36 -47 -46 -103 -88 -118 -88 -6 0 -10 -7
-10 -15 0 -8 -5 -15 -11 -15 -5 0 -7 6 -3 13 5 8 2 7 -10 -2 -15 -12 -19 -12
-32 7 -8 12 -24 22 -36 22 -16 0 -19 5 -16 25 6 31 0 31 -33 1 -14 -13 -41
-29 -61 -35 -20 -7 -38 -15 -40 -19 -2 -4 -32 -22 -68 -41 -78 -41 -91 -51
-59 -47 27 3 89 36 89 48 0 8 65 38 78 37 4 -1 19 -1 34 0 20 1 26 5 22 16 -4
8 -1 15 5 15 6 0 11 -4 11 -8 0 -4 13 -13 30 -19 16 -6 33 -18 36 -27 9 -24
-35 -57 -65 -50 -20 4 -22 3 -14 -8 12 -13 -18 -43 -92 -95 -36 -24 -70 -20
-38 6 36 28 37 54 3 75 -48 28 -62 9 -58 -75 l4 -67 -38 -13 c-26 -8 -38 -18
-36 -28 3 -14 -70 -91 -86 -91 -16 0 -3 22 19 32 14 6 25 18 25 27 0 12 -3 12
-12 3 -18 -18 -28 -15 -28 10 0 20 -1 21 -20 3 -11 -10 -17 -22 -13 -28 4 -6
0 -8 -10 -4 -18 7 -23 -3 -8 -18 6 -6 4 -20 -4 -35 l-14 -25 -1 30 c0 17 -5
36 -12 43 -9 9 -9 12 1 12 16 0 84 68 96 96 4 10 7 25 6 32 -2 16 80 17 97 0
9 -9 13 -7 18 6 4 11 0 22 -11 30 -15 10 -33 9 -109 -11 -126 -32 -121 -30
-105 -50 11 -13 11 -15 1 -9 -8 5 -22 0 -35 -12 l-22 -21 3 70 c2 38 6 69 9
69 3 0 14 -12 25 -26 l20 -25 22 20 c12 12 28 21 34 21 15 0 15 5 0 33 -6 12
-14 29 -18 37 -5 10 -19 14 -41 12 l-34 -3 5 72 c3 44 10 74 18 77 6 2 12 11
12 20 0 10 9 28 20 42 l19 25 23 -28 c31 -35 39 -34 25 2 -6 17 -21 32 -33 35
-14 4 -24 17 -29 38 l-8 33 -4 -30 c-4 -37 -33 -105 -44 -105 -5 0 -4 12 2 28
6 15 12 50 14 77 5 79 5 82 15 60 7 -18 9 -18 15 -3 5 14 10 15 25 5 29 -17
37 0 11 24 -17 16 -25 18 -36 9 -22 -18 -26 4 -16 72 6 35 11 86 12 115 2 29
6 50 10 48 4 -3 9 7 12 20 2 14 1 28 -3 30 -4 3 -8 25 -8 51 -1 44 0 46 23 41
14 -2 25 -1 25 2 0 4 17 5 38 3 25 -2 39 -9 39 -18z m-1184 -191 c20 -27 23
-39 14 -45 -9 -6 -9 -10 2 -17 15 -10 16 -9 -46 -79 -18 -20 -33 -40 -33 -44
0 -4 -17 -8 -38 -8 -43 0 -68 -21 -70 -57 0 -15 5 -23 15 -23 12 0 14 -7 10
-30 -4 -16 -2 -30 3 -30 5 0 7 -7 3 -16 -4 -10 1 -17 16 -21 12 -3 21 -13 21
-24 0 -10 5 -21 10 -24 6 -4 8 -11 5 -16 -3 -5 1 -6 9 -3 9 3 16 1 16 -5 0 -6
-4 -11 -10 -11 -5 0 -10 -8 -10 -17 0 -15 2 -15 14 2 12 17 16 17 31 5 16 -13
16 -14 -2 -21 -10 -3 -18 -10 -19 -15 -3 -34 -19 -63 -40 -73 -33 -15 -44 -14
-44 4 0 8 6 12 14 9 15 -6 56 32 56 53 0 21 -10 15 -21 -14 -8 -22 -12 -24
-19 -13 -6 8 -10 26 -10 39 0 24 0 24 -20 6 -17 -15 -23 -16 -33 -6 -9 11 -9
14 1 18 6 3 12 18 12 34 0 16 5 38 12 49 7 10 10 22 7 25 -12 12 -35 -7 -53
-43 -10 -20 -25 -50 -34 -67 -14 -27 -14 -29 0 -17 13 10 17 10 21 0 4 -13
-35 -76 -71 -114 -12 -13 -19 -32 -18 -48 2 -18 -2 -27 -15 -31 -12 -4 -19
-16 -19 -31 0 -13 -4 -24 -10 -24 -18 0 -11 -25 11 -39 18 -11 23 -11 30 0 4
8 11 10 16 6 10 -11 -11 -42 -28 -42 -8 0 -20 -4 -27 -9 -7 -4 -11 -3 -10 2 2
6 -1 10 -5 10 -5 1 -17 11 -28 23 -15 17 -19 19 -19 6 0 -9 5 -19 10 -22 6 -3
10 -11 10 -16 0 -10 -49 -2 -63 11 -15 13 24 129 85 258 58 122 66 144 49 140
-5 -2 -8 2 -7 7 0 6 6 9 12 9 6 -1 17 15 24 35 21 57 71 142 89 148 29 11 43
26 31 33 -7 4 4 31 31 76 56 94 90 144 99 144 4 0 19 -17 33 -37z m-1178 19
c6 -4 10 -16 11 -27 0 -11 4 -45 8 -75 l7 -55 -26 33 c-15 17 -31 32 -36 32
-6 0 -25 11 -43 25 -42 32 -51 32 -29 -2 13 -19 14 -28 5 -31 -9 -3 -9 -9 -1
-23 8 -15 7 -24 -2 -35 -10 -13 -10 -20 0 -36 11 -18 11 -20 -3 -15 -21 8 -20
-2 2 -19 21 -16 0 -19 -28 -4 -15 8 -18 7 -14 -3 3 -8 -2 -17 -12 -21 -15 -6
-14 -9 6 -26 21 -19 22 -20 4 -20 -11 0 -27 -9 -37 -20 -11 -13 -26 -19 -45
-17 -38 4 -48 12 -61 47 -5 17 -6 28 -1 25 5 -3 6 9 3 29 -4 28 0 39 29 72 20
22 43 55 52 75 13 29 30 42 84 66 67 31 108 39 127 25z m1387 -239 c10 -16 30
-41 45 -58 44 -46 63 -77 63 -102 0 -13 5 -23 10 -23 18 0 11 -18 -10 -25 -11
-3 -20 -13 -20 -21 0 -8 -7 -14 -15 -14 -8 0 -15 -6 -15 -14 0 -8 -13 -18 -28
-24 -23 -8 -31 -6 -40 7 -9 14 -11 13 -12 -9 -1 -70 -113 -221 -194 -265 l-34
-18 -27 29 c-26 29 -20 7 9 -30 13 -16 19 -17 45 -6 17 7 36 18 42 26 19 23
32 16 24 -13 -6 -26 -6 -27 13 -10 25 23 31 22 42 -9 6 -14 14 -22 20 -19 6 3
10 -5 10 -18 0 -14 -7 -27 -15 -31 -8 -3 -15 -11 -15 -18 0 -7 -9 -19 -20 -26
-13 -8 -20 -8 -20 -1 0 5 -4 8 -8 5 -5 -3 -24 8 -43 24 -19 16 -39 29 -46 30
-6 0 -13 5 -15 12 -3 8 -12 4 -25 -9 -20 -20 -23 -21 -73 -6 -28 8 -48 18 -45
21 10 11 59 8 67 -3 5 -6 8 -3 8 7 0 9 -9 20 -20 23 -11 3 -20 10 -20 15 0 5
-3 15 -6 23 -3 10 2 18 15 22 12 3 21 13 21 21 0 9 7 22 14 30 13 12 17 12 28
-1 7 -9 18 -21 24 -28 5 -7 13 -20 17 -30 9 -23 30 -12 77 40 44 49 60 77 60
105 1 21 1 22 11 5 10 -17 13 -16 30 12 21 36 25 55 5 29 -9 -13 -20 -15 -42
-9 -36 9 -44 43 -15 63 21 15 21 15 -5 26 -33 16 -37 15 -30 -3 6 -16 -2 -19
-20 -7 -18 12 -10 59 14 80 12 11 22 24 22 31 0 6 4 11 10 11 5 0 26 11 46 25
35 24 38 24 51 8 11 -14 13 -14 10 -3 -2 8 -13 19 -25 25 -16 7 -20 15 -15 34
3 13 6 31 7 40 1 16 25 50 36 51 3 0 13 -12 22 -27z m1838 -37 c0 -2 -30 -26
-66 -52 -48 -35 -62 -50 -49 -53 14 -2 15 -5 4 -11 -19 -12 -4 -24 18 -15 10
4 28 9 41 11 23 3 23 3 -2 -17 -14 -11 -25 -24 -23 -29 1 -5 -6 -15 -16 -22
-20 -15 -36 -73 -37 -128 0 -19 -7 -48 -16 -65 -9 -18 -11 -31 -5 -33 5 -2 7
-10 4 -18 -4 -10 -9 -12 -18 -4 -10 8 -14 4 -19 -15 -9 -34 -19 -32 -34 8 -11
28 -10 34 6 47 15 12 17 20 9 38 -15 33 -37 28 -37 -9 l0 -30 -37 30 c-20 17
-39 28 -42 25 -3 -3 5 -14 18 -25 13 -10 20 -19 16 -19 -3 0 10 -19 29 -42 20
-23 36 -45 36 -50 0 -5 11 -26 24 -47 l24 -38 -47 -2 c-41 -1 -49 2 -58 21
-18 40 -94 129 -104 122 -6 -3 -21 6 -34 20 l-24 25 5 -47 c3 -26 17 -67 31
-91 20 -34 22 -43 10 -38 -13 5 -16 0 -14 -24 1 -16 5 -29 10 -29 4 0 12 0 17
0 6 0 10 7 10 15 0 8 4 15 9 15 5 0 9 -21 9 -47 0 -52 10 -93 22 -93 5 0 6 10
2 22 -3 14 -2 19 6 14 7 -4 12 -13 12 -20 0 -9 12 -13 34 -12 31 1 33 3 23 21
-6 11 -10 32 -8 47 1 17 -4 30 -16 38 -16 10 -15 11 9 7 15 -2 25 0 22 4 -9
15 63 10 76 -6 7 -9 9 -26 5 -45 -5 -23 -3 -30 8 -30 24 0 70 27 58 35 -6 3
-11 12 -11 18 1 7 12 -1 25 -18 21 -26 25 -27 31 -11 5 14 9 15 15 5 13 -22
21 -2 9 21 -8 15 -15 19 -19 11 -5 -8 -16 -5 -37 11 -16 12 -30 22 -31 22 -1
1 4 18 10 39 14 44 31 49 25 7 -4 -28 6 -43 14 -19 2 6 39 12 86 14 66 2 82 0
82 -12 0 -8 -5 -11 -11 -8 -6 4 -9 0 -7 -11 2 -14 -2 -18 -16 -16 -15 3 -17
-1 -12 -21 4 -16 1 -27 -7 -30 -9 -4 -9 -7 1 -18 10 -11 12 -10 12 5 0 14 5
17 23 12 12 -3 27 -6 33 -6 6 0 16 -16 22 -36 8 -29 8 -36 -4 -41 -13 -5 -44
0 -77 13 -12 4 -14 0 -10 -18 5 -22 5 -22 -9 -4 -15 20 -38 15 -38 -8 0 -8
-13 -16 -29 -19 -23 -5 -28 -10 -24 -26 4 -15 12 -19 33 -16 18 2 34 -3 42
-12 11 -14 10 -15 -10 -9 -17 6 -22 3 -22 -9 0 -9 4 -14 8 -11 5 3 14 -10 19
-29 l11 -35 -31 5 c-18 2 -45 4 -61 4 -23 1 -27 4 -18 13 7 7 12 19 12 28 -1
12 -4 11 -15 -4 -15 -20 -15 -20 -16 0 -1 10 -1 25 0 31 3 20 -18 53 -33 53
-17 0 -15 -22 4 -46 12 -13 12 -18 3 -21 -7 -3 -13 -9 -13 -14 0 -4 7 -6 15
-3 10 4 15 0 15 -14 0 -17 -7 -20 -50 -20 l-50 -1 -1 37 c-1 36 -1 36 -8 7 -6
-27 -10 -30 -45 -29 -38 1 -56 15 -56 43 0 11 4 9 15 -5 13 -16 16 -17 25 -4
13 19 13 30 0 30 -5 0 -10 -6 -11 -12 0 -7 -7 1 -14 17 -15 35 -7 45 42 45 26
0 34 -5 39 -25 3 -14 10 -25 14 -25 5 0 2 20 -6 45 -13 36 -19 43 -32 36 -9
-5 -34 -14 -56 -21 -37 -12 -39 -11 -62 16 -13 16 -23 25 -24 20 0 -19 -29 30
-30 50 0 13 -9 24 -22 29 -19 6 -20 8 -6 12 14 3 16 11 11 36 -4 18 -12 37
-19 42 -17 14 -25 77 -8 71 8 -3 16 -1 19 5 11 17 -27 23 -40 6 -13 -18 -30
-24 -20 -7 3 6 1 10 -5 10 -8 0 -10 -9 -6 -24 4 -16 0 -28 -11 -37 -15 -13
-16 -11 -9 14 4 18 3 26 -3 23 -5 -4 -11 1 -13 9 -3 14 -5 14 -23 1 -12 -10
-16 -19 -10 -23 15 -12 14 -52 -2 -46 -18 7 -17 -22 1 -37 29 -23 60 -8 72 35
6 22 15 38 20 35 5 -3 8 -7 7 -10 -1 -3 -3 -31 -6 -63 -3 -40 -10 -62 -22 -71
-10 -7 -15 -18 -11 -24 11 -18 24 -14 31 8 3 11 11 20 17 20 5 0 8 -6 5 -12
-2 -7 0 -21 5 -31 13 -25 -16 -57 -51 -57 l-26 0 30 -25 c31 -25 55 -32 55
-15 0 6 -7 10 -15 10 -8 0 -15 5 -15 10 0 13 17 13 25 0 3 -6 18 -8 33 -5 23
4 24 4 7 -4 -20 -10 -19 -10 3 -17 13 -4 22 -14 22 -28 1 -18 3 -18 16 8 12
21 19 25 27 17 15 -15 30 -14 21 2 -5 9 -4 9 5 1 17 -16 -3 -56 -24 -48 -12 5
-14 0 -9 -25 4 -20 3 -31 -5 -31 -6 0 -11 6 -11 13 0 8 -6 14 -12 14 -177 9
-331 16 -360 17 -21 0 -36 6 -34 11 1 6 10 9 19 7 24 -4 30 16 12 44 -14 22
-14 26 0 40 23 23 7 38 -21 20 -13 -9 -32 -16 -43 -16 -29 0 -35 -17 -9 -24
18 -4 20 -8 10 -18 -6 -6 -12 -17 -12 -22 0 -6 7 0 16 12 19 27 34 29 27 2 -3
-11 -9 -20 -14 -20 -5 0 -9 -7 -9 -15 0 -20 -6 -19 -30 5 -11 11 -27 20 -35
20 -8 0 -15 4 -15 10 0 5 -11 0 -25 -12 -13 -11 -22 -25 -18 -31 3 -5 -5 -4
-17 3 l-22 12 33 34 c18 19 39 32 46 30 7 -3 13 0 13 7 0 6 30 41 66 78 60 61
68 65 90 55 13 -6 23 -15 22 -21 -3 -16 23 -85 32 -85 5 0 11 8 13 18 3 11 3
11 2 -3 -1 -11 -6 -28 -10 -37 -5 -13 -2 -18 10 -18 11 0 15 5 12 14 -4 9 3
16 16 20 18 5 19 8 7 16 -17 11 -20 41 -5 52 6 4 -7 8 -28 8 -28 0 -36 3 -30
13 4 6 8 17 9 22 1 6 5 24 8 40 3 17 3 24 0 18 -3 -7 -13 -13 -21 -13 -14 0
-14 3 2 20 10 11 27 18 38 16 24 -3 62 35 45 45 -7 4 5 21 28 41 98 85 192
168 224 198 145 138 350 294 350 266z m65 -127 c-4 -10 -2 -19 4 -19 18 0 61
-47 61 -66 -1 -18 -1 -18 -11 -1 -5 9 -14 17 -18 17 -14 0 1 -54 18 -67 9 -6
16 -15 17 -20 0 -4 6 -21 12 -36 17 -40 15 -49 -8 -43 -11 3 -30 9 -42 12 -20
6 -21 5 -9 -10 9 -10 10 -16 2 -16 -6 0 -11 5 -11 11 0 8 -5 7 -15 -1 -12 -10
-13 -15 -4 -20 8 -6 8 -13 -1 -30 -7 -13 -8 -20 -2 -16 18 11 23 -12 6 -28
-26 -26 -37 -19 -30 19 5 23 3 35 -4 35 -7 0 -9 8 -5 20 5 15 2 20 -12 20 -15
0 -16 2 -3 10 17 10 20 39 6 58 -8 12 -5 13 34 16 23 1 24 42 2 64 -11 11 -21
25 -24 32 -3 9 -8 9 -20 -3 -9 -9 -18 -22 -20 -28 -3 -9 -10 -8 -28 1 -17 9
-21 15 -11 18 7 2 17 -2 22 -9 12 -20 11 3 -1 37 -9 24 -9 25 5 14 21 -17 65
2 65 28 0 22 9 34 22 26 5 -3 6 -14 3 -25z m-1745 -100 c0 -7 9 -9 21 -6 24 7
43 -8 47 -38 2 -18 2 -18 -8 -2 -6 9 -18 17 -26 17 -8 0 -12 -4 -9 -10 3 -5 3
-10 -2 -10 -4 0 -13 -10 -18 -23 -12 -26 -4 -84 10 -77 6 3 9 7 8 10 -7 25 -6
44 4 47 7 3 15 -7 19 -21 3 -14 12 -26 20 -26 9 0 11 6 7 18 -6 15 -5 15 10 3
9 -7 14 -17 11 -22 -3 -5 -1 -9 5 -9 5 0 13 5 16 10 10 16 23 12 35 -11 9 -15
8 -24 0 -35 -7 -8 -9 -25 -6 -40 4 -14 3 -23 -2 -20 -29 18 -62 -94 -38 -126
11 -14 12 -9 8 37 -5 58 -3 62 27 43 15 -9 24 -8 43 4 19 13 27 13 41 3 23
-16 22 -25 -3 -25 -11 0 -20 -5 -20 -11 0 -8 -5 -7 -15 1 -30 25 -27 0 4 -32
17 -17 31 -27 31 -21 0 6 -6 13 -12 16 -21 7 -2 18 41 24 35 5 44 2 71 -25 16
-17 30 -37 30 -46 0 -13 84 -81 102 -81 4 0 13 -6 20 -13 10 -10 7 -17 -14
-37 -21 -19 -37 -25 -70 -24 -24 1 -35 3 -25 6 20 5 23 33 4 33 -7 0 -18 -5
-24 -11 -15 -15 -103 -22 -103 -9 0 5 -10 10 -22 10 -32 0 -50 14 -42 33 4 12
11 14 31 6 22 -8 24 -7 17 13 -9 31 -12 34 -26 20 -18 -18 -30 -14 -23 7 3 11
-1 26 -12 36 -12 13 -18 14 -21 5 -2 -6 1 -17 7 -23 15 -15 14 -30 -1 -21 -8
5 -9 -3 -5 -29 10 -61 -16 -44 -58 38 -43 85 -69 120 -84 111 -5 -4 -19 7 -31
24 -12 16 -16 30 -10 30 7 0 9 8 5 21 -4 12 -2 24 3 28 7 4 8 12 2 21 -7 10
-10 11 -10 3 0 -18 -31 -16 -55 3 l-20 15 20 16 c19 15 19 15 -7 9 -27 -6 -28
-5 -28 34 0 22 -5 40 -11 40 -7 0 -10 -19 -7 -52 2 -37 -1 -53 -11 -56 -11 -4
-13 4 -8 42 4 30 2 54 -5 66 -10 15 -10 22 0 32 11 11 16 10 27 -5 9 -13 15
-15 20 -6 4 6 2 15 -5 19 -9 6 -7 11 8 19 31 16 44 14 75 -14 15 -14 27 -21
27 -15 0 5 7 10 15 10 8 0 15 4 15 9 0 5 -12 9 -26 9 -29 0 -49 15 -40 31 9
14 56 14 56 0z m-120 -208 c0 -25 -23 -65 -51 -88 -27 -23 -29 -28 -16 -41 8
-8 20 -11 27 -7 8 5 6 11 -6 20 -16 12 -16 13 5 20 17 5 29 1 47 -16 13 -13
24 -17 24 -10 0 7 5 9 10 6 6 -3 10 -14 10 -23 0 -9 9 -28 20 -42 19 -24 20
-24 20 -4 0 12 6 24 14 27 17 7 27 -35 19 -76 -7 -35 -37 -43 -111 -28 -31 7
-76 13 -100 16 -24 2 -46 6 -50 9 -3 3 14 22 37 42 42 36 42 37 22 55 -23 21
-26 12 37 112 23 35 42 48 42 28z m1991 -18 c-12 -14 -19 -29 -15 -32 3 -3 11
1 17 10 17 22 45 30 54 16 4 -6 6 -26 4 -44 -1 -19 2 -33 8 -33 7 0 9 -12 6
-29 -3 -17 -1 -32 4 -36 6 -3 4 -20 -5 -41 -14 -34 -14 -35 6 -24 16 8 20 8
20 -4 0 -8 -5 -18 -11 -22 -10 -6 -7 -30 7 -68 4 -10 1 -16 -9 -16 -8 0 -17
-10 -21 -22 -10 -39 -7 -51 12 -46 20 6 42 -20 42 -47 0 -13 -18 -15 -112 -14
-62 1 -100 4 -85 6 24 4 28 8 23 26 -3 12 -6 28 -6 36 0 11 -3 11 -17 0 -15
-12 -16 -12 -10 5 11 29 -17 66 -45 58 -19 -4 -21 -3 -11 9 18 22 63 23 69 1
16 -52 35 -83 47 -76 8 5 7 2 -2 -9 -11 -14 -11 -20 -1 -32 14 -17 69 -17 71
0 1 5 3 21 4 35 2 14 6 39 9 55 6 24 3 33 -13 42 -18 11 -19 10 -14 -4 6 -14
3 -14 -20 3 -27 19 -34 34 -18 34 5 0 12 20 15 43 4 29 12 44 21 44 8 0 15 -7
15 -15 0 -21 13 -6 17 18 2 11 -1 19 -6 17 -5 -1 -17 7 -25 18 -15 20 -15 20
-16 -2 0 -12 -4 -25 -10 -28 -5 -3 -10 2 -10 13 0 10 -11 24 -25 30 -28 13
-35 52 -9 52 8 0 13 4 10 9 -13 20 25 83 52 90 2 1 -6 -11 -17 -26z m-2365
-346 c-8 -31 11 -57 42 -57 32 0 52 16 52 40 0 19 56 26 76 9 8 -7 14 -6 19 1
3 6 10 8 15 5 11 -7 1 -42 -16 -56 -11 -9 -14 -7 -14 10 0 12 -4 19 -10 16 -5
-3 -10 -15 -10 -26 0 -12 -7 -19 -20 -19 -11 0 -20 -4 -20 -10 0 -5 6 -10 14
-10 8 0 18 5 21 10 13 21 24 9 19 -19 -4 -17 0 -41 10 -59 9 -17 13 -38 10
-46 -3 -9 -1 -16 5 -16 7 0 14 7 17 15 5 13 9 13 26 1 11 -8 27 -12 34 -9 8 3
14 1 14 -5 0 -5 -13 -12 -29 -14 -17 -2 -27 0 -24 5 13 21 -44 -7 -77 -38 -46
-43 -69 -53 -104 -48 -39 6 -86 40 -86 63 0 14 9 20 37 22 48 4 51 19 11 59
-23 23 -27 30 -13 25 40 -16 55 -18 92 -11 32 6 35 9 18 15 -28 12 -37 12 -30
0 10 -17 -11 -11 -38 10 -14 11 -32 18 -40 14 -8 -3 -17 2 -20 10 -4 9 -1 16
6 16 26 0 -19 20 -46 20 -16 0 -26 4 -22 10 3 6 0 10 -9 10 -8 0 -17 -6 -19
-12 -4 -8 -8 -4 -12 10 -7 22 -45 32 -45 12 0 -20 -28 -10 -35 13 -16 46 -14
58 9 51 11 -3 29 -14 40 -23 18 -15 18 -15 11 17 -7 36 -4 39 20 16 19 -19 33
-11 17 9 -9 11 0 11 49 -1 53 -13 60 -18 55 -35z m736 -92 c24 -4 45 -16 58
-33 l22 -27 -6 30 c-6 29 -6 29 6 7 9 -18 9 -28 0 -43 -9 -14 -9 -19 0 -19 6
0 8 -3 5 -7 -4 -3 -2 -12 4 -19 7 -8 7 -14 -1 -19 -5 -3 -10 1 -10 9 0 21 -19
20 -42 -1 -22 -20 -24 -37 -2 -29 9 3 12 2 9 -5 -4 -6 -13 -8 -20 -5 -7 2 -25
-9 -41 -25 -15 -15 -42 -33 -61 -40 -18 -6 -33 -15 -33 -20 0 -5 -4 -9 -10 -9
-5 0 -10 7 -10 16 0 8 -8 23 -17 32 -16 16 -16 16 -10 0 5 -15 1 -18 -27 -18
-18 0 -39 -7 -46 -15 -17 -21 -74 -21 -66 0 4 12 0 14 -18 11 -41 -7 -20 43
44 104 31 30 65 67 75 82 9 15 21 26 25 23 5 -3 10 0 12 6 3 9 10 9 27 0 15
-9 19 -16 13 -24 -7 -8 -4 -25 9 -51 11 -22 17 -49 13 -60 -3 -12 -8 -29 -10
-38 -3 -10 -1 -18 5 -18 6 0 11 7 11 15 0 8 5 15 10 15 6 0 10 15 10 34 0 39
15 56 23 26 3 -13 10 -18 21 -14 21 8 21 30 0 38 -15 6 -14 10 7 32 22 24 22
26 4 22 -11 -2 -25 -14 -31 -27 -12 -23 -12 -23 -23 -3 -6 11 -11 30 -11 41 0
12 -6 21 -12 21 -9 0 -8 3 2 10 8 5 24 7 35 5 11 -2 37 -7 57 -10z m372 -68
c9 -9 34 -11 86 -7 65 5 73 3 80 -14 4 -13 9 -16 14 -8 4 7 15 12 26 12 16 0
17 -3 7 -25 -7 -14 -16 -23 -22 -21 -41 14 -55 16 -55 7 0 -6 9 -11 20 -11 15
0 20 -7 20 -24 0 -16 7 -27 20 -31 16 -5 19 -12 14 -28 -3 -12 -10 -26 -15
-31 -5 -5 -1 -15 9 -22 10 -8 12 -13 5 -14 -7 0 -13 -10 -13 -22 0 -18 2 -20
10 -8 10 17 11 16 33 -30 15 -33 22 -28 18 13 -3 25 8 21 19 -8 12 -32 34 -41
65 -27 40 18 48 46 23 77 -17 22 -27 26 -54 23 -31 -4 -34 -2 -34 24 0 18 5
28 15 28 8 0 15 5 15 10 0 6 7 10 16 10 26 0 13 43 -16 51 -15 4 -18 7 -8 8
10 1 20 12 24 26 3 14 10 25 16 25 5 0 7 -9 3 -19 -3 -11 -1 -22 5 -26 5 -3
10 -21 10 -40 0 -42 9 -67 22 -59 5 3 15 -1 21 -11 20 -26 47 -9 40 26 -3 18
-1 29 6 29 6 0 11 -12 11 -26 0 -22 3 -24 23 -18 22 7 22 6 3 -15 -21 -23 -56
-27 -88 -10 -11 6 -22 8 -25 5 -4 -3 10 -13 30 -21 44 -18 45 -26 12 -59 -28
-29 -30 -41 -12 -77 9 -16 11 -33 6 -48 -9 -22 -31 -20 -28 2 3 28 -2 39 -16
34 -8 -4 -17 -2 -21 4 -4 6 -13 4 -25 -7 -10 -9 -19 -12 -19 -6 0 6 5 14 10
17 12 7 4 25 -11 25 -5 0 -9 -15 -9 -32 l-1 -33 -25 30 c-14 17 -41 46 -58 65
-18 19 -41 48 -52 65 -17 26 -17 28 -2 22 10 -3 17 -3 16 1 -1 4 4 18 11 30
l13 24 -30 -22 c-28 -21 -32 -21 -53 -6 -13 9 -19 16 -14 16 6 0 -13 22 -40
48 -28 26 -57 61 -65 77 -8 17 -16 33 -18 38 -6 12 18 8 32 -6z m-1200 -90
c-1 -9 2 -17 7 -17 5 0 9 -7 9 -15 0 -8 9 -19 20 -25 14 -7 20 -7 20 0 0 5 5
10 10 10 6 0 10 -8 8 -17 -4 -20 27 -31 93 -32 38 -1 50 4 74 29 16 17 35 28
41 26 7 -3 14 4 17 16 5 16 10 18 29 12 13 -5 38 -9 56 -9 36 0 36 1 21 -26
-8 -16 -13 -18 -24 -9 -8 6 -29 10 -47 8 -33 -3 -33 -3 -30 -51 4 -44 2 -47
-18 -45 -13 2 -25 -3 -27 -9 -3 -8 5 -13 22 -13 41 0 25 -24 -18 -28 -28 -2
-37 1 -37 12 0 9 4 16 9 16 5 0 6 12 2 28 -7 26 -9 27 -79 27 -40 0 -72 -3
-72 -6 0 -14 -68 -47 -77 -38 -6 6 -8 -11 -6 -46 3 -54 2 -56 -19 -49 -26 7
-58 33 -58 46 0 14 22 9 36 -9 7 -10 16 -15 20 -10 4 4 0 13 -9 20 -19 13 -23
46 -12 95 8 33 -7 47 -19 17 -9 -24 -24 -17 -19 10 3 14 -1 31 -11 40 -20 21
-21 49 -1 41 8 -3 14 -2 14 2 -3 19 4 22 39 19 28 -2 37 -7 36 -20z m1986 13
c0 -5 -4 -12 -10 -15 -15 -9 -12 -25 6 -25 8 0 22 -15 30 -32 8 -18 22 -44 29
-58 14 -24 15 -24 15 -4 0 30 -25 86 -34 77 -4 -4 -4 1 0 12 6 15 9 16 16 4 5
-8 20 -32 33 -54 l24 -40 1 37 c0 27 6 41 23 53 19 13 20 17 7 26 -11 7 6 8
55 3 39 -4 101 -8 140 -8 62 -1 70 -3 73 -21 2 -11 15 -30 30 -42 15 -13 21
-23 14 -23 -7 0 -10 -4 -7 -10 8 -13 2 -13 -30 2 -23 10 -30 20 -26 41 1 5 -4
5 -10 2 -6 -4 -8 -16 -6 -27 4 -15 2 -19 -12 -15 -9 2 -32 -9 -51 -24 -19 -16
-29 -29 -22 -29 17 0 15 -17 -7 -84 l-18 -57 21 7 c34 10 39 20 27 55 -14 39
-6 53 9 15 15 -39 13 -83 -4 -83 -23 0 -76 -25 -76 -35 0 -6 7 -7 15 -4 8 3
22 9 30 12 18 7 20 -10 3 -28 -13 -13 -32 -50 -42 -80 -7 -24 3 -48 21 -48 8
0 13 -5 11 -11 -2 -6 -7 -10 -11 -10 -4 1 -14 1 -23 1 -11 0 -14 6 -9 20 5 16
2 20 -15 20 -17 0 -19 3 -10 19 15 29 12 41 -9 41 -12 0 -21 9 -25 26 -6 22
-11 25 -34 19 -25 -6 -26 -5 -11 12 9 10 14 24 12 31 -3 6 0 12 6 12 6 0 11
-5 11 -12 0 -6 3 -8 6 -5 4 4 1 13 -6 22 -10 12 -9 20 4 40 9 14 18 25 20 25
1 0 2 -18 2 -40 -1 -22 1 -40 4 -40 16 1 32 19 25 30 -5 9 -2 10 13 6 15 -5
21 -1 24 18 3 15 0 27 -8 30 -8 3 -14 14 -14 25 0 11 -6 21 -12 24 -18 5 -48
-3 -48 -14 0 -5 -13 -9 -30 -9 -26 0 -30 4 -31 28 l-1 27 -12 -28 c-15 -34
-52 -61 -72 -53 -8 3 -22 1 -32 -4 -9 -5 -34 -16 -54 -24 l-38 -15 0 29 c0 16
-4 32 -10 35 -5 3 -10 22 -10 41 0 30 4 35 30 41 83 16 63 113 -21 101 -25 -4
-29 -1 -29 18 0 13 7 24 18 27 32 8 122 6 122 -3z m576 -24 c19 -6 20 -10 10
-41 l-11 -34 -14 27 c-14 27 -14 27 -24 5 -5 -12 -6 -30 -2 -40 10 -21 12 -29
14 -44 0 -6 7 -9 14 -6 14 5 18 -38 6 -58 -4 -5 -4 -18 0 -28 13 -36 -1 -86
-33 -117 -17 -17 -31 -37 -31 -43 -1 -7 -6 -11 -13 -9 -7 1 -12 -2 -12 -8 0
-5 4 -10 8 -10 4 0 8 -9 9 -20 2 -18 0 -19 -14 -5 -8 9 -20 14 -27 12 -17 -6
-19 -34 -3 -48 18 -17 7 -59 -28 -104 -14 -19 -25 -37 -25 -40 0 -8 -21 -27
-45 -41 -11 -6 -24 -25 -29 -42 -9 -27 -13 -30 -38 -25 -31 6 -35 -1 -13 -24
22 -22 15 -45 -17 -54 -31 -8 -36 2 -13 21 13 11 13 15 3 21 -7 5 -17 9 -23 9
-5 0 -4 -4 4 -9 16 -10 6 -31 -14 -31 -23 0 -28 20 -9 41 12 14 17 33 15 59
-1 21 2 41 8 45 8 4 8 12 1 25 -14 26 -13 34 10 60 11 13 20 18 20 13 0 -6 10
-13 22 -16 16 -4 19 -9 11 -19 -12 -16 -11 -71 2 -78 5 -3 12 9 15 25 5 25 10
30 35 30 22 0 31 5 33 20 2 11 10 25 18 32 10 7 11 13 5 17 -6 4 -8 13 -4 21
6 17 -5 19 -26 6 -8 -5 -12 -18 -9 -29 11 -40 -8 -46 -41 -12 -17 18 -29 36
-26 39 4 3 10 -1 15 -9 6 -8 10 -10 11 -5 5 26 9 73 9 106 1 27 6 38 20 42 12
3 20 -2 23 -15 4 -14 2 -18 -9 -14 -8 3 -14 1 -14 -3 0 -15 79 -18 85 -3 10
26 6 64 -7 56 -7 -4 -8 -3 -4 4 4 7 3 20 -3 29 -6 12 -5 26 5 45 8 15 15 31
17 35 1 5 6 7 10 5 5 -1 21 5 38 15 35 21 39 63 10 94 -15 17 -17 27 -10 51 6
22 4 34 -5 44 -8 7 -16 10 -20 7 -3 -4 -6 1 -6 10 0 12 9 17 28 17 15 0 34 4
42 10 8 5 17 5 20 1 3 -5 14 -11 26 -15z m-1372 -179 c15 -42 38 -90 50 -105
30 -35 49 -72 38 -72 -5 0 -15 11 -22 25 -19 36 -23 24 -8 -24 9 -28 17 -40
27 -36 10 4 12 -2 8 -22 -3 -17 0 -34 9 -44 13 -14 12 -18 -2 -30 -15 -12 -16
-11 -10 9 5 13 3 22 -3 22 -6 0 -11 12 -11 27 0 32 -7 27 -14 -10 -2 -14 -7
-31 -11 -37 -3 -5 -1 -20 6 -32 6 -13 8 -20 4 -16 -10 9 -47 -31 -39 -43 3 -5
1 -9 -5 -9 -6 0 -13 11 -17 24 -7 27 -34 44 -34 21 0 -8 5 -15 11 -15 6 0 9
-6 6 -14 -3 -8 -1 -17 6 -20 7 -2 1 -4 -13 -3 -20 2 -26 -3 -28 -24 -4 -33 21
-59 58 -59 28 0 44 19 34 43 -2 7 9 20 26 30 16 10 30 23 30 29 0 6 9 8 19 5
16 -4 20 2 26 39 3 24 12 44 18 44 7 0 6 4 -3 10 -8 5 -10 10 -5 11 6 1 15 2
20 3 6 0 18 8 26 16 13 11 14 21 7 42 -11 32 -38 38 -38 8 0 -11 5 -20 10 -20
6 0 10 -7 10 -16 0 -12 -7 -15 -30 -12 -21 3 -30 0 -33 -11 -3 -9 -5 -2 -6 14
-1 35 48 103 67 91 29 -18 54 -123 32 -136 -18 -11 10 -60 37 -66 17 -5 21
-10 13 -19 -5 -6 -8 -14 -5 -16 10 -10 -80 -7 -99 3 -21 11 -21 11 -2 -11 14
-16 31 -21 65 -21 l45 0 -31 -32 c-47 -50 -58 -76 -43 -104 18 -33 45 -27 45
10 0 17 -4 37 -9 44 -5 8 -4 18 3 25 9 9 11 7 6 -8 -6 -18 -5 -18 7 -3 19 22
104 69 112 61 3 -4 6 -16 6 -29 0 -15 9 -27 29 -35 29 -13 41 -34 41 -73 0
-15 -5 -17 -30 -12 -21 4 -30 2 -30 -7 0 -7 -16 -21 -35 -31 -41 -22 -48 -62
-15 -91 28 -25 25 -38 -7 -32 -35 7 -53 -1 -53 -23 0 -10 -9 -20 -20 -23 -17
-4 -19 -11 -14 -31 7 -30 -4 -55 -17 -35 -6 10 -12 9 -29 -6 -19 -17 -22 -17
-36 -3 -9 9 -17 29 -18 44 -2 39 -15 59 -29 45 -16 -16 -35 -13 -41 7 -4 14
-5 14 -3 -2 1 -10 11 -24 22 -30 23 -13 35 -27 34 -41 0 -5 -3 -5 -5 1 -7 17
-104 -34 -106 -54 0 -10 -1 -23 -1 -29 1 -18 -16 -16 -23 2 -4 10 -10 12 -18
6 -7 -6 -16 -4 -24 5 -7 8 -8 14 -2 14 5 0 10 7 10 15 0 8 11 17 25 21 45 11
60 67 26 98 -11 10 -25 31 -31 47 -7 16 -16 26 -21 23 -5 -3 -7 -9 -4 -14 3
-5 -8 -16 -25 -25 -22 -11 -30 -12 -30 -3 0 9 -3 9 -11 1 -8 -8 -8 -17 1 -32
6 -12 8 -26 5 -31 -3 -5 3 -27 15 -49 20 -40 16 -57 -10 -40 -24 14 -29 11
-38 -23 -6 -22 -8 13 -6 107 6 216 10 263 25 282 8 9 9 14 2 10 -14 -9 -27 10
-26 38 1 46 16 95 29 95 8 0 14 7 14 15 0 8 -5 14 -11 13 -18 -5 -21 18 -4 35
18 19 19 34 3 40 -10 3 -10 7 0 19 7 9 9 24 6 34 -5 15 -3 14 10 -3 10 -13 22
-23 27 -23 6 0 19 -10 30 -22 13 -16 21 -19 26 -11 5 6 22 13 38 15 24 2 31 8
33 30 2 19 -3 30 -17 38 -14 7 -21 21 -21 40 0 29 -14 48 -24 31 -3 -5 -18
-12 -33 -16 -15 -3 -37 -18 -50 -33 -13 -15 -21 -20 -18 -11 4 11 -2 22 -15
32 -15 10 -18 17 -10 22 7 4 10 16 7 26 -3 11 -1 19 4 19 10 0 32 77 24 89 -3
5 0 32 6 60 l10 50 33 -17 c27 -14 37 -29 60 -95z m-330 73 c-18 -29 -18 -30
11 -60 24 -25 29 -37 26 -74 -1 -29 5 -59 18 -87 12 -23 21 -44 21 -44 0 -1
-11 -14 -25 -29 -14 -15 -25 -32 -25 -39 0 -7 10 -1 21 13 l21 25 -7 -25 c-4
-14 -10 -46 -12 -72 -5 -45 -23 -59 -23 -17 0 10 -7 19 -15 19 -8 0 -15 8 -15
18 0 9 -6 37 -13 61 l-13 43 -19 -28 c-11 -18 -14 -29 -7 -32 6 -2 9 -9 6 -17
-3 -7 6 -48 21 -90 26 -79 27 -105 2 -105 -14 0 -58 45 -75 76 -6 11 -7 39 -2
69 18 115 -11 234 -65 269 -31 20 -32 33 -2 42 26 8 153 89 162 104 3 5 11 10
16 10 6 0 2 -13 -7 -30z m-584 -110 c13 -11 18 -20 12 -20 -7 0 -12 -8 -12
-17 0 -14 2 -15 9 -5 6 10 10 10 20 -2 11 -13 9 -17 -13 -27 -14 -7 -26 -16
-26 -21 0 -12 18 -10 22 4 6 18 28 0 28 -23 0 -11 -8 -22 -17 -25 -37 -12 -63
-28 -63 -39 0 -13 -45 -55 -60 -55 -5 0 -14 -8 -20 -17 -8 -14 -9 -12 -4 12 5
25 4 28 -7 18 -18 -17 -29 -16 -29 2 0 8 -4 15 -10 15 -5 0 -7 -6 -4 -14 6
-16 -12 -31 -21 -17 -3 6 -3 22 1 36 5 20 9 23 15 13 5 -7 9 -8 9 -3 -1 19
-39 57 -51 49 -8 -5 -10 4 -7 29 4 35 -14 59 -27 37 -14 -22 -22 -8 -12 20 12
31 27 40 27 17 0 -18 33 -44 50 -39 8 3 11 -1 7 -10 -3 -9 1 -25 9 -37 21 -30
69 -28 89 3 19 29 28 86 14 86 -6 0 -7 5 -4 10 3 6 18 10 32 10 18 0 24 4 19
15 -7 20 -4 19 24 -5z m1822 -16 c-35 -24 -22 -44 15 -21 20 13 8 -41 -16 -74
l-23 -31 21 -15 c12 -8 19 -19 16 -24 -4 -5 -3 -9 2 -9 4 0 8 -20 8 -45 0 -29
-4 -45 -12 -45 -7 0 -13 -6 -13 -14 0 -7 -7 -19 -16 -27 -14 -12 -14 -14 1
-25 11 -8 15 -20 11 -30 -5 -14 -15 -8 -56 33 -28 28 -50 55 -50 59 0 5 -9 15
-20 22 -11 7 -20 18 -20 26 0 17 -60 70 -69 61 -3 -4 2 -12 12 -19 19 -15 23
-31 5 -20 -8 4 -10 3 -5 -2 5 -5 14 -9 20 -9 15 0 25 -43 19 -78 -4 -23 2 -34
31 -58 20 -16 38 -42 42 -59 4 -17 11 -30 16 -30 5 0 4 -9 -3 -19 -7 -11 -16
-17 -20 -15 -4 3 -8 -5 -8 -18 0 -18 2 -20 10 -8 5 8 10 10 10 4 0 -6 -7 -17
-15 -24 -18 -15 -11 -30 15 -30 10 0 20 9 24 23 3 13 13 23 23 23 10 1 25 4
33 8 12 5 16 0 15 -22 -1 -31 -30 -69 -40 -52 -3 5 -12 10 -18 10 -16 -1 32
-40 48 -40 7 0 15 5 17 11 5 16 78 21 78 5 0 -7 -5 -17 -11 -23 -6 -6 -17 -22
-23 -35 -6 -12 -18 -23 -26 -23 -8 0 -21 -8 -28 -17 -7 -9 -19 -15 -26 -12 -8
3 -21 -4 -29 -16 -14 -20 -17 -19 -103 75 -49 53 -91 100 -93 106 -1 6 -13 21
-25 33 -11 13 -52 65 -91 117 -38 51 -87 110 -107 130 -20 20 -46 55 -57 78
-12 22 -30 45 -41 51 -31 17 -25 37 10 32 16 -2 28 -7 26 -11 -2 -3 6 -11 19
-17 20 -10 29 -7 59 18 41 34 78 43 106 28 16 -9 20 -8 20 5 0 12 6 15 23 10
12 -4 26 -11 32 -16 5 -5 19 -9 32 -9 16 0 24 -7 29 -27 10 -42 42 -82 89
-112 23 -14 40 -31 39 -36 -2 -6 8 -18 21 -28 27 -19 35 -8 10 13 -11 9 -12
15 -5 20 7 4 4 15 -10 32 -24 31 -26 46 -5 28 11 -9 15 -9 15 -1 0 7 5 9 10 6
6 -4 8 -10 5 -15 -6 -10 23 -60 35 -60 8 0 -10 78 -23 98 -5 6 -6 16 -2 21 9
16 -12 22 -39 10 -20 -9 -28 -9 -40 4 -12 11 -13 18 -5 23 8 5 6 10 -5 16 -13
7 -14 13 -6 23 8 9 6 14 -7 20 -17 6 -17 7 -1 16 10 5 35 12 55 15 21 2 42 9
47 14 6 6 21 10 35 10 l25 0 -22 -16z m-1406 -29 c21 -19 34 -34 28 -35 -6 0
-17 7 -24 15 -7 8 -20 15 -29 15 -10 -1 -6 -6 11 -16 32 -17 58 -70 65 -132 5
-38 3 -43 -13 -40 -14 2 -20 -4 -22 -24 -3 -29 -22 -40 -22 -13 0 8 -11 22
-25 31 -22 14 -26 14 -54 -2 -17 -10 -32 -25 -35 -33 -3 -12 -6 -10 -11 7 -4
12 -14 22 -21 22 -19 0 3 35 29 47 18 8 18 9 -2 35 -12 14 -21 31 -21 36 0 5
-7 12 -15 16 -16 6 -45 -39 -45 -71 -1 -13 -5 -11 -16 10 -14 25 -13 29 2 45
17 16 44 34 74 48 8 4 32 22 53 41 20 18 41 33 45 33 5 0 26 -16 48 -35z
m-241 -135 c-4 -13 -1 -22 10 -26 8 -4 25 -26 36 -51 16 -36 24 -43 39 -38 21
7 26 -12 11 -48 -6 -16 -11 -13 -36 23 -43 62 -82 92 -104 80 -22 -11 -35 -50
-17 -50 7 0 18 10 25 23 6 12 10 15 8 7 -2 -8 2 -28 9 -45 13 -29 14 -29 20
-7 6 22 7 22 26 5 11 -10 27 -31 35 -48 8 -16 27 -42 41 -57 44 -47 5 -31 -44
18 l-46 47 7 -32 c5 -26 3 -32 -14 -39 -20 -7 -20 -8 8 -41 16 -18 31 -29 35
-23 3 5 -1 12 -9 16 -8 3 -15 9 -15 15 0 5 24 1 53 -9 28 -10 78 -26 109 -35
66 -19 106 -52 115 -95 4 -21 11 -30 22 -28 19 4 16 45 -5 69 -11 12 -11 18
-2 27 9 9 6 12 -15 12 -25 0 -26 2 -17 20 10 18 9 19 -16 10 -19 -7 -43 -7
-80 2 -59 14 -66 31 -16 36 18 2 32 7 32 13 0 5 11 9 25 9 26 0 32 9 15 26
-14 14 -30 74 -20 74 5 0 12 -10 15 -22 4 -13 18 -38 32 -55 21 -29 22 -33 6
-33 -11 0 -1 -11 27 -30 43 -28 45 -32 45 -77 0 -42 3 -48 22 -51 29 -4 32
-19 13 -73 l-16 -46 -41 37 c-23 20 -76 60 -118 88 -64 43 -84 52 -121 52 -32
0 -44 -4 -44 -15 0 -11 8 -14 34 -9 88 13 301 -167 258 -219 -16 -19 -25 -84
-13 -91 5 -4 8 -13 5 -20 -3 -8 -1 -17 5 -20 7 -4 7 -15 1 -30 -5 -13 -6 -26
-4 -29 3 -3 0 -13 -6 -24 -8 -13 -24 -18 -51 -18 -45 0 -60 20 -21 30 l27 7
-25 14 c-24 13 -22 14 24 9 54 -5 52 -11 21 73 -8 24 -12 48 -9 54 5 7 0 9
-14 6 -25 -7 -29 7 -7 28 8 8 12 21 8 30 -4 11 -11 8 -34 -15 -16 -17 -31 -26
-34 -21 -4 6 -16 10 -28 10 -21 1 -20 2 8 25 l30 25 -33 -12 c-29 -11 -33 -10
-48 10 -9 14 -22 21 -31 18 -8 -3 -11 -2 -8 3 3 5 1 12 -4 15 -13 8 -39 -25
-45 -59 -3 -16 -12 -33 -20 -37 -8 -5 -13 -15 -10 -23 5 -12 0 -12 -28 -4 -61
19 -74 22 -59 11 15 -11 5 -35 -12 -29 -7 2 -13 24 -13 48 -1 24 -5 52 -9 62
-8 20 9 23 31 5 42 -35 54 -50 48 -59 -4 -8 1 -9 17 -4 31 10 29 8 35 41 8 46
12 54 33 54 24 0 39 39 20 51 -23 15 -48 10 -59 -11 -12 -23 -7 -25 21 -9 18
9 19 8 7 -10 -17 -27 -58 -28 -65 -1 -3 11 -10 20 -16 20 -6 0 -7 3 -4 6 4 4
-3 20 -14 36 -16 22 -20 39 -16 64 5 32 -5 46 -18 24 -4 -6 -12 -7 -18 -3 -17
10 -40 10 -54 -1 -20 -13 -16 8 7 37 25 32 25 43 -1 50 -11 3 -19 11 -18 19 5
43 -2 69 -18 66 -11 -2 -18 3 -18 13 0 21 71 99 89 99 8 0 22 8 32 17 13 13
19 14 22 5 5 -17 22 -15 22 4 0 9 5 12 12 8 8 -5 9 -2 5 10 -8 20 -1 36 14 36
6 0 7 -9 4 -20z m1181 -634 c23 -33 24 -39 11 -54 -8 -9 -12 -23 -10 -29 3 -7
0 -13 -6 -13 -6 0 -11 10 -12 23 0 21 -1 21 -8 2 -5 -11 -5 -30 0 -41 11 -30
-2 -39 -21 -14 -14 18 -18 19 -43 8 -15 -7 -27 -18 -27 -25 0 -6 -5 -15 -12
-19 -7 -5 -9 -2 -5 8 4 12 1 14 -14 11 -10 -3 -19 -10 -19 -15 0 -6 -11 -7
-24 -4 -17 4 -28 1 -34 -10 -5 -8 -16 -16 -25 -18 -9 -1 -20 -5 -23 -9 -13
-12 -24 -8 -18 7 4 11 0 13 -18 9 -13 -4 -26 -11 -31 -17 -5 -7 -12 -4 -22 9
-14 17 -13 20 0 28 9 4 24 5 35 2 34 -11 22 12 -12 24 -23 8 -33 8 -39 0 -4
-6 -12 -8 -18 -4 -9 5 -9 10 -1 20 6 7 8 20 4 29 -5 13 1 16 31 16 29 0 36 3
33 17 -2 9 -14 20 -28 24 -25 6 -22 9 20 22 20 6 50 -10 50 -27 0 -15 16 -16
38 -3 9 6 11 0 8 -27 -3 -23 -1 -34 5 -30 6 3 22 -5 36 -17 18 -17 24 -19 20
-8 -4 13 -1 16 14 12 15 -4 18 -2 13 11 -3 9 -11 16 -17 16 -5 0 -3 8 6 18 20
22 22 42 5 43 -7 1 -3 4 9 7 17 5 20 11 13 22 -7 12 -12 12 -22 2 -6 -6 -16
-12 -21 -12 -5 0 -2 7 7 15 20 20 29 19 60 -10 15 -14 32 -25 39 -25 7 1 2 9
-9 19 -30 24 -14 52 27 47 22 -2 37 -13 55 -40z"/>
<path d="M2611 824 c-15 -35 -29 -53 -37 -50 -41 16 -80 16 -99 1 -20 -16 -20
-16 3 -10 26 8 102 -3 102 -14 0 -4 -15 -14 -32 -22 -27 -11 -33 -20 -33 -44
0 -23 5 -30 19 -30 11 0 21 -6 24 -14 3 -10 -2 -12 -21 -7 -21 5 -24 3 -20
-14 6 -22 18 -26 28 -10 4 6 12 7 18 4 7 -4 9 -4 5 1 -11 12 42 105 61 105 28
0 81 -58 81 -90 0 -20 -9 -36 -32 -54 -24 -19 -28 -26 -15 -26 9 0 17 -4 17
-10 0 -5 5 -10 10 -10 6 0 10 7 10 15 0 8 4 15 8 15 5 0 14 10 19 23 l11 22
12 -27 c12 -26 13 -26 33 -8 11 11 25 16 30 13 6 -4 8 0 4 10 -4 10 6 37 23
67 34 58 37 75 14 84 -22 9 -24 8 -24 -10 0 -8 5 -12 10 -9 16 10 12 -4 -22
-72 -18 -35 -37 -61 -43 -59 -5 2 -9 8 -8 14 2 6 -4 9 -12 6 -10 -4 -15 0 -15
15 0 46 -32 87 -63 82 -5 -1 -6 3 -2 9 3 5 -5 15 -19 22 -30 13 -31 19 -12 73
13 37 12 65 -3 65 -3 0 -17 -25 -30 -56z"/>
<path d="M3245 891 c7 -24 -4 -27 -25 -8 -8 7 -6 0 4 -17 21 -34 9 -54 -22
-37 -29 15 -30 15 -28 -16 3 -49 47 -96 58 -62 5 15 58 0 58 -16 0 -7 -6 -16
-12 -19 -10 -5 -10 -7 0 -12 24 -11 12 -23 -14 -14 -35 14 -38 13 -19 -6 9 -9
30 -17 46 -18 18 -1 35 -9 40 -19 12 -21 29 -13 29 13 0 12 -10 21 -27 24 -22
5 -28 13 -30 36 -1 17 2 29 9 27 18 -4 20 20 2 37 -13 13 -14 20 -5 29 9 9 16
6 31 -12 l18 -25 -5 27 c-6 30 -55 85 -61 68 -2 -6 -8 -11 -14 -11 -6 0 -8 7
-4 15 3 9 -3 19 -15 26 -19 9 -20 8 -14 -10z"/>
</g>
</svg>
